<svg width="186" height="126" viewBox="0 0 186 126" fill="none" xmlns="http://www.w3.org/2000/svg">
<path d="M24.2368 26.9649H22.0162V7.35427H24.2368V26.9649ZM42.3975 21.6487C42.3975 25.0136 39.5858 27.2019 35.6839 27.2019C32.6969 27.2381 29.8126 26.113 27.6395 24.0639L29.0186 22.4365C29.8966 23.3368 30.9469 24.0512 32.1069 24.537C33.267 25.0228 34.513 25.27 35.7707 25.264C38.407 25.264 40.1518 23.862 40.1518 21.9258C40.1518 20.0981 39.1717 19.0599 35.031 18.1719C30.513 17.1838 28.4293 15.6715 28.4293 12.5069C28.4293 9.41898 31.1524 7.15397 34.8924 7.15397C37.4161 7.08121 39.8781 7.94045 41.8081 9.56753L40.5525 11.27C38.9786 9.90349 36.9654 9.1487 34.8808 9.14357C32.3696 9.14357 30.6883 10.544 30.6883 12.3066C30.6883 14.146 31.7051 15.1841 36.0345 16.0588C40.3639 16.9334 42.4359 18.5608 42.4359 21.612L42.3975 21.6487ZM62.1794 7.02879C60.8482 7.01929 59.5285 7.27556 58.2977 7.78259C57.0669 8.28961 55.9497 9.03719 55.0117 9.98148C54.0774 10.9252 53.3418 12.0465 52.8486 13.2793C52.3553 14.5121 52.1143 15.8312 52.1399 17.1587V17.2222C52.1438 18.5368 52.4075 19.8378 52.9158 21.0503C53.4241 22.2628 54.167 23.3629 55.1018 24.2876C56.9916 26.1606 59.5483 27.2065 62.2095 27.1952C64.8706 27.1865 67.42 26.1249 69.3005 24.2425C71.174 22.3613 72.2237 19.8134 72.219 17.1587C72.2517 15.8318 72.0147 14.512 71.5226 13.2792C71.0304 12.0464 70.2932 10.9263 69.3556 9.98648C68.4167 9.04394 67.2972 8.30058 66.0641 7.80095C64.8311 7.30133 63.5098 7.05572 62.1794 7.07886V7.02879ZM69.8848 17.2722C69.9297 18.3101 69.7634 19.3462 69.3961 20.318C69.0287 21.2897 68.4679 22.1768 67.7477 22.9256C67.0276 23.677 66.1633 24.2756 65.2066 24.6857C64.2499 25.0958 63.2204 25.309 62.1794 25.3124C61.1322 25.3034 60.0973 25.0849 59.1358 24.6698C58.1744 24.2547 57.3057 23.6515 56.5811 22.8955C55.8584 22.1407 55.2948 21.2483 54.9239 20.2714C54.5531 19.2944 54.3825 18.253 54.4223 17.2088C54.3761 16.1705 54.5412 15.1336 54.9077 14.161C55.2742 13.1884 55.8344 12.3002 56.5544 11.5505C57.2751 10.7984 58.1405 10.1997 59.0986 9.79038C60.0566 9.38107 61.0875 9.16958 62.1293 9.16861C63.1757 9.17676 64.2099 9.39405 65.171 9.80768C66.1322 10.2213 67.0009 10.8229 67.726 11.5772C68.4481 12.3314 69.0113 13.223 69.3822 14.199C69.753 15.175 69.924 16.2156 69.8848 17.2589V17.2722ZM46.0373 7.40434H48.2579V26.9649H46.0624L46.0373 7.40434ZM8.56218 27.1034L0.10377 7.35594H2.61324L3.86881 10.2802L9.65413 24.2509L10.2051 25.5878L9.99307 23.438L16.5698 7.35427H18.954L10.5324 27.1034H8.56218ZM90.2912 7.3576H92.4617V26.9665H90.6919L76.8105 9.33051L78.0661 12.1947V26.9649H75.8187V7.35427H77.9025L91.2062 24.2258L90.2895 21.8239L90.2912 7.3576ZM152.515 29.0396H154.624V31.1143H152.54L152.515 29.0396ZM156.683 29.0396H158.767V31.1143H156.681L156.683 29.0396ZM113.771 5.27453H111.688V3.22651H113.771V5.27453ZM164.726 19.796C165.558 20.3762 166.489 20.7999 167.474 21.0461C168.553 21.3166 169.662 21.4512 170.775 21.4467H171.327L172.03 19.9829V22.0343C172.075 22.4709 172.012 22.9118 171.848 23.319C171.684 23.7261 171.423 24.0872 171.089 24.371C170.308 24.8815 169.385 25.1273 168.454 25.0721C167.876 25.0771 167.299 25.0184 166.734 24.8968C166.128 24.7365 165.537 24.5277 164.964 24.2726L164.325 26.2722C165.017 26.5348 165.724 26.7518 166.445 26.9231C167.055 27.0734 167.674 27.1485 168.302 27.1485C169.099 27.2203 169.903 27.1299 170.665 26.8826C171.426 26.6353 172.13 26.2363 172.733 25.7097C173.688 24.6498 174.184 23.2561 174.114 21.834V7.37763H170.775C169.581 7.36673 168.393 7.55283 167.26 7.92845C166.268 8.24988 165.345 8.75431 164.539 9.41564C163.786 10.0349 163.181 10.8143 162.768 11.6971C162.355 12.5799 162.145 13.5437 162.153 14.5182C162.126 15.6098 162.363 16.6897 162.844 17.6712C163.291 18.5257 163.936 19.2618 164.726 19.821V19.796ZM164.726 12.4668C165.029 11.8526 165.457 11.3084 165.981 10.8644C167.071 9.97982 168.429 9.49033 169.833 9.47573H173.197L172.017 10.0649V19.3954H169.91C169.161 19.4 168.416 19.2903 167.701 19.0699C167.047 18.8614 166.435 18.5393 165.893 18.1185C165.363 17.713 164.934 17.191 164.639 16.5929C164.33 15.9447 164.176 15.2342 164.186 14.5165C164.178 13.8038 164.347 13.0994 164.675 12.4668H164.726ZM117.89 5.30124H115.807V3.22651H117.89V5.30124ZM179.387 27.1752C178.812 27.1752 178.243 27.0951 177.692 26.9382L178.245 24.9486C178.429 25.0042 178.618 25.0459 178.809 25.0737H179.312C179.645 25.0888 179.978 25.0337 180.29 24.9118C180.542 24.7983 180.749 24.6046 180.879 24.361C181.048 24.0556 181.153 23.7201 181.193 23.3729C181.266 22.8799 181.299 22.3842 181.293 21.8857V7.37763H183.365V21.9107C183.372 22.6463 183.309 23.3751 183.177 24.0973C183.068 24.691 182.842 25.2569 182.511 25.7614C182.198 26.2212 181.764 26.5852 181.257 26.813C180.662 27.0674 180.02 27.1909 179.373 27.1752H179.387ZM174.102 5.30124H169.534V3.60206C169.502 3.24476 169.542 2.88458 169.651 2.54303C169.761 2.20148 169.939 1.88556 170.174 1.61413C170.422 1.39333 170.712 1.22426 171.027 1.11679C171.342 1.00933 171.675 0.965615 172.007 0.988209H173.449V2.50211H172.019C171.791 2.47365 171.561 2.53667 171.379 2.67737C171.255 2.85626 171.197 3.07293 171.215 3.28994V3.75229H174.077L174.102 5.30124ZM112.267 26.8881H116.585V25.3358C116.585 25.4126 116.672 25.486 116.722 25.5494C117.036 26.0084 117.47 26.3707 117.977 26.601C118.573 26.863 119.221 26.9866 119.872 26.9632H158.778V7.37763H156.695V24.8868H119.922C119.588 24.9001 119.254 24.8451 118.944 24.7232C118.691 24.6067 118.481 24.4142 118.343 24.1724C118.179 23.8664 118.076 23.5313 118.041 23.186C117.97 22.6928 117.937 22.1952 117.94 21.6971V7.37763H112.317C111.034 7.36656 109.762 7.61186 108.575 8.09913C107.388 8.5864 106.31 9.30582 105.405 10.2152C104.502 11.1236 103.792 12.2039 103.315 13.3921C102.838 14.5802 102.604 15.852 102.628 17.132C102.597 18.407 102.825 19.6751 103.297 20.8598C103.769 22.0446 104.477 23.1214 105.376 24.0255C106.277 24.9331 107.351 25.6499 108.535 26.1331C109.719 26.6163 110.988 26.8561 112.267 26.838V26.8881ZM104.85 17.0319C104.806 16.0325 104.965 15.0345 105.318 14.0984C105.671 13.1622 106.21 12.3074 106.902 11.5855C107.596 10.8616 108.429 10.2852 109.351 9.89081C110.272 9.49644 111.264 9.29224 112.267 9.29046H117.136L115.882 9.92973V21.647C115.88 22.3811 115.947 23.1137 116.082 23.8352C116.153 24.1936 116.262 24.5396 116.409 24.8734H112.342C111.329 24.8743 110.326 24.6712 109.394 24.2763C108.461 23.8814 107.617 23.3029 106.912 22.5751C106.211 21.848 105.663 20.9869 105.303 20.0433C104.942 19.0998 104.775 18.0931 104.812 17.0836L104.85 17.0319ZM7.82086 125.16H6.27978L3.31616 121.259L1.84688 122.76V125.16H0.5696V116.856H1.84855V121.321L6.09111 116.856H7.62217L4.18104 120.408L7.82086 125.16ZM10.8079 116.856H9.52724V125.16H10.8079V116.856ZM20.6003 116.856V125.16H19.5084L14.6113 118.869V125.161H13.3557V116.856H14.5863L19.3431 122.971V116.856H20.6003ZM30.4762 120.621V124.035C29.5064 124.849 28.2785 125.293 27.0117 125.287C26.4392 125.314 25.8671 125.223 25.3317 125.019C24.7963 124.814 24.3091 124.501 23.9012 124.098C23.495 123.696 23.177 123.214 22.9671 122.682C22.7573 122.151 22.6603 121.581 22.6824 121.01C22.6753 120.444 22.7819 119.882 22.9958 119.357C23.2097 118.832 23.5267 118.356 23.9279 117.956C24.3294 117.555 24.8066 117.238 25.3317 117.024C25.8569 116.81 26.4195 116.702 26.9867 116.707C28.1306 116.647 29.254 117.027 30.1256 117.77L29.3209 118.72C28.6616 118.145 27.8112 117.838 26.9366 117.857C26.1452 117.907 25.4039 118.268 24.8729 118.857C24.3413 119.445 24.0634 120.219 24.0999 121.01C24.0538 121.629 24.2051 122.247 24.5321 122.775C24.8591 123.303 25.3449 123.713 25.9198 123.948C26.3021 124.106 26.7129 124.182 27.1253 124.173C27.8933 124.183 28.6463 123.946 29.2708 123.497V121.735H27.0618V120.658L30.4762 120.621ZM35.8592 116.857H32.7837V125.161H35.8592C36.7234 125.227 37.5869 125.024 38.3305 124.579C39.0742 124.133 39.6615 123.469 40.0116 122.676C40.3589 121.884 40.4501 121.003 40.2726 120.156C40.0952 119.309 39.6578 118.539 39.0215 117.952C38.5985 117.562 38.0991 117.263 37.5549 117.074C37.0107 116.886 36.4333 116.812 35.8592 116.857ZM35.8592 124.023H34.0643V117.994H35.8592C36.6606 117.994 37.4303 118.311 37.9963 118.879C38.2766 119.158 38.4991 119.49 38.6508 119.856C38.8026 120.222 38.8807 120.614 38.8807 121.009C38.8807 121.405 38.8026 121.797 38.6508 122.163C38.4991 122.528 38.2766 122.861 37.9963 123.14C37.4303 123.706 36.6606 124.023 35.8592 124.023ZM46.3128 116.706C45.7395 116.689 45.1687 116.788 44.6348 116.998C44.1008 117.207 43.6147 117.522 43.2056 117.924C42.7972 118.326 42.4748 118.806 42.2581 119.337C42.0414 119.867 41.9349 120.436 41.945 121.009C41.9391 121.872 42.1909 122.718 42.6683 123.437C43.1456 124.157 43.8269 124.717 44.6248 125.048C45.4222 125.381 46.3005 125.471 47.1489 125.306C47.9972 125.141 48.7777 124.728 49.3916 124.12C50.0067 123.513 50.4268 122.736 50.5983 121.889C50.7698 121.042 50.6849 120.164 50.3545 119.365C50.0241 118.567 49.4631 117.885 48.7432 117.407C48.0233 116.929 47.1771 116.676 46.3128 116.681V116.706ZM49.3248 121.009C49.3519 121.619 49.191 122.224 48.8638 122.74C48.5365 123.256 48.0588 123.66 47.4949 123.896C47.1211 124.055 46.7189 124.136 46.3128 124.135C45.7002 124.127 45.1041 123.936 44.601 123.586C44.0979 123.237 43.7108 122.745 43.4894 122.174C43.3428 121.795 43.2747 121.39 43.2891 120.984C43.257 120.372 43.4139 119.765 43.7385 119.245C44.0632 118.725 44.5399 118.317 45.104 118.078C45.478 117.916 45.8804 117.832 46.2894 117.832C46.9024 117.841 47.4989 118.032 48.0028 118.381C48.5068 118.73 48.8955 119.221 49.1195 119.792C49.2664 120.172 49.3365 120.576 49.3248 120.984V121.009ZM60.9606 116.856V125.16H59.6783V118.782L56.8433 123.01L54.0182 118.807V125.16H52.7643V116.856H54.1952L56.8666 120.984L59.528 116.856H60.9606ZM71.653 116.706C71.0789 116.689 70.5075 116.789 69.9728 116.998C69.4381 117.207 68.951 117.522 68.5408 117.924C68.1316 118.326 67.8082 118.806 67.5901 119.336C67.372 119.867 67.2638 120.435 67.2718 121.009C67.266 121.871 67.5174 122.716 67.9942 123.435C68.4709 124.155 69.1512 124.715 69.9483 125.046C70.7452 125.38 71.6232 125.471 72.4716 125.307C73.3199 125.142 74.1006 124.731 74.7151 124.123C75.3275 123.517 75.7461 122.744 75.9179 121.9C76.0898 121.056 76.007 120.18 75.6802 119.383C75.3497 118.586 74.7909 117.904 74.0741 117.424C73.3573 116.943 72.5144 116.685 71.6513 116.682L71.653 116.706ZM74.6517 121.009C74.6785 121.617 74.5185 122.22 74.1933 122.735C73.868 123.25 73.3929 123.654 72.8317 123.891C72.4593 124.051 72.0583 124.134 71.653 124.135C71.2457 124.13 70.8434 124.044 70.4696 123.882C70.0958 123.72 69.758 123.485 69.4758 123.192C69.1946 122.899 68.9748 122.552 68.8292 122.173C68.6835 121.794 68.615 121.39 68.6276 120.984C68.5955 120.372 68.7524 119.765 69.077 119.245C69.4017 118.725 69.8784 118.317 70.4425 118.078C70.8165 117.916 71.2205 117.832 71.6279 117.832C72.2405 117.84 72.8366 118.032 73.3398 118.381C73.8428 118.731 74.2299 119.222 74.4513 119.793C74.5982 120.172 74.665 120.578 74.6517 120.984V121.009ZM79.3834 117.994V120.545H83.7011V121.683H79.3834V125.16H78.1028V116.856H84.2521V117.994H79.3834ZM96.4522 122.846C96.4522 124.322 95.2968 125.348 93.5019 125.348C92.2544 125.354 91.0466 124.91 90.1009 124.096L90.8539 123.195C91.5885 123.868 92.5452 124.247 93.542 124.26C94.5321 124.26 95.1716 123.796 95.1716 123.008C95.1716 122.22 94.7074 121.947 93.1513 121.596C91.3698 121.157 90.3897 120.645 90.3897 119.094C90.4139 118.575 90.5996 118.077 90.9207 117.668C91.2419 117.26 91.6825 116.962 92.1812 116.816C92.5118 116.719 92.8591 116.689 93.2014 116.732C94.2678 116.707 95.3101 117.052 96.1516 117.707L95.4738 118.668C94.818 118.15 94.0123 117.856 93.1763 117.831C92.2848 117.831 91.6703 118.295 91.6703 118.982C91.6703 119.67 92.1211 120.034 93.7908 120.433C95.7109 120.895 96.4522 121.571 96.4522 122.846ZM102.501 116.794H101.247L97.5692 125.16H98.8247L99.703 123.097H103.907L104.774 125.16H106.116L102.501 116.794ZM100.217 121.997L101.862 118.245L103.506 121.997H100.217ZM114.463 116.856V121.584C114.565 122.326 114.413 123.08 114.031 123.724C113.649 124.368 113.059 124.863 112.359 125.128C111.894 125.305 111.395 125.375 110.9 125.335C110.169 125.399 109.438 125.216 108.823 124.815C108.209 124.415 107.746 123.821 107.509 123.127C107.352 122.667 107.301 122.178 107.358 121.696V116.894H108.616V121.635C108.616 123.247 109.444 124.135 110.9 124.135C112.356 124.135 113.159 123.222 113.159 121.635V116.831L114.463 116.856ZM119.959 116.857H116.885V125.161H119.959C120.823 125.227 121.687 125.024 122.43 124.579C123.174 124.133 123.761 123.469 124.111 122.676C124.459 121.884 124.55 121.003 124.373 120.156C124.195 119.309 123.758 118.539 123.121 117.952C122.698 117.562 122.199 117.263 121.655 117.074C121.111 116.886 120.533 116.812 119.959 116.857ZM119.959 124.023H118.153V117.994H119.959C120.761 117.994 121.53 118.311 122.098 118.879C122.522 119.3 122.811 119.837 122.928 120.423C123.045 121.009 122.985 121.616 122.756 122.168C122.527 122.72 122.139 123.191 121.641 123.521C121.143 123.851 120.557 124.026 119.959 124.023ZM127.816 116.856H126.536V125.16H127.816V116.856ZM139.061 116.794H137.806L134.129 125.16H135.385L136.263 123.097H140.467L141.334 125.16H142.676L139.061 116.794ZM136.777 121.997L138.422 118.245L140.065 121.997H136.777ZM149.101 121.983H149.251C149.819 121.86 150.326 121.543 150.685 121.086C151.044 120.63 151.234 120.064 151.221 119.483C151.242 118.821 150.999 118.177 150.545 117.694C149.884 117.119 149.023 116.827 148.148 116.881H144.383V125.185H145.638V122.184H147.672L149.742 125.111H151.248L149.101 121.983ZM145.725 121.082V117.994H148.022C149.278 117.994 149.917 118.545 149.917 119.52C149.917 120.494 149.178 121.084 148.036 121.084L145.725 121.082ZM157.8 116.794H156.544L152.868 125.16H154.122L155.002 123.097H159.206L160.071 125.16H161.415L157.8 116.794ZM155.502 121.997L157.147 118.245L158.803 121.997H155.502ZM168.427 120.947L168.165 120.858L168.402 120.735C168.757 120.589 169.059 120.338 169.267 120.016C169.476 119.694 169.581 119.316 169.569 118.932C169.577 118.68 169.533 118.429 169.44 118.195C169.348 117.96 169.208 117.747 169.03 117.569C168.429 117.061 167.656 116.806 166.871 116.857H163.106V125.161H166.96C168.88 125.161 170.022 124.323 170.022 122.935C170.031 122.465 169.873 122.008 169.576 121.644C169.28 121.28 168.864 121.033 168.402 120.947H168.427ZM164.362 117.959H166.646C167.662 117.959 168.265 118.408 168.265 119.209C168.265 120.009 167.637 120.459 166.532 120.459H164.362V117.959ZM166.973 124.061H164.362V121.559H166.871C168.504 121.559 168.741 122.347 168.741 122.811C168.741 123.661 168.102 124.061 166.973 124.061ZM173.461 116.856H172.181V125.16H173.461V116.856ZM180.09 116.794H178.834L175.169 125.16H176.425L177.303 123.097H181.507L182.374 125.16H183.716L180.09 116.794ZM177.806 121.997L179.448 118.245L181.106 121.997H177.806ZM132.585 98.1616H131.329V99.4117H132.585V98.1616ZM117.525 108.891H118.78V98.1616H117.525V108.891ZM12.8047 100.775H11.5492V107.691H6.78067V100.775H4.93572C4.2462 100.767 3.55978 100.869 2.90209 101.076C2.33441 101.259 1.80681 101.547 1.34598 101.925C0.928574 102.268 0.586297 102.693 0.342529 103.177C0.106999 103.682 -0.0127928 104.233 -0.008096 104.79C-0.0231228 105.421 0.115458 106.047 0.392618 106.616C0.654752 107.106 1.02374 107.534 1.47121 107.866C1.94706 108.206 2.48468 108.452 3.05236 108.59C3.66679 108.757 4.29958 108.841 4.93572 108.841H12.8047V100.775ZM5.63864 107.689H4.4582C4.03315 107.691 3.61031 107.628 3.2043 107.502C2.82751 107.374 2.4752 107.184 2.16244 106.938C1.85028 106.676 1.60288 106.346 1.43953 105.972C1.27618 105.599 1.20131 105.193 1.22076 104.786C1.21537 104.378 1.30995 103.975 1.49625 103.611C1.67323 103.261 1.92201 102.95 2.22422 102.698C2.53217 102.443 2.88568 102.248 3.26607 102.124C3.66846 101.979 4.09422 101.907 4.52165 101.91H5.70041L5.63864 107.689ZM9.47882 111.528H10.7344V110.278H9.47882V111.528ZM6.8174 98.1582H5.5635V99.4101H6.8174V98.1582ZM80.0747 98.1582H78.8191V99.4101H80.0747V98.1582ZM11.5492 111.528H12.8047V110.278H11.5492V111.528ZM82.1701 98.1582H80.9162V99.4101H82.1701V98.1582ZM130.49 98.1582H129.232V99.4101H130.488L130.49 98.1582ZM4.722 98.1582H3.46643V99.4101H4.722V98.1582ZM86.1739 111.528H87.4294V110.278H86.1739V111.528ZM93.8676 100.774H92.612V107.689H88.109V100.774H86.8534V107.689H82.0816V100.774H80.1982C79.505 100.767 78.8149 100.869 78.1529 101.074C77.5852 101.259 77.0593 101.548 76.5968 101.924C76.1811 102.266 75.8438 102.692 75.605 103.176C75.3695 103.68 75.2497 104.231 75.2544 104.788C75.2327 105.421 75.3713 106.048 75.6551 106.614C75.9122 107.108 76.2829 107.535 76.7337 107.864C77.2062 108.205 77.7388 108.45 78.3032 108.589C78.9209 108.756 79.5587 108.839 80.1982 108.839H93.8659L93.8676 100.774ZM80.9779 107.689H79.7858C79.3604 107.688 78.9373 107.625 78.5302 107.502C78.1581 107.373 77.8104 107.182 77.5017 106.938C77.2053 106.692 76.9655 106.385 76.7988 106.038C76.6213 105.645 76.5357 105.217 76.5484 104.786C76.543 104.378 76.6376 103.975 76.8239 103.611C77.2017 102.903 77.8407 102.369 78.6054 102.124C79.0078 101.979 79.4335 101.907 79.8609 101.91H81.0531L80.9779 107.689ZM88.2693 111.528H89.5248V110.278H88.2693V111.528ZM20.4985 101.824C20.1979 101.49 19.8306 101.221 19.4182 101.036C18.9612 100.848 18.4696 100.758 17.9756 100.774H17.0974V102.024H18.1393C18.4248 102.024 18.7069 102.087 18.9674 102.211C19.2145 102.324 19.4332 102.49 19.6069 102.698C19.7738 102.899 19.8957 103.134 19.9575 103.386C20.0287 103.682 20.0621 103.982 20.0577 104.287V107.751H14.4761V109.003H21.3032V104.175C21.2996 103.751 21.2361 103.33 21.1146 102.924C20.9974 102.541 20.8005 102.187 20.5369 101.885L20.4985 101.824ZM112.88 107.751H107.786L109.881 102.748C109.557 102.467 109.217 102.204 108.864 101.96C108.509 101.72 108.135 101.506 107.747 101.323C107.379 101.137 106.994 100.991 106.594 100.886C106.217 100.784 105.829 100.729 105.438 100.724C105.044 100.728 104.652 100.783 104.271 100.886C103.892 100.99 103.522 101.128 103.167 101.298C102.773 101.479 102.401 101.696 102.049 101.949C101.703 102.19 101.372 102.453 101.059 102.737L103.167 107.739H98.6494V100.774H97.3939V109.139C97.4106 109.427 97.4106 109.714 97.3939 110.002C97.3651 110.2 97.3012 110.39 97.2052 110.565C97.124 110.699 97.0065 110.808 96.8663 110.879C96.6863 110.948 96.4947 110.982 96.3019 110.979H96.0131L95.6875 110.904L95.3736 112.054C95.6942 112.138 96.0203 112.18 96.352 112.179C96.7227 112.192 97.0917 112.124 97.4323 111.979C97.7261 111.82 97.9732 111.588 98.1469 111.303C98.3339 111.014 98.4624 110.692 98.5242 110.351C98.6021 109.939 98.6394 109.523 98.6361 109.103V108.852H114.074V98.1599H112.818L112.88 107.751ZM104.385 107.751L102.501 103.161C102.922 102.798 103.403 102.511 103.921 102.311C104.406 102.136 104.922 102.047 105.44 102.049C105.991 102.049 106.535 102.154 107.044 102.361C107.537 102.553 107.996 102.823 108.4 103.162L106.518 107.752L104.385 107.751ZM92.6504 111.59H93.9043V110.34H92.6504V111.59ZM182.083 108.952H183.339V98.1599H182.083V108.952ZM177.39 107.701H173.272C173.525 107.148 173.653 106.546 173.65 105.938C173.651 105.346 173.536 104.76 173.311 104.212C173.093 103.698 172.778 103.231 172.383 102.837C171.989 102.439 171.519 102.123 171.002 101.91C170.452 101.685 169.864 101.571 169.27 101.573C168.691 101.567 168.116 101.687 167.587 101.924C167.079 102.139 166.619 102.454 166.233 102.848C165.728 103.37 165.359 104.008 165.16 104.706C164.96 105.405 164.937 106.141 165.091 106.851C165.15 107.143 165.238 107.426 165.353 107.702H161.59C161.838 107.147 161.967 106.546 161.967 105.938C161.965 105.346 161.85 104.761 161.628 104.212C161.41 103.698 161.095 103.231 160.7 102.837C160.307 102.439 159.837 102.123 159.319 101.91C158.769 101.685 158.18 101.57 157.586 101.573C157.007 101.567 156.433 101.687 155.905 101.924C155.396 102.139 154.935 102.454 154.549 102.848C154.044 103.37 153.675 104.008 153.476 104.706C153.276 105.405 153.253 106.141 153.407 106.851C153.467 107.143 153.555 107.426 153.671 107.702H149.906V98.1599H148.652V107.689H144.887V105.863C144.887 105.418 144.828 104.98 144.71 104.549C144.593 104.144 144.387 103.769 144.107 103.453C143.826 103.137 143.479 102.888 143.09 102.723C142.621 102.535 142.117 102.446 141.611 102.461H136.302L138.561 98.1599H137.305L134.996 102.45C135.026 102.684 135.089 102.909 135.185 103.124C135.274 103.321 135.39 103.5 135.535 103.661H141.661C141.995 103.656 142.329 103.716 142.64 103.837C142.89 103.931 143.114 104.085 143.292 104.286C143.469 104.487 143.594 104.728 143.656 104.988C143.714 105.276 143.743 105.568 143.743 105.863V107.689H132.65V100.774H130.752C130.062 100.766 129.376 100.867 128.718 101.074C128.147 101.259 127.616 101.548 127.149 101.924C126.737 102.27 126.4 102.696 126.157 103.176C125.921 103.68 125.801 104.231 125.806 104.788C125.793 105.419 125.93 106.045 126.207 106.614C126.471 107.105 126.838 107.532 127.287 107.864C127.76 108.201 128.292 108.448 128.857 108.589C129.477 108.756 130.108 108.839 130.752 108.839H154.596C154.998 109.268 155.484 109.61 156.024 109.842C156.564 110.075 157.147 110.194 157.735 110.191C158.346 110.196 158.952 110.077 159.516 109.84C160.062 109.612 160.555 109.271 160.96 108.839H166.232C166.633 109.268 167.119 109.609 167.659 109.842C168.199 110.075 168.781 110.193 169.369 110.191C169.985 110.196 170.594 110.077 171.164 109.84C171.705 109.607 172.191 109.268 172.595 108.839H178.694V98.1599H177.438L177.39 107.701ZM131.393 107.701H130.212C129.787 107.702 129.364 107.639 128.958 107.514C128.582 107.387 128.229 107.196 127.917 106.951C127.458 106.557 127.142 106.022 127.017 105.43C126.892 104.837 126.966 104.221 127.227 103.675C127.603 102.965 128.243 102.43 129.009 102.186C129.409 102.041 129.835 101.969 130.264 101.974H131.443L131.393 107.701ZM160.56 107.177C160.402 107.548 160.172 107.884 159.882 108.165C159.596 108.448 159.254 108.67 158.878 108.816C158.478 108.969 158.052 109.046 157.623 109.039C157.192 109.049 156.765 108.968 156.367 108.802C156.002 108.647 155.673 108.417 155.402 108.126C155.116 107.836 154.891 107.492 154.74 107.114C154.589 106.736 154.515 106.332 154.522 105.925C154.517 105.497 154.594 105.073 154.749 104.674C154.9 104.307 155.117 103.967 155.389 103.673C155.666 103.39 155.994 103.161 156.356 102.999C156.751 102.83 157.179 102.745 157.611 102.748C158.04 102.745 158.468 102.825 158.865 102.987C159.236 103.142 159.576 103.363 159.87 103.638C160.152 103.927 160.378 104.266 160.535 104.638C160.692 105.037 160.772 105.461 160.773 105.888C160.773 106.317 160.69 106.743 160.523 107.14L160.56 107.177ZM172.157 107.138C171.999 107.509 171.768 107.845 171.48 108.126C171.191 108.407 170.849 108.629 170.474 108.777C170.074 108.932 169.649 109.009 169.22 109.003C168.806 109.017 168.394 108.943 168.01 108.786C167.627 108.629 167.282 108.391 166.998 108.09C166.712 107.8 166.487 107.456 166.336 107.077C166.185 106.699 166.112 106.295 166.12 105.888C166.114 105.46 166.19 105.035 166.345 104.636C166.503 104.269 166.717 103.936 166.986 103.636C167.263 103.353 167.591 103.126 167.951 102.962C168.349 102.792 168.776 102.707 169.207 102.712C169.638 102.707 170.063 102.788 170.462 102.949C170.833 103.104 171.174 103.324 171.466 103.6C171.748 103.888 171.973 104.229 172.13 104.601C172.454 105.402 172.454 106.299 172.13 107.101L172.157 107.138ZM62.1644 107.627H60.2694C59.7017 107.652 59.1357 107.549 58.6131 107.327C58.2142 107.13 57.8855 106.815 57.6714 106.425C57.7426 106.058 57.776 105.687 57.7716 105.312V101.523H56.5794V105.562C56.6095 106.163 56.4075 106.756 56.0151 107.215C55.7988 107.434 55.5374 107.603 55.2491 107.711C54.9608 107.819 54.6524 107.862 54.3455 107.839C53.7157 107.858 53.1019 107.639 52.6257 107.227C52.4247 107.036 52.2591 106.812 52.1365 106.564C52.0132 106.31 51.9449 106.033 51.9362 105.751V101.523H50.6823V105.663C50.6923 105.98 50.6372 106.295 50.5186 106.589C50.4181 106.822 50.2685 107.031 50.0801 107.201C49.8917 107.371 49.6688 107.499 49.4267 107.575C49.1781 107.65 48.9199 107.689 48.6603 107.689H46.4013V101.523H45.1474V107.689H38.8712L40.98 102.687C40.6501 102.407 40.3068 102.145 39.9515 101.899C39.5998 101.658 39.2303 101.445 38.8462 101.261C38.4777 101.073 38.0932 100.927 37.6924 100.824C36.934 100.607 36.1301 100.607 35.3716 100.824C34.9698 100.933 34.5802 101.074 34.2029 101.248C33.815 101.429 33.4454 101.647 33.0993 101.899C32.7453 102.137 32.4102 102.399 32.0941 102.687L34.2146 107.689H30.0889V100.774H28.1688C27.4782 100.763 26.7908 100.869 26.1352 101.086C25.5691 101.278 25.0421 101.571 24.5791 101.949C24.1509 102.285 23.803 102.713 23.5606 103.201C23.3202 103.706 23.1949 104.262 23.1983 104.825C23.1816 105.457 23.3202 106.083 23.599 106.651C23.8561 107.146 24.2251 107.575 24.6792 107.903C25.1551 108.236 25.6927 108.48 26.2604 108.614C26.8832 108.771 27.5243 108.851 28.1671 108.852H28.8834V109.189C28.908 109.442 28.8719 109.696 28.7781 109.931C28.6843 110.166 28.5355 110.376 28.3441 110.541C27.8933 110.832 27.3607 110.972 26.8247 110.942C26.4897 110.944 26.1591 110.906 25.833 110.829C25.4845 110.742 25.1443 110.624 24.8162 110.478L24.4522 111.63C24.903 111.791 25.3215 111.916 25.7077 112.004C26.0595 112.088 26.4157 112.13 26.7763 112.129C27.2283 112.165 27.6829 112.11 28.1136 111.969C28.5442 111.827 28.9422 111.6 29.2841 111.303C29.5602 111.002 29.7735 110.649 29.9117 110.265C30.0499 109.881 30.1101 109.474 30.0889 109.066V108.852H48.7221C49.243 108.861 49.7578 108.739 50.2201 108.499C50.6824 108.259 51.0776 107.908 51.3702 107.477C51.6557 107.946 52.0631 108.332 52.5506 108.589C53.1049 108.872 53.7227 109.009 54.3455 108.989C54.9749 109.011 55.6027 108.887 56.1771 108.627C56.678 108.377 57.087 107.973 57.3441 107.475C57.4499 107.654 57.5712 107.821 57.7081 107.976C57.8684 108.159 58.0565 108.305 58.2725 108.415C58.534 108.557 58.8101 108.661 59.1006 108.727C59.3867 108.789 59.6755 108.823 59.9671 108.827H63.4317V98.1599H62.1761L62.1644 107.627ZM28.8183 107.627H27.5644C27.1387 107.629 26.7153 107.565 26.3088 107.439C25.9294 107.324 25.5757 107.137 25.267 106.888C24.9739 106.649 24.7349 106.351 24.5657 106.013C24.3876 105.62 24.3014 105.192 24.3136 104.761C24.3082 104.353 24.4028 103.95 24.5891 103.586C24.7723 103.232 25.0243 102.917 25.3304 102.662C25.6426 102.411 25.9949 102.211 26.3723 102.074C26.7746 101.932 27.2004 101.865 27.6262 101.874H28.8817L28.8183 107.627ZM35.4334 107.627L33.5634 103.037C33.9808 102.67 34.46 102.381 34.9826 102.186C35.9946 101.821 37.1051 101.839 38.1048 102.236C38.594 102.428 39.0482 102.698 39.4489 103.037L37.5789 107.627H35.4334ZM66.8093 108.877H68.0632V98.1599H66.8093V108.877ZM160.121 37.5188C145.411 37.5188 134.73 48.5734 134.73 62.0683V62.2052C134.73 75.7001 145.286 86.6179 159.982 86.6179C174.678 86.6179 185.359 75.5632 185.359 62.0683V61.9314C185.359 48.4365 174.819 37.5188 160.121 37.5188ZM174.399 62.2052C174.399 70.3338 168.552 76.9886 160.117 76.9886C151.686 76.9886 145.685 70.2103 145.685 62.0666V61.9314C145.685 53.7894 151.545 47.148 159.98 47.148C168.415 47.148 174.399 53.9263 174.399 62.0683V62.2052ZM17.0824 76.7884H35.2414V85.805H-0.00976562V77.5378L15.8535 64.582C21.764 59.6915 24.0865 57.0776 24.0865 53.1885C24.0865 49.2995 21.4251 47.0111 17.6851 47.0111C13.9451 47.0111 11.4857 49.0491 7.95944 53.3888L0.602993 47.5235C5.29636 41.1458 9.85281 37.6924 18.3613 37.6924C28.2272 37.6924 34.7656 43.4592 34.7656 52.339V52.4758C34.7656 60.4042 30.6866 64.3433 22.2149 70.8479L11.8364 78.7896L9.81608 80.3403L17.0824 76.7884ZM132.031 70.9464V71.0849C132.031 80.0398 125.492 86.6179 114.873 86.6179C106.301 86.6179 100.379 83.2295 96.3003 78.4141L103.516 71.5606C106.779 75.2244 110.18 77.2641 115.012 77.2641C118.966 77.2641 121.752 75.0241 121.752 71.4972V71.3604C121.752 67.4963 118.274 65.3198 112.427 65.3198H108.071L106.44 58.6783L121.727 43.359L115.601 47.2865H99.0852V38.3316H131.276V46.1982L119.229 57.6535C125.754 58.7785 132.031 62.1284 132.031 70.9464ZM80.9646 64.2816C80.4454 63.982 79.8936 63.7429 79.32 63.5689C77.8533 63.1034 76.2979 62.9879 74.7786 63.2317C74.1068 63.3384 73.447 63.51 72.8084 63.7441H72.6063C72.2557 63.881 71.9151 64.0312 71.5645 64.2065C71.2139 64.3817 70.9751 64.5203 70.6729 64.7072C70.0084 65.1078 69.3422 65.5701 68.691 66.0592C68.1827 62.5624 68.1154 59.0156 68.4907 55.502C70.0585 56.4901 69.6194 59.2542 69.2921 60.042C69.9391 59.2941 70.3433 58.3672 70.4509 57.3843C70.5586 56.4014 70.3646 55.409 69.8948 54.5389C70.1564 54.757 70.3907 54.999 70.5978 55.2649C71.1187 55.9409 71.4293 56.7538 71.4894 57.6034C71.5216 57.9584 71.5216 58.3128 71.4894 58.6666C71.495 58.7455 71.495 58.8247 71.4894 58.9036C71.816 58.2671 71.9864 57.5619 71.9864 56.8464C71.9864 56.131 71.816 55.4258 71.4894 54.7892C71.2606 54.3277 70.9596 53.9057 70.5978 53.5391L70.2471 53.2019L70.5861 53.302C70.9055 53.4111 71.2022 53.5652 71.476 53.7644C72.0437 54.19 72.4778 54.7659 72.7316 55.4268C72.9353 55.9276 73.0421 56.4617 73.0455 57.0025C73.2168 56.491 73.2774 55.949 73.2233 55.4123C73.1692 54.8756 73.0016 54.3566 72.7316 53.8896C72.419 53.3781 71.9885 52.9489 71.476 52.6377C71.0733 52.3874 70.626 52.2173 70.1587 52.137H70.5727C70.8733 52.1348 71.1705 52.1604 71.4643 52.2138C71.9118 52.2872 72.3392 52.4525 72.7182 52.7012C73.0588 52.9298 73.3427 53.2353 73.548 53.5891C73.4889 52.9449 73.1825 52.3485 72.6932 51.925C72.3295 51.6166 71.9009 51.3941 71.4393 51.2741C71.1492 51.1902 70.8495 51.1442 70.5477 51.1372C70.1701 51.1299 69.7949 51.198 69.444 51.3375C69.7194 50.9539 70.1176 50.6759 70.5727 50.5497C70.8607 50.4589 71.1628 50.4211 71.4643 50.4378C71.717 50.4523 71.9596 50.5107 72.1923 50.6131C71.9809 50.3724 71.7302 50.1692 71.451 50.0122C70.9468 49.721 70.3489 49.6377 69.7842 49.7802C69.2196 49.9226 68.7328 50.2795 68.4272 50.775C68.0395 50.0888 67.7761 49.3395 67.6492 48.5617C67.5573 49.1227 67.3922 49.6693 67.1583 50.1875C67.0748 50.3877 66.9791 50.5836 66.8711 50.775C66.5718 50.3035 66.1107 49.9574 65.5743 49.8016C65.0379 49.6458 64.463 49.691 63.9576 49.9287C63.6237 50.0856 63.3298 50.3193 63.1061 50.6131C63.5783 50.417 64.1019 50.3817 64.5962 50.5126C65.0904 50.6435 65.5278 50.9334 65.841 51.3375C65.2321 51.1211 64.5729 51.0888 63.9458 51.2447C63.3187 51.4005 62.7513 51.7376 62.3147 52.2138C61.9916 52.6045 61.7948 53.0841 61.7503 53.5891C61.8889 53.3388 62.0709 53.1134 62.2896 52.9265C62.6819 52.6066 63.1375 52.3732 63.6264 52.2417C64.1153 52.1103 64.6264 52.0837 65.1263 52.1637C64.4999 52.2735 63.9114 52.5397 63.4154 52.9377C62.9195 53.3358 62.5322 53.8527 62.2896 54.4404C62.0274 55.2532 62.0274 56.1279 62.2896 56.9407V56.8656C62.2744 56.0328 62.5378 55.2187 63.0381 54.5525C63.5384 53.8864 64.2469 53.4063 65.0512 53.1885C64.2188 53.8419 63.6386 54.7635 63.4097 55.7965C63.1807 56.8295 63.3171 57.9099 63.7956 58.8536C63.6898 58.0531 63.7926 57.2388 64.0938 56.4897C64.3951 55.7405 64.8848 55.0818 65.5154 54.5773C65.043 55.4466 64.8475 56.4394 64.9549 57.4228C65.0623 58.4062 65.4676 59.3334 66.1164 60.0804C65.7909 59.2925 65.3517 56.5285 66.9212 55.5403C67.3081 59.0599 67.2576 62.6138 66.7709 66.121C65.5738 65.16 64.2474 64.3722 62.8306 63.7808L62.3397 63.6189C61.1526 63.2183 59.9017 63.04 58.6498 63.0932C57.3426 63.1565 56.0618 63.4842 54.8848 64.0562L54.5091 64.2565L54.848 64.1564C56.0708 63.8089 57.3458 63.6823 58.6131 63.7825C59.892 63.8993 61.1409 64.2365 62.303 64.7823C63.9225 65.5501 65.4252 66.5382 66.7693 67.72C65.3801 69.061 63.9091 70.3147 62.3648 71.4739C62.3236 71.5102 62.2768 71.5395 62.2262 71.5606C62.0873 71.3697 61.8869 71.2323 61.6587 71.1716C61.4305 71.1109 61.1883 71.1305 60.9729 71.2273C60.7575 71.324 60.5819 71.4919 60.4757 71.7027C60.3694 71.9136 60.339 72.1546 60.3896 72.3852C60.4252 72.5388 60.4936 72.6767 60.5949 72.7991C60.8184 73.034 61.114 73.1874 61.4347 73.2349C61.7554 73.2824 62.0828 73.2212 62.3648 73.0612C63.6203 72.5237 65.2633 70.8095 67.2351 69.0085L67.736 68.5579L68.2386 69.0085C69.1301 69.8214 69.9583 70.6226 70.748 71.2986C71.0619 71.5857 71.3508 71.8361 71.6396 72.0731C72.0281 72.4013 72.4466 72.6851 72.8952 72.9243C73.1772 73.1425 73.5237 73.2609 73.8803 73.2609C74.2369 73.2609 74.5834 73.1425 74.8654 72.9243L74.9522 72.8359C75.0424 72.7109 75.1067 72.5691 75.1411 72.4189C75.1755 72.2686 75.1794 72.113 75.1525 71.9612C75.105 71.7676 75.0057 71.5905 74.8654 71.4488C74.7576 71.3498 74.6301 71.2746 74.4912 71.2281C74.3524 71.1817 74.2053 71.165 74.0596 71.1792C73.9139 71.1933 73.7728 71.238 73.6455 71.3104C73.5182 71.3827 73.4077 71.4811 73.321 71.599L72.8067 71.2852C72.3685 70.9769 71.9492 70.6425 71.5511 70.2838L70.6612 69.4976L68.6777 67.7083C69.3055 67.1842 69.9332 66.6834 70.6612 66.2077L71.5511 65.6453C71.9507 65.406 72.3693 65.1851 72.8067 64.9826C73.4423 64.6777 74.099 64.4273 74.7769 64.2315C76.2531 63.8084 77.8049 63.7188 79.32 63.9694C79.871 64.0496 80.4108 64.1748 80.9395 64.345M67.7093 88.1802L64.7273 91.1512L67.7093 94.1223L70.6913 91.1512L67.7093 88.1802ZM43.7182 71.1517L42.6363 74.4699L45.9655 75.5499L47.0491 72.2316L43.7182 71.1517ZM53.3871 42.0688L52.9346 44.923L55.7981 45.3737L56.2505 42.5195L53.3871 42.0688ZM90.0391 59.6781L87.9888 61.7211L90.0391 63.7641L92.0894 61.7211L90.0391 59.6781ZM88.326 52.9215L87.0087 55.4953L89.5933 56.8072L90.909 54.2334L88.326 52.9215ZM55.7947 78.0853L52.9313 78.5359L53.3854 81.3901L56.2489 80.9395L55.7947 78.0853ZM82.0482 42.0705L79.1864 42.5211L79.6389 45.3754L82.504 44.9247L82.0482 42.0705ZM61.4531 80.9478L58.8685 82.2581L60.1842 84.8336L62.7688 83.5216L61.4531 80.9478ZM67.7126 37.4303L65.6623 39.4733L67.7126 41.5147L69.7629 39.4733L67.7126 37.4303ZM64.4167 40.9438L63.0076 42.8767L64.946 44.2804L66.3552 42.3476L64.4167 40.9438ZM70.4976 79.1735L69.0884 81.1064L71.0269 82.5101L72.436 80.5789L70.4976 79.1735ZM51.1832 51.4426L48.9041 52.1804L49.6437 54.4521L51.9245 53.7143L51.1832 51.4426ZM85.7999 69.0085L83.5208 69.7446L84.2605 72.018L86.5412 71.2802L85.7999 69.0085ZM48.2746 63.0798L46.8655 65.011L48.8039 66.4164L50.2131 64.4835L48.2746 63.0798Z" fill="white"/>
</svg>
