<svg width="231" height="153" viewBox="0 0 231 153" fill="none" xmlns="http://www.w3.org/2000/svg">
<path d="M88.5802 1.23465C86.4014 2.56614 75.3622 8.71519 75.1927 8.71519C75.1443 8.71519 74.6843 8.01313 74.176 7.16582C73.6918 6.31851 72.796 5.05965 72.1908 4.38181C71.1014 3.14715 68.5353 1.21044 67.9785 1.21044C67.809 1.21044 59.1665 5.64067 48.7809 11.0635C26.9203 22.4416 26.0487 22.9016 11.1845 30.6242C5.01123 33.8198 0 36.5312 0 36.6764C0 36.7975 0.944146 37.7416 2.08196 38.7342C12.056 47.4252 31.06 75.1685 65.8965 131.817C78.001 151.499 78.9451 153 79.1388 153C79.2356 153 79.0177 152.201 78.6546 151.233C65.6544 117.582 61.66 106.495 57.956 93.9304C54.3247 81.5597 52.7995 73.0381 53.0658 66.5017C53.2111 62.8946 53.5742 61.3937 54.7604 59.6506C55.7046 58.2465 56.9635 57.5445 58.8275 57.4234C61.8536 57.2055 64.2503 58.6097 65.4608 61.2968C66.1144 62.6767 66.1628 63.1125 66.2597 66.1386C66.3081 67.9785 66.4049 69.4794 66.4775 69.4794C66.5744 69.4794 75.7737 60.7158 85.2152 51.6375L86.5709 50.3302L86.5467 57.7866C86.5225 64.3229 86.5709 65.4608 86.9824 66.9375C87.5877 69.31 88.8223 71.8035 90.1538 73.3286C91.2674 74.6359 92.4052 75.6769 92.5505 75.5074C92.5989 75.459 92.4779 74.0549 92.3084 72.4087C91.5821 65.4608 91.3642 58.9244 91.4611 48.5146L91.4853 45.5853L102.113 35.3934C112.426 25.5161 112.789 25.1046 113.685 23.3131C114.556 21.5701 114.605 21.3038 114.605 19.2703C114.605 17.3093 114.532 16.8978 113.854 15.4937C112.91 13.4843 111.409 11.9834 109.4 11.0392C107.972 10.3614 107.608 10.2888 105.526 10.2888C103.638 10.2888 103.081 10.3856 102.5 10.7487C101.871 11.1603 93.6157 17.1883 88.2413 21.1828L86.3288 22.5869L86.4741 19.706C86.7404 14.9853 87.9508 9.44146 90.1538 2.92927C91.0495 0.24209 91.0979 1.81794e-06 90.8317 1.81794e-06C90.7106 1.81794e-06 89.718 0.556806 88.5802 1.23465ZM68.7532 7.55317C69.8668 8.78782 71.0288 10.8698 70.7625 11.1361C70.6415 11.2571 67.4943 13.0244 63.7661 15.0821C60.038 17.1399 51.7101 21.7396 45.2464 25.2983C38.7826 28.8812 32.7788 32.1736 31.8831 32.6578C30.3095 33.5051 30.2127 33.6019 29.438 35.3449C25.5161 43.9391 27.9854 57.254 36.9911 76.1369C37.9353 78.122 38.6616 79.6956 38.6131 79.6229C38.5647 79.5745 36.2891 76.1853 33.5535 72.094C27.1623 62.5557 23.7973 57.7623 19.0282 51.347C15.2516 46.2873 9.97405 39.7994 8.49731 38.3953L7.74684 37.7174L9.24779 36.9185C10.0709 36.4828 15.9778 33.4082 22.369 30.0916C51.5165 14.9127 59.457 10.7729 63.282 8.7394C65.5576 7.55317 67.4943 6.5606 67.6154 6.5606C67.7122 6.53639 68.2448 6.99636 68.7532 7.55317ZM82.5764 12.7581C82.0923 15.1547 81.9712 16.4378 81.9228 20.6986L81.8502 25.7824L64.5892 37.8869C45.4885 51.2986 46.2873 50.6207 44.7864 54.4699C43.6002 57.5203 43.237 59.7233 43.237 63.9114C43.237 69.8184 44.0117 73.6191 47.1589 83.1574C48.2241 86.353 49.0472 88.9918 49.0229 89.0402C48.8777 89.1612 42.3413 76.5242 40.5498 72.6508C36.9185 64.904 34.3282 57.6655 33.1177 51.928C32.6335 49.7008 32.5367 48.563 32.5367 44.9074C32.5367 41.0582 32.6093 40.3562 33.0935 38.8068L33.6261 37.0638L41.9297 32.4883C61.5389 21.6185 69.5279 17.2367 72.4813 15.7116C74.2244 14.8158 77.2747 13.1696 79.2598 12.0318C81.2692 10.894 82.9638 9.94984 83.0364 9.94984C83.109 9.92563 82.9154 11.2087 82.5764 12.7581ZM107.729 15.3968C109.86 16.462 110.586 19.0766 109.448 21.4733C109.158 22.0785 94.5356 36.3859 88.7497 41.7361C87.4182 42.9707 78.0252 51.9764 73.6434 56.213C71.7551 58.0528 70.1573 59.5538 70.1089 59.5538C70.0362 59.5538 69.6489 58.9486 69.2131 58.1981C67.5185 55.172 64.5166 53.2353 60.8369 52.7995C59.7475 52.6543 58.6097 52.5816 58.2949 52.6301C57.9802 52.6785 57.2298 52.7995 56.6487 52.8722C54.2036 53.2353 51.347 55.3899 50.1123 57.8108C49.3377 59.3117 48.6598 62.0957 48.3935 64.7829C48.2725 66.0902 48.1514 67.3975 48.1272 67.6638C48.0062 68.9226 47.7641 64.9524 47.8125 62.701C47.9335 58.6339 49.0956 55.0025 50.7902 53.429C51.347 52.8964 62.2168 45.2222 79.9861 32.8514C83.0606 30.721 89.6938 25.9035 94.7535 22.1753C99.8131 18.4472 104.219 15.2516 104.558 15.0821C105.236 14.719 106.688 14.8642 107.729 15.3968Z" fill="#15406B"/>
<path d="M153.121 69.9878C151.572 71.3435 151.765 73.4981 153.508 74.5633C154.453 75.1443 155.179 75.1685 156.22 74.6844C157.721 73.9581 158.278 71.9972 157.358 70.5931C156.317 69.0437 154.477 68.7774 153.121 69.9878Z" fill="#15406B"/>
<path d="M101.217 76.2578C100.128 76.9357 99.571 78.2429 99.9342 79.405C100.273 80.5912 101.169 81.3659 102.307 81.5111C104.074 81.7532 105.526 80.5428 105.526 78.8482C105.526 76.3789 103.251 75.0232 101.217 76.2578Z" fill="#15406B"/>
<path d="M109.279 75.9917C108.189 76.4759 107.584 77.4443 107.584 78.7273C107.584 79.7925 107.681 80.0104 108.48 80.7609C109.158 81.3903 109.618 81.584 110.271 81.584C112.862 81.584 114.217 78.7273 112.474 76.839C111.651 75.9433 110.247 75.556 109.279 75.9917Z" fill="#15406B"/>
<path d="M149.635 76.2579C148.546 76.9358 147.989 78.243 148.352 79.4051C149.32 82.6248 153.944 82.0196 153.944 78.6788C153.944 77.5894 153.363 76.621 152.395 76.1611C151.305 75.6527 150.603 75.6769 149.635 76.2579Z" fill="#15406B"/>
<path d="M157.697 76.0159C155.59 76.8632 155.372 80.0103 157.309 81.1723C159.73 82.6007 162.635 79.9619 161.376 77.4684C160.723 76.1853 158.955 75.4833 157.697 76.0159Z" fill="#15406B"/>
<path d="M210.399 76.2579C208.656 77.3231 208.463 79.4777 210.012 80.8334C211.876 82.5038 214.709 81.1965 214.709 78.6788C214.709 77.6378 214.055 76.5726 213.111 76.1369C212.07 75.6527 211.343 75.6769 210.399 76.2579Z" fill="#15406B"/>
<path d="M218.195 76.1611C216.234 77.1295 216.113 79.8651 218.001 81.124C219.72 82.2376 222.116 81.0998 222.358 79.042C222.504 77.8558 222.116 77.0569 221.027 76.3306C220.083 75.677 219.26 75.6285 218.195 76.1611Z" fill="#15406B"/>
<path d="M99.3533 84.7552C97.0776 85.0942 95.383 86.0625 94.4631 87.5877C93.5189 89.2097 93.0347 92.1147 93.2768 95.044C93.6884 100.079 95.6735 103.372 99.3533 105.091C101.968 106.325 103.348 106.567 108.383 106.688L113.031 106.81V108.577C113.031 109.811 112.934 110.417 112.692 110.635C112.426 110.852 110.199 110.901 103.783 110.828C95.6977 110.731 95.1409 110.707 93.5915 110.175C91.437 109.472 90.2265 108.286 89.6213 106.35C89.2824 105.188 89.2097 103.953 89.1855 99.2079C89.1855 96.0366 89.1371 93.4462 89.0645 93.4462C88.9919 93.4462 87.4183 94.9714 85.5784 96.8113L82.2134 100.176L82.3586 104.268C82.6007 111.651 84.0533 114.847 87.9993 116.59C90.4686 117.679 91.8243 117.776 103.977 117.776H115.355L116.784 117.05C117.946 116.445 118.309 116.082 118.938 114.992C119.664 113.709 119.689 113.54 119.786 110.199L119.858 106.761H129.227C139.007 106.761 140.46 106.64 141.961 105.647C142.566 105.26 142.566 105.26 142.566 106.011V106.785L153.775 106.713L164.959 106.64L166.242 106.059C167.816 105.357 169.075 103.929 169.607 102.282C170.164 100.539 170.406 84.6342 169.874 84.7794C169.68 84.8037 168.082 85.772 166.339 86.9098L163.168 88.9676V94.3177C163.144 98.99 163.095 99.7163 162.756 99.8374C162.538 99.91 158.471 99.9826 153.678 99.9826H144.987L144.939 92.2358L144.866 84.4889L141.428 86.7888L137.966 89.1128V94.3904C137.966 98.99 137.918 99.7163 137.579 99.8374C137.361 99.91 133.294 99.9826 128.501 99.9826H119.81V95.504C119.81 89.6212 119.398 87.7329 117.704 86.1351C116.178 84.6826 115.767 84.61 107.947 84.5616C104.026 84.5616 100.152 84.6342 99.3533 84.7552ZM112.063 91.7516C112.789 92.1389 113.031 93.3736 113.031 96.787V100.055L109.23 99.91C104.558 99.7647 103.178 99.4016 101.75 97.9491C100.636 96.8597 100.201 95.6976 100.201 93.8578C100.201 92.9378 100.322 92.5747 100.806 92.1147C101.387 91.5095 101.387 91.5095 106.495 91.5095C109.376 91.5095 111.797 91.6063 112.063 91.7516Z" fill="#15406B"/>
<path d="M184.714 84.7309C181.591 85.2151 179.775 86.6676 179.024 89.2822C178.516 91.1463 178.492 95.9396 179 97.9247C179.823 101.096 181.591 103.493 184.133 104.873C186.529 106.18 188.514 106.567 193.598 106.688L198.271 106.809L198.198 108.795L198.125 110.755L192.799 110.828L187.473 110.876L184.157 114.217C182.317 116.033 180.816 117.607 180.816 117.728C180.816 117.849 185.246 117.897 190.693 117.849C198.174 117.776 200.74 117.679 201.393 117.437C202.701 116.929 203.766 116.033 204.323 114.968C204.88 113.83 205.364 110.247 205.218 108.141L205.122 106.761H214.49C220.349 106.761 224.343 106.664 225.118 106.495C227.006 106.083 228.483 104.97 229.355 103.275L230.081 101.822L230.154 93.2766C230.202 88.5801 230.154 84.7309 230.033 84.7309C229.936 84.7309 228.411 85.6751 226.643 86.8371L223.424 88.9675V94.1966C223.424 97.9247 223.351 99.4741 223.133 99.692C222.915 99.9099 220.567 99.9825 213.982 99.9825H205.146L205.122 95.3102C205.097 89.5485 204.831 88.338 203.136 86.6434C201.297 84.8277 200.546 84.6825 192.678 84.5857C189.023 84.5615 185.44 84.6099 184.714 84.7309ZM197.641 92.1146C198.222 92.6714 198.246 92.7925 198.246 96.3754V100.055L194.567 99.9099C189.216 99.7404 187.255 99.0141 186.093 96.7627C185.706 96.0122 185.561 95.3102 185.537 94.0997C185.537 91.5094 185.512 91.5094 191.879 91.5094C197.06 91.5094 197.06 91.5094 197.641 92.1146Z" fill="#15406B"/>
<path d="M124.724 111.24C123.804 111.627 123.199 112.692 123.199 113.951C123.199 117.123 127.774 117.655 128.767 114.629C129.13 113.515 128.622 112.136 127.581 111.433C126.637 110.804 125.838 110.756 124.724 111.24Z" fill="#15406B"/>
<path d="M132.132 111.433C131.212 112.063 130.583 113.467 130.801 114.387C131.261 116.178 133.415 117.171 135.013 116.348C137.022 115.307 136.998 112.232 134.965 111.264C133.851 110.731 133.1 110.78 132.132 111.433Z" fill="#15406B"/>
<path d="M136.756 129.396V138.257L138.281 138.184L139.782 138.112L139.903 133.875C139.976 131.551 140.121 129.445 140.242 129.203C140.702 128.259 142.372 127.823 143.655 128.307C144.745 128.719 144.987 129.784 144.987 134.238V138.257L146.512 138.184L148.013 138.112L148.086 133.681C148.11 131.115 148.037 128.84 147.892 128.307C147.359 126.37 145.762 125.16 143.68 125.16C142.324 125.16 141.428 125.499 140.581 126.322L139.903 126.951V123.756V120.56H138.329H136.756V129.396Z" fill="#15406B"/>
<path d="M82.2859 122.86V124.434H84.9004H87.4908L87.4182 130.776C87.394 134.287 87.4182 137.385 87.4908 137.7C87.6118 138.184 87.7571 138.233 89.1854 138.233H90.759V131.333V124.434H93.3009C96.1576 124.434 96.206 124.385 96.0365 122.352L95.9639 121.408L89.137 121.335L82.2859 121.286V122.86Z" fill="#15406B"/>
<path d="M128.283 123.683V125.378L127.508 125.45C126.733 125.523 126.709 125.547 126.637 126.782L126.564 128.065H127.411H128.283V131.817C128.283 136.102 128.501 136.974 129.784 137.748C130.679 138.305 132.786 138.402 134.069 137.966C134.795 137.724 134.819 137.651 134.819 136.368V135.037L134.045 135.231C131.672 135.787 131.43 135.4 131.43 131.285V128.065H133.125H134.819V126.733V125.402H133.125H131.43V123.707V122.013H129.856H128.283V123.683Z" fill="#15406B"/>
<path d="M96.884 125.644C95.262 126.177 95.1893 126.298 95.6251 127.605C96.0367 128.791 96.0851 128.815 97.4166 128.404C98.1428 128.186 99.1838 128.065 100.055 128.137C101.242 128.21 101.58 128.331 102.065 128.888C102.355 129.251 102.621 129.759 102.621 130.026C102.621 130.461 102.525 130.486 101.726 130.316C100.08 130.002 97.7071 130.147 96.545 130.655C92.8895 132.277 93.5674 137.361 97.5618 138.208C99.087 138.547 100.225 138.378 101.605 137.579L102.621 136.998V137.627C102.621 138.208 102.67 138.233 104.219 138.233H105.817L105.72 133.439C105.648 128.718 105.648 128.67 104.97 127.508C104.05 125.934 102.839 125.353 100.322 125.232C98.8691 125.184 98.0218 125.281 96.884 125.644ZM101.895 132.64C103.009 132.955 102.815 134.577 101.58 135.327C100.515 136.005 98.5302 135.981 97.8281 135.327C96.9566 134.504 97.1987 133.342 98.3849 132.713C98.9175 132.422 100.951 132.374 101.895 132.64Z" fill="#15406B"/>
<path d="M153.944 125.474C153.484 125.62 152.54 126.298 151.838 127C150.337 128.501 149.683 130.268 149.901 132.326C150.289 136.005 152.831 138.329 156.486 138.329C158.35 138.329 160.069 137.627 161.183 136.441C161.764 135.812 161.764 135.812 161.304 135.448C159.827 134.262 159.875 134.286 158.786 134.989C157.987 135.521 157.479 135.666 156.462 135.666C154.961 135.666 154.065 135.134 153.412 133.851L152.976 133.028L157.575 132.955L162.175 132.907V131.72C162.175 128.936 160.311 126.031 158.156 125.426C156.994 125.111 155.058 125.111 153.944 125.474ZM157.6 128.234C158.253 128.622 159.028 129.832 159.028 130.461C159.028 130.631 158.035 130.728 156.002 130.728C154.331 130.728 152.976 130.679 152.976 130.607C152.976 130.195 154.017 128.525 154.477 128.21C155.203 127.702 156.728 127.726 157.6 128.234Z" fill="#15406B"/>
<path d="M167.259 125.547C166.17 126.031 164.693 127.435 164.039 128.67C163.628 129.42 163.531 130.074 163.507 131.696C163.507 133.536 163.579 133.899 164.209 135.037C166.218 138.668 170.721 139.467 174.231 136.853C175.224 136.102 175.199 135.739 174.183 134.964L173.335 134.335L172.343 134.989C171.568 135.521 171.036 135.666 170.043 135.666C168.542 135.691 167.622 135.158 166.968 133.851L166.533 133.028L171.157 132.955L175.805 132.907L175.684 131.381C175.538 129.735 174.812 127.798 173.965 126.879C172.561 125.353 169.244 124.7 167.259 125.547ZM171.253 128.355C171.81 128.791 172.585 130.098 172.585 130.607C172.585 130.679 171.229 130.728 169.559 130.728C167.888 130.728 166.533 130.679 166.533 130.607C166.533 130.534 166.678 130.123 166.872 129.663C167.356 128.501 168.348 127.823 169.559 127.823C170.237 127.823 170.793 127.992 171.253 128.355Z" fill="#15406B"/>
<path d="M180.84 125.426C178.807 126.031 176.943 129.009 176.943 131.672C176.943 136.974 182.196 140.218 185.973 137.24L186.868 136.514V139.201V141.864H188.442H190.015V133.633V125.402H188.442H186.868V126.177V126.927L186.336 126.443C184.98 125.208 182.922 124.845 180.84 125.426ZM185.367 128.452C186.311 129.058 186.868 130.244 186.868 131.648C186.868 133.875 185.706 135.328 183.794 135.497C180.889 135.739 179.194 132.423 180.695 129.493C181.47 128.017 183.866 127.484 185.367 128.452Z" fill="#15406B"/>
<path d="M107.221 125.692C107.221 125.838 108.117 128.719 109.206 132.108L111.191 138.233H112.547H113.903L115.234 134.166L116.566 130.123L117.921 134.117L119.253 138.112H120.657H122.085L124.095 131.938C125.184 128.549 126.104 125.692 126.104 125.571C126.104 125.475 125.402 125.402 124.53 125.402C123.659 125.402 122.957 125.475 122.957 125.571C122.932 125.692 122.4 127.508 121.77 129.639L120.584 133.512L119.301 129.445L117.994 125.402H116.638H115.282L113.975 129.445L112.644 133.512L111.869 130.728C111.409 129.203 110.901 127.363 110.707 126.661L110.344 125.402H108.77C107.754 125.402 107.221 125.499 107.221 125.692Z" fill="#15406B"/>
</svg>
