<svg width="119" height="80" viewBox="0 0 119 80" fill="none" xmlns="http://www.w3.org/2000/svg">
<mask id="mask0_1921_51" style="mask-type:luminance" maskUnits="userSpaceOnUse" x="0" y="0" width="119" height="80">
<path d="M0 0H118.436V80H0V0Z" fill="white"/>
</mask>
<g mask="url(#mask0_1921_51)">
<path d="M15.9854 17.078H14.579V4.65766H15.9854V17.078ZM27.4874 13.711C27.4874 15.8422 25.7067 17.2281 23.2354 17.2281C21.3436 17.251 19.5168 16.5384 18.1405 15.2407L19.014 14.21C19.57 14.7802 20.2352 15.2326 20.9699 15.5403C21.7046 15.848 22.4938 16.0046 23.2904 16.0008C24.9601 16.0008 26.0651 15.1128 26.0651 13.8865C26.0651 12.7289 25.4444 12.0714 22.8219 11.509C19.9604 10.8831 18.6407 9.92538 18.6407 7.92105C18.6407 5.96534 20.3654 4.5308 22.7341 4.5308C24.3325 4.48472 25.8918 5.02892 27.1141 6.05943L26.3189 7.13771C25.3221 6.27221 24.047 5.79416 22.7267 5.79091C21.1363 5.79091 20.0714 6.67785 20.0714 7.79419C20.0714 8.95916 20.7154 9.6167 23.4574 10.1706C26.1994 10.7246 27.5118 11.7553 27.5118 13.6877L27.4874 13.711ZM40.0163 4.45152C39.1732 4.4455 38.3373 4.60781 37.5578 4.92894C36.7782 5.25006 36.0707 5.72353 35.4766 6.3216C34.8848 6.91927 34.419 7.6295 34.1066 8.41028C33.7942 9.19105 33.6416 10.0265 33.6577 10.8673V10.9075C33.6602 11.7401 33.8272 12.564 34.1492 13.332C34.4711 14.0999 34.9416 14.7967 35.5337 15.3823C36.7306 16.5686 38.3499 17.231 40.0353 17.2239C41.7207 17.2184 43.3354 16.546 44.5263 15.3538C45.7129 14.1623 46.3778 12.5486 46.3748 10.8673C46.3955 10.0269 46.2454 9.191 45.9337 8.41022C45.622 7.62944 45.1551 6.91999 44.5612 6.32477C43.9667 5.72781 43.2576 5.257 42.4766 4.94057C41.6957 4.62413 40.8588 4.46858 40.0163 4.48323V4.45152ZM44.8965 10.9392C44.9249 11.5965 44.8196 12.2527 44.5869 12.8682C44.3542 13.4836 43.9991 14.0455 43.5429 14.5197C43.0868 14.9956 42.5395 15.3748 41.9335 15.6345C41.3276 15.8942 40.6755 16.0292 40.0163 16.0314C39.353 16.0257 38.6976 15.8873 38.0886 15.6244C37.4797 15.3615 36.9295 14.9794 36.4706 14.5007C36.0128 14.0226 35.6559 13.4574 35.421 12.8387C35.1861 12.2199 35.0781 11.5603 35.1033 10.899C35.074 10.2414 35.1786 9.58468 35.4107 8.96867C35.6429 8.35267 35.9977 7.79018 36.4537 7.31531C36.9102 6.83898 37.4582 6.4598 38.065 6.20057C38.6718 5.94133 39.3247 5.80738 39.9845 5.80677C40.6473 5.81194 41.3023 5.94955 41.911 6.21153C42.5197 6.4735 43.0699 6.85454 43.5292 7.33222C43.9865 7.80992 44.3432 8.37461 44.5781 8.99276C44.813 9.61091 44.9212 10.2699 44.8965 10.9307V10.9392ZM29.7927 4.68938H31.1991V17.078H29.8086L29.7927 4.68938ZM6.05793 17.1657L0.700814 4.65872H2.29018L3.08539 6.51083L6.74951 15.3591L7.09847 16.2058L6.96417 14.8442L11.1295 4.65766H12.6396L7.30573 17.1657H6.05793ZM57.8208 4.65978H59.1955V17.079H58.0746L49.2828 5.90931L50.078 7.72336V17.078H48.6547V4.65766H49.9744L58.4003 15.3432L57.8197 13.822L57.8208 4.65978ZM97.2303 18.392H98.5659V19.706H97.2462L97.2303 18.392ZM99.8698 18.392H101.189V19.706H99.8687L99.8698 18.392ZM72.6919 3.34047H71.3722V2.04336H72.6919V3.34047ZM104.964 12.5376C105.491 12.9051 106.081 13.1734 106.704 13.3294C107.388 13.5007 108.09 13.5859 108.795 13.5831H109.145L109.59 12.656V13.9552C109.618 14.2318 109.579 14.511 109.475 14.7689C109.371 15.0267 109.206 15.2554 108.994 15.4352C108.499 15.7585 107.914 15.9142 107.325 15.8792C106.959 15.8824 106.594 15.8452 106.236 15.7682C105.852 15.6666 105.477 15.5344 105.115 15.3728L104.71 16.6393C105.148 16.8056 105.596 16.943 106.053 17.0516C106.439 17.1467 106.831 17.1943 107.229 17.1943C107.734 17.2398 108.243 17.1825 108.725 17.0259C109.208 16.8693 109.653 16.6165 110.035 16.283C110.64 15.6117 110.954 14.729 110.91 13.8283V4.67246H108.795C108.039 4.66555 107.287 4.78342 106.569 5.02132C105.94 5.2249 105.356 5.54438 104.845 5.96323C104.368 6.3554 103.985 6.84908 103.724 7.40819C103.462 7.9673 103.329 8.57773 103.334 9.1949C103.317 9.88627 103.467 10.5702 103.772 11.1918C104.055 11.7331 104.463 12.1993 104.964 12.5534V12.5376ZM104.964 7.89568C105.156 7.50665 105.427 7.16202 105.759 6.88082C106.449 6.32055 107.309 6.01053 108.198 6.00128H110.329L109.582 6.37445V12.2839H108.247C107.773 12.2868 107.301 12.2173 106.848 12.0777C106.434 11.9457 106.046 11.7417 105.703 11.4751C105.367 11.2184 105.096 10.8877 104.909 10.5089C104.713 10.0984 104.615 9.64839 104.622 9.19384C104.617 8.74244 104.724 8.29633 104.932 7.89568H104.964ZM75.3007 3.35738H73.9809V2.04336H75.3007V3.35738ZM114.249 17.2112C113.885 17.2112 113.525 17.1604 113.176 17.0611L113.526 15.801C113.643 15.8362 113.762 15.8626 113.883 15.8802H114.202C114.413 15.8898 114.624 15.8549 114.821 15.7777C114.981 15.7058 115.112 15.5831 115.195 15.4288C115.301 15.2354 115.368 15.0229 115.393 14.803C115.439 14.4908 115.46 14.1768 115.457 13.8611V4.67246H116.769V13.877C116.773 14.3428 116.734 14.8044 116.65 15.2618C116.581 15.6378 116.438 15.9962 116.228 16.3158C116.03 16.607 115.755 16.8375 115.434 16.9818C115.057 17.1429 114.65 17.2211 114.241 17.2112H114.249ZM110.902 3.35738H108.009V2.28121C107.989 2.05491 108.014 1.8268 108.083 1.61047C108.153 1.39415 108.265 1.19407 108.414 1.02216C108.572 0.882318 108.755 0.775238 108.955 0.707174C109.154 0.63911 109.365 0.611426 109.575 0.625735H110.489V1.58456H109.583C109.438 1.56654 109.293 1.60645 109.178 1.69556C109.099 1.80886 109.062 1.94609 109.074 2.08353V2.37636H110.886L110.902 3.35738ZM71.7391 17.0294H74.4737V16.0462C74.4737 16.0948 74.5287 16.1414 74.5604 16.1815C74.7592 16.4722 75.0342 16.7016 75.3556 16.8475C75.7332 17.0135 76.1435 17.0917 76.5559 17.0769H101.197V4.67246H99.8772V15.7618H76.5876C76.3761 15.7703 76.1646 15.7354 75.9679 15.6582C75.8077 15.5845 75.6746 15.4625 75.5872 15.3094C75.4834 15.1155 75.4184 14.9033 75.3958 14.6846C75.3513 14.3723 75.33 14.0571 75.3324 13.7417V4.67246H71.7708C70.9582 4.66545 70.1523 4.82081 69.4005 5.12942C68.6487 5.43803 67.9662 5.89367 67.3929 6.4696C66.8215 7.04497 66.3713 7.72919 66.0692 8.48169C65.7672 9.2342 65.6193 10.0397 65.6344 10.8504C65.6147 11.6579 65.7588 12.461 66.0579 13.2114C66.3571 13.9617 66.8051 14.6438 67.375 15.2164C67.9454 15.7912 68.6258 16.2451 69.3756 16.5512C70.1255 16.8572 70.9293 17.0091 71.7391 16.9976V17.0294ZM67.0419 10.787C67.0138 10.154 67.1145 9.52194 67.3379 8.92903C67.5613 8.33612 67.9027 7.79469 68.3415 7.33751C68.7808 6.87903 69.3081 6.51395 69.892 6.26418C70.4758 6.0144 71.1041 5.88507 71.7391 5.88394H74.8227L74.0285 6.28883V13.7099C74.0272 14.1749 74.0697 14.6389 74.1554 15.0958C74.2005 15.3228 74.2696 15.542 74.3627 15.7534H71.7867C71.1451 15.7539 70.51 15.6253 69.9192 15.3752C69.3284 15.1251 68.794 14.7587 68.3478 14.2977C67.9035 13.8372 67.5567 13.2918 67.3282 12.6942C67.0996 12.0966 66.9939 11.4591 67.0175 10.8197L67.0419 10.787ZM5.58841 79.2694H4.61237L2.73537 76.7989L1.80481 77.7493V79.2694H0.995846V74.0102H1.80586V76.838L4.49288 74.0102H5.46257L3.28314 76.2598L5.58841 79.2694ZM7.48021 74.0102H6.66914V79.2694H7.48021V74.0102ZM13.6822 74.0102V79.2694H12.9907L9.88912 75.2851V79.2705H9.0939V74.0102H9.87326L12.886 77.8835V74.0102H13.6822ZM19.9371 76.3951V78.5569C19.3229 79.0729 18.5452 79.3539 17.7429 79.3498C17.3803 79.3675 17.018 79.3097 16.6789 79.1801C16.3397 79.0506 16.0312 78.852 15.7728 78.5971C15.5156 78.3424 15.3142 78.037 15.1813 77.7003C15.0484 77.3637 14.987 77.0031 15.0009 76.6414C14.9964 76.2826 15.0639 75.9265 15.1994 75.5943C15.3349 75.262 15.5356 74.9602 15.7898 74.7068C16.044 74.4531 16.3463 74.2525 16.6789 74.1168C17.0115 73.981 17.3678 73.9128 17.727 73.9161C18.4515 73.8779 19.163 74.1189 19.7151 74.5895L19.2054 75.191C18.7879 74.8269 18.2492 74.6319 17.6953 74.6445C17.1941 74.6762 16.7246 74.9045 16.3883 75.2777C16.0516 75.6499 15.8756 76.1401 15.8987 76.6414C15.8695 77.0335 15.9653 77.4247 16.1724 77.759C16.3795 78.0933 16.6872 78.3534 17.0513 78.5019C17.2935 78.6024 17.5536 78.65 17.8148 78.6447C18.3012 78.651 18.7782 78.5009 19.1736 78.2165V77.1002H17.7746V76.4183L19.9371 76.3951ZM23.3464 74.0112H21.3986V79.2705H23.3464C23.8938 79.3122 24.4406 79.1832 24.9116 78.9013C25.3826 78.6194 25.7546 78.1985 25.9763 77.6964C26.1963 77.1945 26.2541 76.6365 26.1417 76.1002C26.0293 75.564 25.7522 75.0761 25.3492 74.7047C25.0813 74.4572 24.7651 74.2679 24.4204 74.1485C24.0757 74.0292 23.71 73.9824 23.3464 74.0112ZM23.3464 78.5495H22.2096V74.7311H23.3464C23.854 74.7311 24.3415 74.932 24.7 75.2914C24.8775 75.4685 25.0184 75.6788 25.1145 75.9104C25.2106 76.1419 25.2601 76.3902 25.2601 76.6409C25.2601 76.8916 25.2106 77.1398 25.1145 77.3714C25.0184 77.6029 24.8775 77.8132 24.7 77.9903C24.3415 78.3487 23.854 78.5495 23.3464 78.5495ZM29.9672 73.915C29.6041 73.9045 29.2426 73.9675 28.9044 74.1001C28.5662 74.2327 28.2584 74.4322 27.9992 74.6867C27.7406 74.9412 27.5364 75.2456 27.3992 75.5815C27.2619 75.9173 27.1944 76.2776 27.2009 76.6403C27.1971 77.1872 27.3566 77.7227 27.6589 78.1784C27.9613 78.6341 28.3927 78.9893 28.8981 79.1986C29.4031 79.4098 29.9594 79.4666 30.4967 79.362C31.034 79.2574 31.5283 78.996 31.9171 78.6108C32.3067 78.2264 32.5728 77.7345 32.6814 77.1981C32.79 76.6618 32.7363 76.1052 32.527 75.5995C32.3177 75.0938 31.9624 74.662 31.5064 74.3591C31.0505 74.0563 30.5146 73.8961 29.9672 73.8992V73.915ZM31.8748 76.6403C31.892 77.0271 31.7901 77.4098 31.5828 77.7368C31.3756 78.0639 31.073 78.3195 30.7159 78.4692C30.4791 78.5696 30.2244 78.621 29.9672 78.6203C29.5792 78.6151 29.2017 78.4941 28.883 78.2728C28.5644 78.0514 28.3192 77.7399 28.179 77.3782C28.0862 77.1381 28.043 76.8817 28.0521 76.6245C28.0318 76.2369 28.1312 75.8524 28.3368 75.5232C28.5424 75.194 28.8443 74.9359 29.2016 74.784C29.4385 74.6815 29.6933 74.6286 29.9524 74.6286C30.3406 74.6343 30.7184 74.7553 31.0376 74.9764C31.3568 75.1974 31.6029 75.5083 31.7448 75.8697C31.8378 76.1107 31.8823 76.3665 31.8748 76.6245V76.6403ZM39.2443 74.0102V79.2694H38.4322V75.2301L36.6366 77.9078L34.8474 75.246V79.2694H34.0532V74.0102H34.9595L36.6514 76.6245L38.337 74.0102H39.2443ZM46.0163 73.915C45.6528 73.9047 45.2908 73.9677 44.9522 74.1003C44.6135 74.2329 44.3051 74.4323 44.0452 74.6867C43.7861 74.9411 43.5813 75.2454 43.4431 75.5812C43.305 75.917 43.2364 76.2773 43.2415 76.6403C43.2378 77.1867 43.3971 77.7219 43.699 78.1774C44.0009 78.6328 44.4318 78.988 44.9366 79.1976C45.4414 79.4091 45.9975 79.4665 46.5348 79.3624C47.0721 79.2584 47.5665 78.9976 47.9557 78.613C48.3436 78.2293 48.6087 77.7391 48.7175 77.2046C48.8263 76.6701 48.7739 76.1154 48.5669 75.6107C48.3576 75.1059 48.0037 74.6742 47.5497 74.3699C47.0957 74.0655 46.5619 73.9021 46.0153 73.9002L46.0163 73.915ZM47.9155 76.6403C47.9325 77.0258 47.8312 77.4073 47.6252 77.7336C47.4192 78.0599 47.1183 78.3155 46.7629 78.466C46.527 78.5673 46.273 78.6198 46.0163 78.6203C45.7583 78.6172 45.5036 78.5627 45.2668 78.4602C45.0301 78.3576 44.8161 78.209 44.6374 78.0231C44.4593 77.8374 44.3201 77.618 44.2279 77.3779C44.1356 77.1377 44.0922 76.8816 44.1002 76.6245C44.0799 76.2369 44.1792 75.8524 44.3848 75.5232C44.5905 75.194 44.8924 74.9359 45.2497 74.784C45.4865 74.6815 45.7424 74.6286 46.0005 74.6286C46.3884 74.6338 46.766 74.7549 47.0846 74.9762C47.4033 75.1975 47.6484 75.509 47.7886 75.8707C47.8817 76.1107 47.924 76.3676 47.9155 76.6245V76.6403ZM50.9124 74.7311V76.3465H53.647V77.0674H50.9124V79.2694H50.1013V74.0102H53.9959V74.7311H50.9124ZM61.7228 77.8042C61.7228 78.7388 60.9911 79.3889 59.8543 79.3889C59.0642 79.3928 58.2992 79.1112 57.7002 78.596L58.1771 78.0252C58.6424 78.4512 59.2484 78.6912 59.8797 78.6996C60.5067 78.6996 60.9117 78.4058 60.9117 77.9068C60.9117 77.4078 60.6178 77.2344 59.6322 77.0124C58.5039 76.7344 57.8832 76.4099 57.8832 75.4278C57.8985 75.0991 58.0161 74.7834 58.2195 74.5248C58.4229 74.2661 58.702 74.0773 59.0178 73.9848C59.2272 73.9235 59.4472 73.9045 59.6639 73.9319C60.3394 73.9162 60.9995 74.1343 61.5325 74.5493L61.1032 75.1582C60.6878 74.8296 60.1776 74.6435 59.6481 74.6275C59.0834 74.6275 58.6942 74.9214 58.6942 75.357C58.6942 75.7925 58.9798 76.023 60.0372 76.2756C61.2533 76.5684 61.7228 76.9966 61.7228 77.8042ZM65.554 73.9711H64.7599L62.4303 79.2694H63.2255L63.7817 77.9628H66.4444L66.9932 79.2694H67.8434L65.554 73.9711ZM64.1074 77.2662L65.149 74.8897L66.1906 77.2662H64.1074ZM73.1297 74.0102V77.005C73.1947 77.4747 73.0983 77.9525 72.8562 78.3602C72.6142 78.7679 72.2408 79.0814 71.7973 79.2493C71.5028 79.3613 71.187 79.4061 70.8731 79.3804C70.4102 79.4207 69.9472 79.3049 69.5579 79.0514C69.1687 78.7979 68.8755 78.4213 68.7253 77.9818C68.6264 77.6907 68.5939 77.3812 68.6302 77.0759V74.0345H69.4264V77.0368C69.4264 78.058 69.9509 78.6203 70.8731 78.6203C71.7952 78.6203 72.3038 78.0421 72.3038 77.0368V73.9943L73.1297 74.0102ZM76.6109 74.0112H74.6641V79.2705H76.6109C77.1582 79.3122 77.7051 79.1832 78.1761 78.9013C78.6471 78.6194 79.0191 78.1985 79.2408 77.6964C79.4607 77.1945 79.5185 76.6365 79.4061 76.1002C79.2937 75.564 79.0167 75.0761 78.6137 74.7047C78.3458 74.4572 78.0295 74.2679 77.6848 74.1485C77.3402 74.0292 76.9745 73.9824 76.6109 74.0112ZM76.6109 78.5495H75.4667V74.7311H76.6109C77.1184 74.7311 77.6059 74.932 77.9655 75.2914C78.2339 75.5581 78.4169 75.8986 78.4912 76.2695C78.5655 76.6405 78.5276 77.0252 78.3824 77.3746C78.2373 77.724 77.9914 78.0223 77.6761 78.2315C77.3608 78.4408 76.9893 78.5515 76.6109 78.5495ZM81.5873 74.0102H80.7762V79.2694H81.5873V74.0102ZM88.7093 73.9711H87.9141L85.5856 79.2694H86.3808L86.937 77.9628H89.5997L90.1485 79.2694H90.9987L88.7093 73.9711ZM87.2627 77.2662L88.3043 74.8897L89.3448 77.2662H87.2627ZM95.0678 77.2577H95.163C95.5224 77.1793 95.8434 76.9785 96.071 76.6896C96.2987 76.4008 96.4188 76.0418 96.4108 75.6741C96.4237 75.2546 96.2697 74.8471 95.9825 74.5409C95.5636 74.1766 95.0182 73.9917 94.464 74.026H92.0794V79.2853H92.8746V77.3846H94.1626L95.4739 79.2388H96.4277L95.0678 77.2577ZM92.9296 76.6868V74.7311H94.3847C95.1799 74.7311 95.5849 75.08 95.5849 75.6974C95.5849 76.3147 95.1165 76.6879 94.3932 76.6879L92.9296 76.6868ZM100.577 73.9711H99.782L97.4535 79.2694H98.2476L98.8049 77.9628H101.468L102.015 79.2694H102.867L100.577 73.9711ZM99.1221 77.2662L100.164 74.8897L101.213 77.2662H99.1221ZM107.308 76.6012L107.142 76.5452L107.292 76.467C107.517 76.3744 107.708 76.2155 107.84 76.0115C107.972 75.8075 108.039 75.5681 108.031 75.3253C108.036 75.1656 108.008 75.0067 107.95 74.8582C107.891 74.7097 107.802 74.5747 107.69 74.4616C107.309 74.1403 106.819 73.9789 106.322 74.0112H103.938V79.2705H106.378C107.595 79.2705 108.318 78.7398 108.318 77.8603C108.324 77.563 108.224 77.2733 108.036 77.0427C107.848 76.8122 107.585 76.6557 107.292 76.6012H107.308ZM104.733 74.7089H106.18C106.824 74.7089 107.205 74.9933 107.205 75.5007C107.205 76.0071 106.808 76.2925 106.108 76.2925H104.733V74.7089ZM106.387 78.5738H104.733V76.9892H106.322C107.357 76.9892 107.507 77.4882 107.507 77.782C107.507 78.3201 107.102 78.5738 106.387 78.5738ZM110.496 74.0102H109.685V79.2694H110.496V74.0102ZM114.694 73.9711H113.899L111.578 79.2694H112.373L112.929 77.9628H115.592L116.141 79.2694H116.991L114.694 73.9711ZM113.248 77.2662L114.288 74.8897L115.338 77.2662H113.248ZM84.6074 62.1702H83.8122V62.962H84.6074V62.1702ZM75.0691 68.9655H75.8643V62.1702H75.0691V68.9655ZM8.74494 63.8257H7.94973V68.2054H4.92961V63.8257H3.76111C3.32441 63.8205 2.88967 63.8848 2.47312 64.016C2.11359 64.1323 1.77943 64.3141 1.48757 64.5541C1.2232 64.7708 1.00642 65.0404 0.852031 65.3469C0.702859 65.6665 0.626989 66.0154 0.629964 66.3681C0.620447 66.7677 0.708216 67.1641 0.883755 67.5246C1.04978 67.8354 1.28348 68.1061 1.56688 68.3164C1.86825 68.5321 2.20876 68.6875 2.5683 68.7752C2.95744 68.8809 3.35822 68.9338 3.76111 68.9338H8.74494V63.8257ZM4.20631 68.2044H3.45868C3.18948 68.2056 2.92167 68.1656 2.66452 68.086C2.42589 68.0051 2.20275 67.8843 2.00467 67.7287C1.80696 67.5628 1.65027 67.3535 1.54681 67.1172C1.44336 66.8808 1.39594 66.6237 1.40826 66.366C1.40484 66.1074 1.46474 65.8519 1.58274 65.6218C1.69483 65.3998 1.85239 65.2031 2.04379 65.0435C2.23884 64.8818 2.46273 64.7584 2.70365 64.6799C2.9585 64.5879 3.22815 64.5424 3.49886 64.5446H4.24543L4.20631 68.2044ZM6.63847 70.6358H7.43369V69.844H6.63847V70.6358ZM4.95288 62.1681H4.15872V62.961H4.95288V62.1681ZM51.3502 62.1681H50.5549V62.961H51.3502V62.1681ZM7.94973 70.6358H8.74494V69.844H7.94973V70.6358ZM52.6773 62.1681H51.8831V62.961H52.6773V62.1681ZM83.2803 62.1681H82.484V62.961H83.2792L83.2803 62.1681ZM3.62576 62.1681H2.83055V62.961H3.62576V62.1681ZM55.2131 70.6358H56.0083V69.844H55.2131V70.6358ZM60.0859 63.8246H59.2907V68.2044H56.4387V63.8246H55.6435V68.2044H52.6212V63.8246H51.4284C50.9894 63.8205 50.5523 63.8847 50.133 64.0149C49.7735 64.1323 49.4404 64.3152 49.1475 64.553C48.8842 64.7697 48.6706 65.0393 48.5193 65.3459C48.3702 65.6655 48.2943 66.0144 48.2973 66.3671C48.2835 66.7677 48.3713 67.1652 48.5511 67.5236C48.7139 67.8365 48.9487 68.1071 49.2342 68.3154C49.5334 68.531 49.8708 68.6864 50.2282 68.7742C50.6195 68.8799 51.0234 68.9327 51.4284 68.9327H60.0848L60.0859 63.8246ZM51.9222 68.2044H51.1672C50.8978 68.2041 50.6298 68.1642 50.372 68.086C50.1363 68.0043 49.9161 67.8835 49.7206 67.7287C49.5329 67.573 49.381 67.3786 49.2754 67.1589C49.163 66.91 49.1087 66.6389 49.1168 66.366C49.1134 66.1074 49.1733 65.8519 49.2913 65.6218C49.5306 65.1731 49.9353 64.8353 50.4196 64.6799C50.6744 64.5879 50.9441 64.5424 51.2148 64.5446H51.9698L51.9222 68.2044ZM56.5402 70.6358H57.3354V69.844H56.5402V70.6358ZM13.6177 64.4896C13.4274 64.2782 13.1947 64.108 12.9336 63.9906C12.6441 63.8715 12.3328 63.815 12.0199 63.8246H11.4637V64.6164H12.1235C12.3044 64.6164 12.4831 64.6566 12.648 64.7348C12.8045 64.8067 12.9431 64.9114 13.053 65.0435C13.1588 65.1704 13.236 65.3194 13.2751 65.4791C13.3202 65.6665 13.3414 65.8568 13.3386 66.0499V68.2435H9.80346V69.0363H14.1274V65.9791C14.1251 65.7105 14.0849 65.4436 14.0079 65.1862C13.9338 64.9437 13.8091 64.7196 13.6421 64.5287L13.6177 64.4896ZM72.1272 68.2435H68.9009L70.228 65.0752C70.0227 64.8972 69.8077 64.7306 69.584 64.5763C69.3589 64.4237 69.1224 64.2887 68.8766 64.1724C68.6432 64.0547 68.3997 63.9624 68.1459 63.8955C67.9072 63.8309 67.6613 63.7964 67.4141 63.7929C67.1644 63.7958 66.916 63.8303 66.6749 63.8955C66.4347 63.9618 66.2008 64.0491 65.9759 64.1566C65.7264 64.2715 65.4902 64.4089 65.2674 64.5689C65.0481 64.7218 64.8387 64.8885 64.6404 65.0678L65.9759 68.2361H63.1144V63.8246H62.3192V69.123C62.3298 69.3049 62.3298 69.487 62.3192 69.6696C62.301 69.7945 62.2605 69.9152 62.1997 70.0258C62.1483 70.1109 62.0739 70.1798 61.9851 70.2246C61.8711 70.2684 61.7498 70.29 61.6277 70.288H61.4447L61.2385 70.2404L61.0397 70.9688C61.2427 71.0223 61.4493 71.0488 61.6594 71.0481C61.8941 71.0565 62.1278 71.0132 62.3436 70.9212C62.5297 70.8208 62.6862 70.6738 62.7962 70.4931C62.9146 70.3102 62.996 70.1062 63.0351 69.8905C63.0845 69.6297 63.1081 69.3662 63.106 69.0998V68.9412H72.8833V62.1692H72.0881L72.1272 68.2435ZM66.7468 68.2435L65.554 65.3363C65.8205 65.1069 66.125 64.9251 66.4529 64.7983C66.7606 64.6873 67.0873 64.6312 67.4152 64.6323C67.7641 64.6323 68.1088 64.6989 68.4314 64.83C68.7433 64.9516 69.0341 65.1228 69.29 65.3374L68.0983 68.2445L66.7468 68.2435ZM59.315 70.6749H60.1091V69.8831H59.315V70.6749ZM115.957 69.0046H116.752V62.1692H115.957V69.0046ZM112.984 68.2118H110.377C110.536 67.8618 110.618 67.4802 110.616 67.0954C110.617 66.7205 110.544 66.3491 110.401 66.0023C110.263 65.6769 110.063 65.3811 109.813 65.1313C109.564 64.879 109.267 64.6795 108.939 64.5446C108.591 64.4019 108.218 64.3293 107.842 64.331C107.475 64.327 107.111 64.4028 106.776 64.553C106.454 64.6896 106.163 64.8887 105.918 65.1387C105.598 65.4689 105.365 65.8732 105.239 66.3154C105.112 66.7577 105.097 67.2243 105.195 67.6737C105.233 67.8583 105.288 68.038 105.361 68.2128H102.978C103.135 67.8612 103.216 67.4805 103.217 67.0954C103.215 66.7208 103.142 66.3498 103.002 66.0023C102.864 65.6769 102.664 65.3811 102.414 65.1313C102.165 64.879 101.867 64.6795 101.54 64.5446C101.191 64.4017 100.818 64.3292 100.442 64.331C100.075 64.3272 99.7117 64.4029 99.377 64.553C99.0548 64.6895 98.763 64.8886 98.5183 65.1387C98.1982 65.4689 97.9646 65.8732 97.8384 66.3154C97.7122 66.7577 97.6973 67.2243 97.795 67.6737C97.8331 67.8583 97.8888 68.038 97.9621 68.2128H95.5775V62.1692H94.7834V68.2044H92.3988V67.0479C92.3988 66.766 92.3614 66.4886 92.2867 66.2159C92.2126 65.959 92.082 65.7218 91.9046 65.5218C91.7271 65.3217 91.5072 65.1637 91.261 65.0594C90.9634 64.9401 90.6445 64.8836 90.324 64.8934H86.9613L88.3921 62.1692H87.5968L86.1344 64.886C86.1534 65.0347 86.1932 65.1771 86.2539 65.3131C86.3103 65.4378 86.3843 65.5513 86.4759 65.6535H90.3558C90.5673 65.6503 90.7788 65.6884 90.9754 65.7645C91.1343 65.8241 91.2761 65.9217 91.3884 66.0489C91.5007 66.1761 91.58 66.3289 91.6194 66.4939C91.6561 66.6764 91.6744 66.8611 91.6744 67.0479V68.2044H84.6486V63.8246H83.4463C83.0096 63.8195 82.5749 63.8837 82.1583 64.0149C81.7967 64.1323 81.4604 64.3152 81.1643 64.553C80.9038 64.7725 80.6902 65.0421 80.5362 65.3459C80.387 65.6655 80.3111 66.0144 80.3141 66.3671C80.3056 66.7667 80.3924 67.1631 80.5679 67.5236C80.735 67.8344 80.9676 68.105 81.2521 68.3154C81.5513 68.5289 81.8887 68.6854 82.2461 68.7742C82.6388 68.8799 83.0388 68.9327 83.4463 68.9327H98.5479C98.8026 69.2045 99.1105 69.4208 99.4526 69.5682C99.7947 69.7155 100.164 69.7907 100.536 69.789C100.923 69.7923 101.307 69.7168 101.664 69.567C102.01 69.4222 102.322 69.2065 102.579 68.9327H105.917C106.172 69.2044 106.48 69.4206 106.822 69.568C107.163 69.7153 107.532 69.7905 107.904 69.789C108.295 69.7922 108.681 69.7171 109.041 69.567C109.384 69.419 109.691 69.2044 109.947 68.9327H113.81V62.1692H113.015L112.984 68.2118ZM83.8524 68.2118H83.1047C82.8355 68.2129 82.5677 68.173 82.3106 68.0934C82.072 68.0129 81.8489 67.8924 81.6507 67.7371C81.3601 67.4871 81.1599 67.1485 81.081 66.7734C81.002 66.3984 81.0488 66.0078 81.214 65.662C81.4522 65.2122 81.8573 64.8736 82.3423 64.719C82.5961 64.627 82.8658 64.5816 83.1375 64.5847H83.8841L83.8524 68.2118ZM102.325 67.8798C102.226 68.1151 102.08 68.328 101.896 68.5056C101.715 68.6854 101.498 68.826 101.26 68.9179C101.007 69.0152 100.737 69.0638 100.465 69.0596C100.192 69.0655 99.9216 69.0144 99.6699 68.9095C99.4385 68.8111 99.2302 68.6652 99.0587 68.4813C98.8775 68.2978 98.7349 68.0799 98.6392 67.8404C98.5435 67.601 98.4967 67.3448 98.5014 67.087C98.4982 66.8163 98.5469 66.5478 98.6452 66.2952C98.7404 66.0626 98.8779 65.8469 99.0502 65.6609C99.2258 65.4815 99.4335 65.3367 99.6625 65.2338C99.9131 65.127 100.184 65.0731 100.458 65.0752C100.729 65.0731 101 65.1239 101.252 65.2264C101.487 65.3247 101.702 65.4643 101.888 65.6387C102.067 65.8216 102.21 66.0362 102.309 66.2719C102.409 66.5246 102.46 66.7931 102.461 67.0637C102.461 67.3354 102.408 67.605 102.302 67.8566L102.325 67.8798ZM109.67 67.8555C109.57 68.0903 109.424 68.3029 109.241 68.4811C109.058 68.6593 108.842 68.7995 108.604 68.8936C108.351 68.9917 108.082 69.0402 107.81 69.0363C107.548 69.0457 107.287 68.9989 107.044 68.8992C106.801 68.7995 106.583 68.6491 106.403 68.4581C106.222 68.2745 106.079 68.0566 105.984 67.8171C105.888 67.5776 105.842 67.3215 105.847 67.0637C105.843 66.7927 105.891 66.5236 105.989 66.2709C106.089 66.0383 106.225 65.8272 106.395 65.6376C106.571 65.4579 106.778 65.3141 107.007 65.2105C107.258 65.1027 107.529 65.0488 107.802 65.052C108.075 65.0488 108.344 65.1006 108.597 65.2021C108.832 65.3004 109.048 65.4399 109.233 65.6144C109.411 65.7973 109.554 66.0129 109.653 66.2487C109.859 66.7561 109.859 67.3238 109.653 67.8323L109.67 67.8555ZM40.0067 68.1652H38.8065C38.447 68.1811 38.0885 68.1156 37.7575 67.975C37.5049 67.8503 37.2967 67.651 37.1611 67.4041C37.2062 67.1715 37.2274 66.9365 37.2246 66.699V64.2993H36.4695V66.8576C36.4886 67.2381 36.3606 67.6134 36.1121 67.9041C35.9751 68.0428 35.8096 68.15 35.627 68.2183C35.4443 68.2866 35.249 68.3143 35.0546 68.2995C34.6558 68.3113 34.267 68.1728 33.9655 67.9115C33.8381 67.7911 33.7332 67.649 33.6556 67.4919C33.5775 67.3311 33.5343 67.1557 33.5287 66.977V64.2993H32.7346V66.921C32.7409 67.1219 32.706 67.3217 32.6309 67.5077C32.5672 67.6554 32.4725 67.7876 32.3532 67.8954C32.2339 68.0032 32.0927 68.084 31.9394 68.1325C31.7819 68.1799 31.6184 68.2041 31.454 68.2044H30.0232V64.2993H29.2291V68.2044H25.2541L26.5896 65.0361C26.3807 64.8594 26.1633 64.6928 25.9382 64.5372C25.7155 64.3849 25.4815 64.2499 25.2382 64.1333C25.0049 64.0142 24.7613 63.9219 24.5075 63.8564C24.0271 63.7192 23.518 63.7192 23.0376 63.8564C22.7831 63.9254 22.5364 64.0149 22.2974 64.1249C22.0517 64.2396 21.8177 64.3776 21.5984 64.5372C21.3742 64.688 21.162 64.8543 20.9618 65.0361L22.3048 68.2044H19.6918V63.8246H18.4757C18.0384 63.8181 17.603 63.8849 17.1877 64.0223C16.8292 64.1442 16.4954 64.3293 16.2022 64.5689C15.931 64.7821 15.7107 65.0529 15.5571 65.3617C15.4048 65.682 15.3255 66.0341 15.3277 66.3903C15.3171 66.791 15.4048 67.1874 15.5814 67.5468C15.7443 67.8608 15.978 68.1325 16.2656 68.3397C16.567 68.5511 16.9075 68.7055 17.267 68.79C17.6615 68.8894 18.0675 68.9401 18.4747 68.9412H18.9283V69.1547C18.9439 69.3144 18.921 69.4754 18.8616 69.6244C18.8022 69.7733 18.7079 69.9059 18.5868 70.011C18.3012 70.195 17.9639 70.2838 17.6245 70.2647C17.4123 70.2661 17.2029 70.2422 16.9963 70.1928C16.7756 70.1377 16.5601 70.0634 16.3523 69.9708L16.1218 70.7003C16.4073 70.8025 16.6724 70.8814 16.917 70.9371C17.1398 70.9906 17.3654 71.0171 17.5938 71.0164C17.8801 71.0392 18.168 71.0047 18.4407 70.9148C18.7135 70.825 18.9655 70.6816 19.1821 70.4931C19.357 70.3027 19.4921 70.0793 19.5796 69.8361C19.6671 69.5929 19.7053 69.3346 19.6918 69.0765V68.9412H31.4931C31.823 68.9465 32.1491 68.8697 32.4418 68.7176C32.7346 68.5656 32.985 68.343 33.1702 68.0701C33.3511 68.3672 33.6091 68.6114 33.9179 68.7742C34.2689 68.9539 34.6602 69.0406 35.0546 69.0279C35.4533 69.0416 35.8509 68.9634 36.2147 68.7985C36.5319 68.6399 36.791 68.3841 36.9538 68.0691C37.0208 68.1825 37.0977 68.2882 37.1844 68.3862C37.2859 68.5018 37.405 68.5944 37.5418 68.6642C37.7075 68.7544 37.8823 68.8203 38.0663 68.8619C38.2475 68.9014 38.4304 68.9225 38.6151 68.9253H40.8094V62.1692H40.0142L40.0067 68.1652ZM18.8871 68.1652H18.0929C17.8233 68.1662 17.5551 68.1259 17.2977 68.0458C17.0574 67.9729 16.8334 67.8545 16.6379 67.6969C16.4523 67.5458 16.3009 67.357 16.1937 67.143C16.0809 66.8943 16.0263 66.6231 16.034 66.3501C16.0306 66.0916 16.0905 65.8361 16.2085 65.6059C16.3246 65.3815 16.4842 65.1824 16.678 65.0203C16.8758 64.8617 17.0989 64.7348 17.3379 64.6482C17.5927 64.5583 17.8624 64.516 18.132 64.5213H18.9273L18.8871 68.1652ZM23.0767 68.1652L21.8924 65.2581C22.1568 65.0256 22.4602 64.8427 22.7912 64.719C23.4322 64.488 24.1355 64.4992 24.7687 64.7507C25.0785 64.8723 25.3662 65.0435 25.6199 65.2581L24.4356 68.1652H23.0767ZM42.9486 68.957H43.7428V62.1692H42.9486V68.957ZM102.047 23.7623C92.7308 23.7623 85.9662 30.7637 85.9662 39.3107V39.3973C85.9662 47.9443 92.6515 54.8591 101.959 54.8591C111.267 54.8591 118.032 47.8576 118.032 39.3107V39.224C118.032 30.677 111.356 23.7623 102.047 23.7623ZM111.091 39.3973C111.091 44.5456 107.387 48.7604 102.045 48.7604C96.7048 48.7604 92.9043 44.4674 92.9043 39.3096V39.224C92.9043 34.0673 96.616 29.8609 101.958 29.8609C107.301 29.8609 111.091 34.1539 111.091 39.3107V39.3973ZM11.4542 48.6336H22.9551V54.3442H0.628906V49.1082L10.6759 40.9027C14.4193 37.8053 15.8902 36.1498 15.8902 33.6867C15.8902 31.2236 14.2046 29.7742 11.8359 29.7742C9.46719 29.7742 7.90955 31.065 5.67618 33.8135L1.017 30.0988C3.98953 26.0594 6.87534 23.8722 12.2642 23.8722C18.5127 23.8722 22.6538 27.5246 22.6538 33.1486V33.2353C22.6538 38.2567 20.0704 40.7515 14.7048 44.8712L8.13161 49.9011L6.85208 50.8832L11.4542 48.6336ZM84.2563 44.9336V45.0213C84.2563 50.6929 80.1153 54.8591 73.3898 54.8591C67.9608 54.8591 64.21 52.7131 61.6266 49.6632L66.197 45.3226C68.2632 47.643 70.4173 48.9348 73.4776 48.9348C75.9817 48.9348 77.7466 47.5162 77.7466 45.2824V45.1957C77.7466 42.7485 75.5439 41.37 71.8406 41.37H69.0817L68.0486 37.1636L77.7307 27.4612L73.8509 29.9486H63.3904V24.2771H83.7783V29.2594L76.1487 36.5145C80.2813 37.227 84.2563 39.3487 84.2563 44.9336ZM51.9138 40.7124C51.585 40.5227 51.2355 40.3712 50.8722 40.261C49.9433 39.9662 48.9582 39.8931 47.9959 40.0475C47.5704 40.1151 47.1525 40.2238 46.7481 40.372H46.6201C46.3981 40.4587 46.1823 40.5539 45.9603 40.6649C45.7382 40.7759 45.587 40.8636 45.3956 40.982C44.9747 41.2357 44.5528 41.5285 44.1404 41.8383C43.8184 39.6236 43.7758 37.3772 44.0135 35.1519C45.0064 35.7777 44.7283 37.5283 44.5211 38.0273C44.9308 37.5536 45.1868 36.9666 45.255 36.344C45.3232 35.7215 45.2003 35.093 44.9028 34.5419C45.0685 34.68 45.2169 34.8333 45.348 35.0018C45.6779 35.4299 45.8746 35.9447 45.9127 36.4828C45.9331 36.7076 45.9331 36.9321 45.9127 37.1562C45.9162 37.2062 45.9162 37.2563 45.9127 37.3063C46.1196 36.9032 46.2275 36.4565 46.2275 36.0034C46.2275 35.5503 46.1196 35.1036 45.9127 34.7005C45.7678 34.4082 45.5772 34.1409 45.348 33.9087L45.1259 33.6951L45.3406 33.7586C45.5429 33.8276 45.7308 33.9252 45.9042 34.0514C46.2638 34.321 46.5387 34.6857 46.6994 35.1043C46.8284 35.4214 46.8961 35.7597 46.8982 36.1022C47.0068 35.7783 47.0452 35.435 47.0109 35.0951C46.9766 34.7552 46.8704 34.4265 46.6994 34.1307C46.5015 33.8067 46.2288 33.5349 45.9042 33.3378C45.6492 33.1793 45.3659 33.0716 45.0699 33.0207H45.3321C45.5225 33.0193 45.7107 33.0355 45.8968 33.0693C46.1802 33.1158 46.4509 33.2205 46.691 33.378C46.9067 33.5228 47.0865 33.7163 47.2165 33.9404C47.1791 33.5323 46.985 33.1546 46.6751 32.8864C46.4448 32.6911 46.1733 32.5501 45.881 32.4741C45.6973 32.4211 45.5075 32.3919 45.3163 32.3875C45.0772 32.3828 44.8395 32.426 44.6173 32.5143C44.7917 32.2714 45.0439 32.0953 45.3321 32.0153C45.5146 31.9579 45.7059 31.9339 45.8968 31.9445C46.0569 31.9537 46.2105 31.9907 46.3579 32.0555C46.224 31.9031 46.0652 31.7744 45.8884 31.6749C45.569 31.4905 45.1903 31.4378 44.8328 31.528C44.4752 31.6182 44.1668 31.8442 43.9733 32.1581C43.7277 31.7235 43.5609 31.2489 43.4805 30.7563C43.4223 31.1116 43.3178 31.4578 43.1696 31.7859C43.1167 31.9128 43.0561 32.0368 42.9877 32.1581C42.7982 31.8595 42.5061 31.6403 42.1664 31.5416C41.8267 31.4429 41.4626 31.4715 41.1425 31.6221C40.931 31.7215 40.7449 31.8695 40.6032 32.0555C40.9022 31.9313 41.2339 31.909 41.5469 31.9919C41.8599 32.0748 42.137 32.2584 42.3353 32.5143C41.9496 32.3773 41.5322 32.3568 41.135 32.4555C40.7378 32.5542 40.3785 32.7677 40.1019 33.0693C39.8973 33.3168 39.7727 33.6206 39.7445 33.9404C39.8323 33.7818 39.9475 33.6391 40.0861 33.5207C40.3345 33.3181 40.623 33.1703 40.9327 33.087C41.2423 33.0038 41.5661 32.9869 41.8827 33.0376C41.4859 33.1071 41.1132 33.2757 40.7991 33.5278C40.485 33.7799 40.2397 34.1073 40.0861 34.4795C39.92 34.9943 39.92 35.5483 40.0861 36.0631V36.0156C40.0764 35.4881 40.2433 34.9725 40.5601 34.5506C40.877 34.1287 41.3257 33.8246 41.8351 33.6867C41.3079 34.1005 40.9404 34.6842 40.7954 35.3384C40.6504 35.9927 40.7368 36.6769 41.0399 37.2746C40.9729 36.7676 41.0379 36.2519 41.2288 35.7774C41.4196 35.303 41.7297 34.8858 42.1291 34.5662C41.8299 35.1168 41.7061 35.7456 41.7741 36.3684C41.8422 36.9913 42.0988 37.5785 42.5098 38.0516C42.3036 37.5526 42.0254 35.802 43.0195 35.1762C43.2645 37.4053 43.2325 39.6561 42.9243 41.8774C42.1661 41.2688 41.326 40.7698 40.4287 40.3953L40.1178 40.2927C39.3659 40.039 38.5736 39.9261 37.7808 39.9597C36.9529 39.9999 36.1417 40.2074 35.3962 40.5697L35.1583 40.6966L35.3729 40.6331C36.1474 40.413 36.9549 40.3328 37.7575 40.3963C38.5675 40.4703 39.3585 40.6839 40.0945 41.0296C41.1203 41.5158 42.072 42.1417 42.9232 42.8901C42.0434 43.7395 41.1117 44.5335 40.1336 45.2676C40.1076 45.2906 40.0779 45.3092 40.0459 45.3226C39.9579 45.2017 39.831 45.1147 39.6865 45.0762C39.5419 45.0378 39.3886 45.0502 39.2521 45.1115C39.1157 45.1727 39.0045 45.279 38.9372 45.4126C38.8699 45.5461 38.8507 45.6988 38.8827 45.8448C38.9052 45.9421 38.9486 46.0295 39.0127 46.107C39.1542 46.2558 39.3415 46.3529 39.5446 46.383C39.7477 46.4131 39.9551 46.3743 40.1336 46.273C40.9289 45.9326 41.9694 44.8469 43.2183 43.7062L43.5355 43.4208L43.8538 43.7062C44.4185 44.2211 44.943 44.7285 45.4432 45.1566C45.642 45.3385 45.8249 45.497 46.0079 45.6471C46.2539 45.855 46.519 46.0348 46.8031 46.1863C46.9817 46.3245 47.2011 46.3994 47.427 46.3994C47.6528 46.3994 47.8723 46.3245 48.0509 46.1863L48.1059 46.1303C48.163 46.0511 48.2037 45.9613 48.2255 45.8662C48.2473 45.771 48.2498 45.6724 48.2328 45.5763C48.2026 45.4537 48.1398 45.3415 48.0509 45.2518C47.9826 45.1891 47.9019 45.1414 47.8139 45.112C47.726 45.0826 47.6328 45.072 47.5405 45.081C47.4483 45.09 47.3589 45.1183 47.2783 45.1641C47.1977 45.2099 47.1276 45.2722 47.0727 45.3469L46.747 45.1482C46.4695 44.9529 46.2039 44.7411 45.9518 44.5139L45.3882 44.016L44.1319 42.8827C44.5295 42.5508 44.9271 42.2336 45.3882 41.9324L45.9518 41.5761C46.2049 41.4246 46.47 41.2847 46.747 41.1564C47.1496 40.9633 47.5655 40.8047 47.9948 40.6807C48.9298 40.4127 49.9126 40.356 50.8722 40.5147C51.2212 40.5655 51.5631 40.6448 51.8979 40.7526M43.5186 55.8485L41.63 57.7302L43.5186 59.6119L45.4072 57.7302L43.5186 55.8485ZM28.3239 45.0636L27.6386 47.1652L29.7472 47.8492L30.4335 45.7476L28.3239 45.0636ZM34.4477 26.644L34.1611 28.4517L35.9746 28.7372L36.2612 26.9295L34.4477 26.644ZM57.6611 37.7968L56.3625 39.0908L57.6611 40.3847L58.9597 39.0908L57.6611 37.7968ZM56.5761 33.5175L55.7418 35.1476L57.3788 35.9786L58.212 34.3485L56.5761 33.5175ZM35.9725 49.455L34.159 49.7404L34.4466 51.5481L36.2602 51.2627L35.9725 49.455ZM52.6001 26.6451L50.7876 26.9305L51.0742 28.7382L52.8888 28.4528L52.6001 26.6451ZM39.5563 51.268L37.9193 52.0978L38.7526 53.729L40.3896 52.8981L39.5563 51.268ZM43.5207 23.7062L42.2221 25.0002L43.5207 26.2931L44.8193 25.0002L43.5207 23.7062ZM41.4333 25.9315L40.5408 27.1557L41.7685 28.0447L42.661 26.8206L41.4333 25.9315ZM45.2845 50.1442L44.3921 51.3684L45.6198 52.2574L46.5123 51.0343L45.2845 50.1442ZM33.0518 32.5809L31.6084 33.0482L32.0768 34.4869L33.5213 34.0197L33.0518 32.5809ZM54.9762 43.7062L53.5328 44.1724L54.0012 45.6123L55.4457 45.145L54.9762 43.7062ZM31.2097 39.9513L30.3172 41.1744L31.5449 42.0645L32.4374 40.8403L31.2097 39.9513Z" fill="#0F6C01"/>
<path d="M61.8913 43.0614L59.512 44.2698L60.7238 46.6409L63.1031 45.4326L61.8913 43.0614ZM33.6422 52.6433L31.0049 53.0609L31.4226 55.689L34.0599 55.2725L33.6422 52.6433ZM55.6237 22.4916L52.9864 22.9071L53.4041 25.5362L56.0414 25.1197L55.6237 22.4916ZM27.2202 40.093L25.9174 41.8806L27.7109 43.1798L29.0147 41.3912L27.2202 40.093ZM38.7539 24.4643L37.9207 26.0954L39.5566 26.9253L40.3898 25.2952L38.7539 24.4643ZM30.4761 33.5049L28.8402 34.3358L29.6735 35.9659L31.3094 35.1361L30.4761 33.5049ZM43.5252 51.8917L42.2267 53.1857L43.5252 54.4796L44.8227 53.1857L43.5252 51.8917ZM53.9973 32.5736L53.5288 34.0113L54.9723 34.4796L55.4418 33.0408L53.9973 32.5736ZM35.5879 47.0014H34.0694V48.5142H35.5879V47.0014ZM26.315 31.5429L23.9357 32.7512L25.1476 35.1223L27.5269 33.914L26.315 31.5429ZM25.1465 43.0678L23.9336 45.439L26.3129 46.6473L27.5258 44.2761L25.1465 43.0678ZM35.4261 23.2612L34.7398 25.3628L36.8495 26.0457L37.5347 23.9442L35.4261 23.2612ZM50.1989 52.1486L49.5147 54.2513L51.6233 54.9331L52.3085 52.8315L50.1989 52.1486ZM58.7294 45.0637L56.6198 45.7466L57.305 47.8482L59.4147 47.1653L58.7294 45.0637ZM59.8355 40.0888L58.041 41.388L59.3438 43.1756L61.1383 41.8775L59.8355 40.0888ZM57.305 30.3462L56.6198 32.4478L58.7284 33.1307L59.4147 31.0291L57.305 30.3462ZM56.1334 26.5341H53.9159V28.7436H56.1334V26.5341ZM36.8653 52.026L34.7588 52.711L35.4462 54.8105L37.5527 54.1244L36.8653 52.026ZM46.0251 53.6645L44.7159 55.4543L46.5126 56.7588L47.8206 54.968L46.0251 53.6645ZM29.6735 42.2157L28.8402 43.8469L30.4761 44.6768L31.3094 43.0466L29.6735 42.2157ZM35.5879 29.6707H34.0694V31.1824H35.5879V29.6707ZM31.541 36.1171L30.3133 37.0062L31.2058 38.2303L32.4345 37.3402L31.541 36.1171ZM49.5972 27.2223L48.1537 27.6896L48.6222 29.1273L50.0667 28.6611L49.5972 27.2223ZM45.6169 25.9326L44.3881 26.8217L45.2806 28.0459L46.5083 27.1568L45.6169 25.9326ZM52.7008 44.6408L51.4604 44.8364L51.6571 46.0732L52.8975 45.8766L52.7008 44.6408ZM54.2172 38.2113L53.329 39.0961L54.2172 39.9809L55.1045 39.0961L54.2172 38.2113ZM60.7206 31.5439L59.5077 33.9151L61.887 35.1234L63.0999 32.7522L60.7206 31.5439ZM56.1334 49.4476H53.9159V51.657H56.1334V49.4476ZM29.7433 30.3515L27.6347 31.0344L28.32 33.136L30.4285 32.4531L29.7433 30.3515ZM51.6159 23.2655L49.5062 23.9484L50.1925 26.05L52.3011 25.3671L51.6159 23.2655ZM40.8869 21.5709L39.5788 23.3606L41.3754 24.6641L42.6835 22.8743L40.8869 21.5709ZM57.3759 42.2147L55.74 43.0445L56.5733 44.6746L58.2092 43.8448L57.3759 42.2147ZM29.3795 37.7948L28.081 39.0887L29.3795 40.3827L30.6781 39.0887L29.3795 37.7948ZM55.8362 39.9577L54.6085 40.8457L55.501 42.0699L56.7287 41.1808L55.8362 39.9577ZM38.4219 49.0586L36.9785 49.5259L37.4469 50.9646L38.8914 50.4974L38.4219 49.0586ZM43.521 48.8725L42.6327 49.7574L43.521 50.6422L44.4093 49.7574L43.521 48.8725ZM36.7162 29.7669L36.5195 31.0037L37.761 31.1982L37.9566 29.9614L36.7162 29.7669ZM33.0764 41.5455L32.5054 42.6608L33.6253 43.2295L34.1963 42.1143L33.0764 41.5455ZM33.1314 26.5341H30.9139V28.7436H33.1314V26.5341ZM46.3095 21.5434L44.515 22.8426L45.8178 24.6302L47.6123 23.3321L46.3095 21.5434ZM47.4939 51.2775L46.6606 52.9076L48.2965 53.7385L49.1298 52.1074L47.4939 51.2775ZM31.3136 46.3343L31.026 48.1421L32.8396 48.4275L33.1272 46.6198L31.3136 46.3343ZM54.2077 29.7595L53.9201 31.5672L55.7347 31.8526L56.0213 30.0449L54.2077 29.7595ZM52.9789 47.0014H51.4604V48.5142H52.98L52.9789 47.0014ZM55.501 36.1203L54.6085 37.3455L55.8362 38.2335L56.7287 37.0104L55.501 36.1203ZM41.7688 50.1527L40.54 51.0418L41.4325 52.266L42.6602 51.378L41.7688 50.1527ZM39.9383 28.1273L39.3673 29.2415L40.4871 29.8102L41.0582 28.696L39.9383 28.1273ZM46.5496 48.3915L45.9785 49.5058L47.0984 50.0745L47.6694 48.9592L46.5496 48.3915ZM49.2852 47.0025L49.0896 48.2393L50.33 48.4338L50.5256 47.197L49.2852 47.0025ZM33.6284 34.9606L32.5096 35.5293L33.0807 36.6436L34.1984 36.0748L33.6284 34.9606ZM53.9677 41.5476L52.8489 42.1164L53.4199 43.2316L54.5377 42.6629L53.9677 41.5476ZM34.3517 44.6408L34.155 45.8766L35.3954 46.0711L35.5921 44.8353L34.3517 44.6408ZM50.3332 29.7574L49.0928 29.9529L49.2884 31.1898L50.5288 30.9942L50.3332 29.7574ZM40.4945 48.3831L39.3757 48.9508L39.9468 50.066L41.0645 49.4973L40.4945 48.3831ZM31.4162 22.499L30.9985 25.1281L33.6358 25.5447L34.0535 22.9156L31.4162 22.499ZM53.4009 52.6581L52.9832 55.2873L55.6205 55.7038L56.0382 53.0747L53.4009 52.6581ZM43.5157 18.5718L41.6281 20.4535L43.5168 22.3352L45.4043 20.4535L43.5157 18.5718ZM27.7045 35.0156L25.91 36.3137L27.2138 38.1014L29.0084 36.8032L27.7045 35.0156ZM59.3375 35.0145L58.0347 36.8032L59.8292 38.1014L61.132 36.3137L59.3375 35.0145ZM33.1314 49.4476H30.9139V51.657H33.1314V49.4476ZM41.2316 53.5631L39.436 54.8612L40.7399 56.6488L42.5344 55.3507L41.2316 53.5631ZM51.0745 49.4497L50.7868 51.2574L52.6004 51.5429L52.888 49.7352L51.0745 49.4497ZM32.8491 29.7732L31.0355 30.0586L31.3232 31.8664L33.1367 31.5809L32.8491 29.7732ZM55.7305 46.3333L53.9169 46.6187L54.2046 48.4264L56.0181 48.141L55.7305 46.3333ZM48.2986 24.4526L46.6627 25.2825L47.496 26.9126L49.1319 26.0827L48.2986 24.4526ZM37.4564 27.2297L36.988 28.6685L38.4314 29.1358L38.9009 27.6981L37.4564 27.2297ZM48.6169 49.0681L48.1485 50.5069L49.593 50.9752L50.0614 49.5354L48.6169 49.0681ZM32.0782 43.7105L31.6087 45.1493L33.0532 45.6166L33.5216 44.1788L32.0782 43.7105ZM52.9789 29.6707H51.4604V31.1824H52.98L52.9789 29.6707ZM43.5221 27.5511L42.6338 28.4359L43.5221 29.3208L44.4103 28.4359L43.5221 27.5511ZM35.3944 32.1137L34.154 32.3093L34.3496 33.5461L35.59 33.3495L35.3944 32.1137ZM32.829 38.2102L31.9407 39.0951L32.829 39.9799L33.7172 39.0951L32.829 38.2102ZM53.421 34.9606L52.8499 36.0748L53.9687 36.6436L54.5398 35.5283L53.421 34.9606ZM51.6508 32.1158L51.4541 33.3516L52.6945 33.5472L52.8912 32.3103L51.6508 32.1158ZM37.7589 46.9951L36.5185 47.1906L36.7141 48.4264L37.9545 48.2309L37.7589 46.9951ZM47.0984 28.1125L45.9796 28.6812L46.5496 29.7965L47.6684 29.2277L47.0984 28.1125Z" fill="#0F6C01"/>
</g>
</svg>
