<svg width="106" height="106" viewBox="0 0 106 106" fill="none" xmlns="http://www.w3.org/2000/svg">
<circle cx="53" cy="53" r="53" fill="#FFE2AA"/>
<path d="M39.0011 41.43C38.9942 41.5915 39.0205 41.7526 39.0782 41.9036C39.136 42.0545 39.224 42.1921 39.3368 42.3077C39.4497 42.4234 39.585 42.5148 39.7345 42.5762C39.884 42.6377 40.0445 42.6679 40.2061 42.665H44.3311C45.0211 42.665 45.5711 42.1 45.6611 41.415C46.1111 38.135 48.3611 35.745 52.3711 35.745C55.8011 35.745 58.9411 37.46 58.9411 41.585C58.9411 44.76 57.0711 46.22 54.1161 48.44C50.7511 50.885 48.0861 53.74 48.2761 58.375L48.2911 59.46C48.2963 59.788 48.4303 60.1009 48.6642 60.331C48.898 60.5611 49.213 60.69 49.5411 60.69H53.5961C53.9276 60.69 54.2455 60.5583 54.4799 60.3239C54.7144 60.0895 54.8461 59.7715 54.8461 59.44V58.915C54.8461 55.325 56.2111 54.28 59.8961 51.485C62.9411 49.17 66.1161 46.6 66.1161 41.205C66.1161 33.65 59.7361 30 52.7511 30C46.4161 30 39.4761 32.95 39.0011 41.43ZM46.7861 70.245C46.7861 72.91 48.9111 74.88 51.8361 74.88C54.8811 74.88 56.9761 72.91 56.9761 70.245C56.9761 67.485 54.8761 65.545 51.8311 65.545C48.9111 65.545 46.7861 67.485 46.7861 70.245Z" fill="#FFA800"/>
</svg>
