<?xml version="1.0" encoding="utf-8"?>
<!-- Generator: Adobe Illustrator 24.0.1, SVG Export Plug-In . SVG Version: 6.00 Build 0)  -->
<svg version="1.1" xmlns="http://www.w3.org/2000/svg" xmlns:xlink="http://www.w3.org/1999/xlink" x="0px" y="0px"
	 viewBox="0 0 50 50" style="enable-background:new 0 0 50 50;" xml:space="preserve">
<style type="text/css">
	.st0{display:none;}
	.st1{display:inline;}
	.st2{fill:none;stroke:#55849B;stroke-width:2;stroke-linecap:round;stroke-linejoin:round;}
	.st3{fill:none;stroke:#55849B;stroke-width:1.25;stroke-linecap:round;stroke-linejoin:round;}
	.st4{fill:#55849B;}
	.st5{display:inline;fill:#55849B;}
</style>
<g id="Layer_1" class="st0">
	<g class="st1">
		<path class="st2" d="M41.5,4.8h-33C6.5,4.8,4.7,5.6,3.3,7s-2.1,3.2-2.1,5.2v18.3c0,1.9,0.8,3.8,2.1,5.2c1.4,1.4,3.2,2.1,5.2,2.1
			h20.2l11,7.3v-7.3h1.8c1.9,0,3.8-0.8,5.2-2.1c1.4-1.4,2.1-3.2,2.1-5.2V12.2c0-1.9-0.8-3.8-2.1-5.2C45.3,5.6,43.5,4.8,41.5,4.8z"/>
		<path class="st3" d="M15.7,20.8c0,0.5-0.2,1-0.6,1.4c-0.4,0.4-0.9,0.6-1.4,0.6s-1-0.2-1.4-0.6c-0.4-0.4-0.6-0.9-0.6-1.4
			c0-0.5,0.2-1,0.6-1.4c0.4-0.4,0.9-0.6,1.4-0.6s1,0.2,1.4,0.6C15.4,19.8,15.7,20.3,15.7,20.8z M27.5,20.8c0,0.5-0.2,1-0.6,1.4
			c-0.4,0.4-0.9,0.6-1.4,0.6c-0.5,0-1-0.2-1.4-0.6c-0.4-0.4-0.6-0.9-0.6-1.4c0-0.5,0.2-1,0.6-1.4c0.4-0.4,0.9-0.6,1.4-0.6
			c0.5,0,1,0.2,1.4,0.6C27.3,19.8,27.5,20.3,27.5,20.8z M39.3,20.8c0,0.5-0.2,1-0.6,1.4c-0.4,0.4-0.9,0.6-1.4,0.6
			c-0.5,0-1-0.2-1.4-0.6c-0.4-0.4-0.6-0.9-0.6-1.4c0-0.5,0.2-1,0.6-1.4c0.4-0.4,0.9-0.6,1.4-0.6c0.5,0,1,0.2,1.4,0.6
			C39.1,19.8,39.3,20.3,39.3,20.8z"/>
	</g>
</g>
<g id="Layer_2" class="st0">
	<g class="st1">
		<path class="st4" d="M18.6,40.6l-1.7,3.1H1.3V0h40.6v28.8l-3.4-6.2V3.1H4.7v37.5H18.6z M11.5,21.9H8.1v-3.1h3.4V21.9z M28.8,21.9
			H14.8v-3.1h15.6L28.8,21.9z M8.1,28.1h3.4v3.1H8.1V28.1z M14.8,28.1h10.5l-1.7,3.1h-8.8V28.1z M11.5,12.5H8.1V9.4h3.4V12.5z
			 M35.2,12.5H14.8V9.4h20.3V12.5z M35.2,34.4v7.8h-3.4v-7.8H35.2z M31.8,43.8h3.4v3.1h-3.4V43.8z M48.7,50H18.2l15.2-28.1L48.7,50z
			 M23,47.3h20.9L33.5,28L23,47.3z"/>
	</g>
</g>
<g id="Layer_3" class="st0">
	<path class="st5" d="M3.4,40.7c1.2-2.8,2.9-5.3,5-7.5c2.1-2.1,4.7-3.9,7.5-5c0,0,0,0,0.1,0c-3.9-2.8-6.4-7.4-6.4-12.5
		C9.5,7.1,16.4,0.2,25,0.2c8.6,0,15.5,6.9,15.5,15.5c0,5.2-2.5,9.7-6.4,12.6c0,0,0.1,0,0.1,0c2.8,1.2,5.3,2.9,7.5,5
		c2.1,2.1,3.9,4.7,5,7.5c1.2,2.7,1.8,5.7,1.8,8.6c0,0.1,0,0.1,0,0.2c0,0.1-0.1,0.1-0.1,0.2c0,0-0.1,0.1-0.2,0.1c-0.1,0-0.1,0-0.2,0
		h-3.7c-0.3,0-0.5-0.2-0.5-0.5c-0.1-4.8-2.1-9.3-5.5-12.8c-3.5-3.5-8.2-5.5-13.2-5.5s-9.7,1.9-13.2,5.5C8.3,40,6.4,44.5,6.3,49.4
		c0,0.3-0.2,0.5-0.5,0.5H2c-0.1,0-0.1,0-0.2,0c-0.1,0-0.1-0.1-0.2-0.1c0,0-0.1-0.1-0.1-0.2c0-0.1,0-0.1,0-0.2
		C1.6,46.3,2.2,43.4,3.4,40.7z M25,26.4c2.9,0,5.6-1.1,7.6-3.1c2-2,3.1-4.7,3.1-7.6c0-2.9-1.1-5.6-3.1-7.6c-2-2-4.7-3.1-7.6-3.1
		S19.4,6,17.4,8c-2,2-3.1,4.7-3.1,7.6c0,2.9,1.1,5.6,3.1,7.6C19.4,25.3,22.1,26.4,25,26.4z"/>
</g>
<g id="Layer_4" class="st0">
	<g class="st1">
		<path class="st4" d="M23.2,32.1h3.6v7.1h-3.6V32.1z M32.1,28.6h3.6v10.7h-3.6V28.6z M14.3,21.4h3.6v17.9h-3.6V21.4z"/>
		<path class="st4" d="M41.1,5.4h-5.4V3.6c0-0.9-0.4-1.9-1-2.5s-1.6-1-2.5-1H17.9c-0.9,0-1.9,0.4-2.5,1s-1,1.6-1,2.5v1.8H8.9
			c-0.9,0-1.9,0.4-2.5,1c-0.7,0.7-1,1.6-1,2.5v37.5c0,0.9,0.4,1.9,1,2.5c0.7,0.7,1.6,1,2.5,1h32.1c0.9,0,1.9-0.4,2.5-1
			c0.7-0.7,1-1.6,1-2.5V8.9c0-0.9-0.4-1.9-1-2.5C42.9,5.7,42,5.4,41.1,5.4z M17.9,3.6h14.3v7.1H17.9V3.6z M41.1,46.4H8.9V8.9h5.4
			v5.4h21.4V8.9h5.4V46.4z"/>
	</g>
</g>
<g id="Layer_5">
	<g>
		<path class="st4" d="M43.5,21.9c0.7,0,1.3,0.1,1.9,0.4c0.6,0.2,1.1,0.6,1.6,1c0.5,0.4,0.8,0.9,1,1.5c0.2,0.6,0.4,1.2,0.4,1.9
			c0,0.6-0.1,1.3-0.4,1.9c-0.2,0.6-0.6,1.1-1,1.6L29.5,47.6l-9.2,2.3l2.3-9.2l17.5-17.5c0.5-0.5,1-0.8,1.6-1
			C42.3,22,42.9,21.9,43.5,21.9z M45.3,26.7c0-0.5-0.2-0.9-0.5-1.2c-0.3-0.3-0.7-0.5-1.3-0.5c-0.2,0-0.4,0-0.7,0.1
			c-0.2,0.1-0.4,0.2-0.6,0.4L25.4,42.3l-0.8,3.3l3.3-0.8L44.8,28C45.1,27.6,45.3,27.2,45.3,26.7z M4.7,3.1v43.7H17L16.3,50H1.6V0
			h27.2l13.4,13.4v4.7c-0.6,0.1-1.1,0.2-1.6,0.4c-0.5,0.2-1,0.4-1.5,0.8v-3.6H26.6V3.1H4.7z M29.7,5.4v7.1h7.1L29.7,5.4z M32.8,21.9
			V25H11v-3.1H32.8z M11,37.5v-3.1h12.5l-3.1,3.1H11z M29.7,28.1l-3.1,3.1H11v-3.1H29.7z"/>
	</g>
</g>
</svg>
