<?xml version="1.0" encoding="utf-8"?>
<!-- Generator: Adobe Illustrator 24.0.1, SVG Export Plug-In . SVG Version: 6.00 Build 0)  -->
<svg version="1.1" xmlns="http://www.w3.org/2000/svg" xmlns:xlink="http://www.w3.org/1999/xlink" x="0px" y="0px"
	 viewBox="0 0 26 26" style="enable-background:new 0 0 26 26;" xml:space="preserve">
<style type="text/css">
	.st0{display:none;}
	.st1{display:inline;fill:#55849B;}
	.st2{fill:#55849B;}
	.st3{display:inline;fill-rule:evenodd;clip-rule:evenodd;fill:#55849B;}
</style>
<g id="Layer_1" class="st0">
	<path class="st1" d="M19.9,9.4v4.8c0,0.2-0.1,0.5-0.2,0.6c-0.1,0.2-0.3,0.3-0.5,0.3H8.7l1.8,2.1c0.1,0.1,0.1,0.2,0.2,0.3
		c0,0.1,0.1,0.2,0.1,0.4c0,0.1,0,0.2-0.1,0.4c0,0.1-0.1,0.2-0.2,0.3c-0.1,0.1-0.2,0.2-0.3,0.2c-0.1,0-0.2,0.1-0.3,0.1
		c-0.1,0-0.2,0-0.3-0.1c-0.1,0-0.2-0.1-0.2-0.2l-3.1-3.6c-0.1-0.2-0.2-0.4-0.2-0.6c0-0.2,0.1-0.5,0.2-0.6l3.1-3.6
		c0.1-0.2,0.3-0.2,0.5-0.2c0.2,0,0.4,0.1,0.5,0.3c0.1,0.2,0.2,0.4,0.2,0.6c0,0.2-0.1,0.5-0.2,0.6l-1.8,2.1h9.6V9.4
		c0-0.2,0.1-0.5,0.2-0.6c0.1-0.2,0.3-0.3,0.5-0.3c0.2,0,0.4,0.1,0.5,0.3C19.8,8.9,19.9,9.1,19.9,9.4z M26,2.1v21.8
		c0,0.6-0.2,1.1-0.5,1.5c-0.3,0.4-0.8,0.6-1.3,0.6H1.8c-0.5,0-0.9-0.2-1.3-0.6C0.2,25,0,24.4,0,23.9V2.1C0,1.6,0.2,1,0.5,0.6
		S1.3,0,1.8,0h22.4c0.5,0,0.9,0.2,1.3,0.6S26,1.6,26,2.1z M24.5,2.1c0-0.1,0-0.2-0.1-0.2c0-0.1-0.1-0.1-0.2-0.1H1.8
		c-0.1,0-0.1,0-0.2,0.1C1.6,2,1.5,2,1.5,2.1v21.8c0,0.1,0,0.2,0.1,0.2c0,0.1,0.1,0.1,0.2,0.1h22.4c0.1,0,0.1,0,0.2-0.1
		c0-0.1,0.1-0.1,0.1-0.2V2.1z"/>
</g>
<g id="Layer_2">
	<path class="st2" d="M22.6,11.4c0.4,0,0.7,0.1,1,0.2c0.3,0.1,0.6,0.3,0.8,0.5c0.2,0.2,0.4,0.5,0.5,0.8c0.1,0.3,0.2,0.6,0.2,1
		c0,0.3-0.1,0.7-0.2,1c-0.1,0.3-0.3,0.6-0.5,0.8l-9.1,9.1L10.6,26l1.2-4.8l9.1-9.1c0.2-0.2,0.5-0.4,0.8-0.5
		C22,11.4,22.3,11.4,22.6,11.4z M23.6,13.9c0-0.3-0.1-0.5-0.3-0.6c-0.2-0.2-0.4-0.2-0.7-0.2c-0.1,0-0.2,0-0.3,0.1
		c-0.1,0-0.2,0.1-0.3,0.2L13.2,22l-0.4,1.7l1.7-0.4l8.8-8.8C23.5,14.4,23.6,14.1,23.6,13.9z M2.4,1.6v22.8h6.4L8.5,26H0.8V0H15l7,7
		v2.4c-0.3,0-0.6,0.1-0.8,0.2c-0.2,0.1-0.5,0.2-0.8,0.4V8.1h-6.5V1.6H2.4z M15.4,2.8v3.7h3.7L15.4,2.8z M17.1,11.4V13H5.7v-1.6H17.1
		z M5.7,19.5v-1.6h6.5l-1.6,1.6H5.7z M15.5,14.6l-1.6,1.6H5.7v-1.6H15.5z"/>
</g>
<g id="Layer_3" class="st0">
	<path class="st3" d="M3.6,0L3.6,0C3,0,2.6,0,2.3,0.1c-0.5,0.1-1,0.4-1.4,0.8C0.5,1.3,0.2,1.8,0.1,2.3C0,2.6,0,3,0,3.5v5
		C0,9,0,9.4,0.1,9.7c0.1,0.5,0.4,1,0.8,1.4c0.4,0.4,0.9,0.7,1.4,0.8C2.6,12,3,12,3.5,12h5c0.5,0,0.9,0,1.2-0.1
		c0.5-0.1,1-0.4,1.4-0.8c0.4-0.4,0.7-0.9,0.8-1.4C12,9.4,12,9,12,8.5v-5c0-0.5,0-0.9-0.1-1.2c-0.1-0.5-0.4-1-0.8-1.4
		c-0.4-0.4-0.9-0.7-1.4-0.8C9.4,0,9,0,8.5,0H3.6z M2.8,2C2.9,2,3,2,3.6,2h4.8C9,2,9.1,2,9.2,2c0.2,0,0.3,0.1,0.5,0.3
		C9.8,2.4,9.9,2.6,10,2.8c0,0.1,0,0.2,0,0.8v4.8c0,0.6,0,0.7,0,0.8c0,0.2-0.1,0.3-0.3,0.5C9.6,9.8,9.4,9.9,9.2,10
		c-0.1,0-0.2,0-0.8,0H3.6c-0.6,0-0.7,0-0.8,0c-0.2,0-0.3-0.1-0.5-0.3C2.2,9.6,2.1,9.4,2,9.2C2,9.1,2,9,2,8.4V3.6C2,3,2,2.9,2,2.8
		c0-0.2,0.1-0.3,0.3-0.5C2.4,2.2,2.6,2.1,2.8,2L2.8,2z M17.6,0L17.6,0c-0.6,0-1,0-1.3,0.1c-0.5,0.1-1,0.4-1.4,0.8
		c-0.4,0.4-0.7,0.9-0.8,1.4C14,2.6,14,3,14,3.5v5c0,0.5,0,0.9,0.1,1.2c0.1,0.5,0.4,1,0.8,1.4c0.4,0.4,0.9,0.7,1.4,0.8
		C16.6,12,17,12,17.5,12h5c0.5,0,0.9,0,1.2-0.1c0.5-0.1,1-0.4,1.4-0.8c0.4-0.4,0.7-0.9,0.8-1.4C26,9.4,26,9,26,8.5v-5
		c0-0.5,0-0.9-0.1-1.2c-0.1-0.5-0.4-1-0.8-1.4c-0.4-0.4-0.9-0.7-1.4-0.8C23.4,0,23,0,22.5,0H17.6z M16.8,2c0.1,0,0.2,0,0.8,0h4.8
		c0.6,0,0.7,0,0.8,0c0.2,0,0.3,0.1,0.5,0.3c0.1,0.1,0.2,0.3,0.3,0.5c0,0.1,0,0.2,0,0.8v4.8c0,0.6,0,0.7,0,0.8c0,0.2-0.1,0.3-0.3,0.5
		s-0.3,0.2-0.5,0.3c-0.1,0-0.2,0-0.8,0h-4.8c-0.6,0-0.7,0-0.8,0c-0.2,0-0.3-0.1-0.5-0.3c-0.1-0.1-0.2-0.3-0.3-0.5c0-0.1,0-0.2,0-0.8
		V3.6c0-0.6,0-0.7,0-0.8c0-0.2,0.1-0.3,0.3-0.5C16.4,2.2,16.6,2.1,16.8,2L16.8,2z M3.5,14h5c0.5,0,0.9,0,1.2,0.1
		c0.5,0.1,1,0.4,1.4,0.8c0.4,0.4,0.7,0.9,0.8,1.4C12,16.6,12,17,12,17.5v5c0,0.5,0,0.9-0.1,1.2c-0.1,0.5-0.4,1-0.8,1.4
		c-0.4,0.4-0.9,0.7-1.4,0.8C9.4,26,9,26,8.5,26h-5c-0.5,0-0.9,0-1.2-0.1c-0.5-0.1-1-0.4-1.4-0.8c-0.4-0.4-0.7-0.9-0.8-1.4
		C0,23.4,0,23,0,22.5v-5c0-0.5,0-0.9,0.1-1.2c0.1-0.5,0.4-1,0.8-1.4c0.4-0.4,0.9-0.7,1.4-0.8C2.6,14,3,14,3.5,14z M3.6,16
		c-0.6,0-0.7,0-0.8,0c-0.2,0-0.3,0.1-0.5,0.3c-0.1,0.1-0.2,0.3-0.3,0.5c0,0.1,0,0.2,0,0.8v4.8c0,0.6,0,0.7,0,0.8
		c0,0.2,0.1,0.3,0.3,0.5c0.1,0.1,0.3,0.2,0.5,0.3c0.1,0,0.2,0,0.8,0h4.8c0.6,0,0.7,0,0.8,0c0.2,0,0.3-0.1,0.5-0.3
		c0.1-0.1,0.2-0.3,0.3-0.5c0-0.1,0-0.2,0-0.8v-4.8c0-0.6,0-0.7,0-0.8c0-0.2-0.1-0.3-0.3-0.5c-0.1-0.1-0.3-0.2-0.5-0.3
		c-0.1,0-0.2,0-0.8,0H3.6z M17.6,14L17.6,14c-0.6,0-1,0-1.3,0.1c-0.5,0.1-1,0.4-1.4,0.8c-0.4,0.4-0.7,0.9-0.8,1.4
		C14,16.6,14,17,14,17.5v5c0,0.5,0,0.9,0.1,1.2c0.1,0.5,0.4,1,0.8,1.4c0.4,0.4,0.9,0.7,1.4,0.8C16.6,26,17,26,17.5,26h5
		c0.5,0,0.9,0,1.2-0.1c0.5-0.1,1-0.4,1.4-0.8c0.4-0.4,0.7-0.9,0.8-1.4C26,23.4,26,23,26,22.5v-5c0-0.5,0-0.9-0.1-1.2
		c-0.1-0.5-0.4-1-0.8-1.4c-0.4-0.4-0.9-0.7-1.4-0.8C23.4,14,23,14,22.5,14H17.6z M16.8,16c0.1,0,0.2,0,0.8,0h4.8c0.6,0,0.7,0,0.8,0
		c0.2,0,0.3,0.1,0.5,0.3c0.1,0.1,0.2,0.3,0.3,0.5c0,0.1,0,0.2,0,0.8v4.8c0,0.6,0,0.7,0,0.8c0,0.2-0.1,0.3-0.3,0.5s-0.3,0.2-0.5,0.3
		c-0.1,0-0.2,0-0.8,0h-4.8c-0.6,0-0.7,0-0.8,0c-0.2,0-0.3-0.1-0.5-0.3c-0.1-0.1-0.2-0.3-0.3-0.5c0-0.1,0-0.2,0-0.8v-4.8
		c0-0.6,0-0.7,0-0.8c0-0.2,0.1-0.3,0.3-0.5C16.4,16.2,16.6,16.1,16.8,16L16.8,16z"/>
</g>
<g id="Layer_4" class="st0">
	<path class="st1" d="M12,16.7h1.9v3.7H12V16.7z M16.6,14.9h1.9v5.6h-1.9V14.9z M7.3,11.1h1.9v9.3H7.3V11.1z"/>
	<path class="st1" d="M21.3,2.8h-2.8V1.9c0-0.5-0.2-1-0.5-1.3S17.1,0,16.6,0H9.2c-0.5,0-1,0.2-1.3,0.5C7.5,0.9,7.3,1.4,7.3,1.9v0.9
		H4.6c-0.5,0-1,0.2-1.3,0.5C2.9,3.7,2.7,4.2,2.7,4.6v19.5c0,0.5,0.2,1,0.5,1.3S4.1,26,4.6,26h16.7c0.5,0,1-0.2,1.3-0.5
		s0.5-0.8,0.5-1.3V4.6c0-0.5-0.2-1-0.5-1.3C22.2,3,21.8,2.8,21.3,2.8z M9.2,1.9h7.4v3.7H9.2V1.9z M21.3,24.1H4.6V4.6h2.8v2.8h11.1
		V4.6h2.8V24.1z"/>
</g>
</svg>
