<svg width="24" height="24" viewBox="0 0 24 24" fill="none" xmlns="http://www.w3.org/2000/svg">
<path d="M16.8 2.3999H7.20005C6.56353 2.3999 5.95308 2.65276 5.50299 3.10285C5.05291 3.55293 4.80005 4.16338 4.80005 4.7999V19.1999C4.80005 19.8364 5.05291 20.4469 5.50299 20.897C5.95308 21.347 6.56353 21.5999 7.20005 21.5999H12.3084C12.0028 21.2297 11.7385 20.8274 11.52 20.3999H7.20005C6.88179 20.3999 6.57656 20.2735 6.35152 20.0484C6.12648 19.8234 6.00005 19.5182 6.00005 19.1999V4.7999C6.00005 4.48164 6.12648 4.17642 6.35152 3.95137C6.57656 3.72633 6.88179 3.5999 7.20005 3.5999H16.8C17.1183 3.5999 17.4235 3.72633 17.6486 3.95137C17.8736 4.17642 18 4.48164 18 4.7999V10.8263C18.406 10.8631 18.8078 10.9374 19.2 11.0483V4.7999C19.2 4.16338 18.9472 3.55293 18.4971 3.10285C18.047 2.65276 17.4366 2.3999 16.8 2.3999ZM15.6 7.7999C15.6001 7.94033 15.5509 8.07633 15.461 8.18421C15.3711 8.2921 15.2462 8.36503 15.108 8.3903L15 8.3999H9.00005C8.85011 8.40018 8.70551 8.34431 8.59471 8.24329C8.48391 8.14228 8.41495 8.00344 8.4014 7.85412C8.38785 7.70479 8.4307 7.55581 8.52151 7.4365C8.61232 7.3172 8.74451 7.23622 8.89205 7.2095L9.00005 7.1999H15C15.1592 7.1999 15.3118 7.26312 15.4243 7.37564C15.5368 7.48816 15.6 7.64077 15.6 7.7999ZM9.00005 11.9999H13.6044C13.1208 12.3407 12.684 12.7439 12.3084 13.1999H9.00005C8.84092 13.1999 8.68831 13.1367 8.57578 13.0242C8.46326 12.9116 8.40005 12.759 8.40005 12.5999C8.40005 12.4408 8.46326 12.2882 8.57578 12.1756C8.68831 12.0631 8.84092 11.9999 9.00005 11.9999Z" fill="#FF8C00"/>
<path d="M14.4988 18.25C14.6717 18.25 14.8194 18.1894 14.9419 18.0681C15.064 17.9469 15.125 17.7996 15.125 17.6262C15.125 17.4533 15.0644 17.3056 14.9431 17.1831C14.8219 17.061 14.6746 17 14.5012 17C14.3283 17 14.1806 17.0606 14.0581 17.1819C13.936 17.3031 13.875 17.4504 13.875 17.6238C13.875 17.7967 13.9356 17.9444 14.0569 18.0669C14.1781 18.189 14.3254 18.25 14.4988 18.25ZM17.6238 18.25C17.7967 18.25 17.9444 18.1894 18.0669 18.0681C18.189 17.9469 18.25 17.7996 18.25 17.6262C18.25 17.4533 18.1894 17.3056 18.0681 17.1831C17.9469 17.061 17.7996 17 17.6262 17C17.4533 17 17.3056 17.0606 17.1831 17.1819C17.061 17.3031 17 17.4504 17 17.6238C17 17.7967 17.0606 17.9444 17.1819 18.0669C17.3031 18.189 17.4504 18.25 17.6238 18.25ZM20.7487 18.25C20.9217 18.25 21.0694 18.1894 21.1919 18.0681C21.314 17.9469 21.375 17.7996 21.375 17.6262C21.375 17.4533 21.3144 17.3056 21.1931 17.1831C21.0719 17.061 20.9246 17 20.7513 17C20.5783 17 20.4306 17.0606 20.3081 17.1819C20.186 17.3031 20.125 17.4504 20.125 17.6238C20.125 17.7967 20.1856 17.9444 20.3069 18.0669C20.4281 18.189 20.5754 18.25 20.7487 18.25ZM17.6269 23.25C16.8494 23.25 16.1181 23.1025 15.4331 22.8075C14.7485 22.5121 14.1529 22.1113 13.6462 21.605C13.1396 21.0992 12.7385 20.5042 12.4431 19.82C12.1477 19.1358 12 18.4048 12 17.6269C12 16.8494 12.1475 16.1181 12.4425 15.4331C12.7379 14.7485 13.1387 14.1529 13.645 13.6462C14.1508 13.1396 14.7458 12.7385 15.43 12.4431C16.1142 12.1477 16.8452 12 17.6231 12C18.4006 12 19.1319 12.1475 19.8169 12.4425C20.5015 12.7379 21.0971 13.1387 21.6037 13.645C22.1104 14.1508 22.5115 14.7458 22.8069 15.43C23.1023 16.1142 23.25 16.8452 23.25 17.6231C23.25 18.4006 23.1025 19.1319 22.8075 19.8169C22.5121 20.5015 22.1113 21.0971 21.605 21.6037C21.0992 22.1104 20.5042 22.5115 19.82 22.8069C19.1358 23.1023 18.4048 23.25 17.6269 23.25Z" fill="#FF8C00"/>
</svg>
