<svg width="24" height="24" viewBox="0 0 24 24" fill="none" xmlns="http://www.w3.org/2000/svg">
<path d="M16.8 2.3999H7.20005C6.56353 2.3999 5.95308 2.65276 5.50299 3.10285C5.05291 3.55293 4.80005 4.16338 4.80005 4.7999V19.1999C4.80005 19.8364 5.05291 20.4469 5.50299 20.897C5.95308 21.347 6.56353 21.5999 7.20005 21.5999H12.3084C12.0028 21.2297 11.7385 20.8274 11.52 20.3999H7.20005C6.88179 20.3999 6.57656 20.2735 6.35152 20.0484C6.12648 19.8234 6.00005 19.5182 6.00005 19.1999V4.7999C6.00005 4.48164 6.12648 4.17642 6.35152 3.95137C6.57656 3.72633 6.88179 3.5999 7.20005 3.5999H16.8C17.1183 3.5999 17.4235 3.72633 17.6486 3.95137C17.8736 4.17642 18 4.48164 18 4.7999V10.8263C18.406 10.8631 18.8078 10.9374 19.2 11.0483V4.7999C19.2 4.16338 18.9472 3.55293 18.4971 3.10285C18.047 2.65276 17.4366 2.3999 16.8 2.3999ZM15.6 7.7999C15.6001 7.94033 15.5509 8.07633 15.461 8.18421C15.3711 8.2921 15.2462 8.36503 15.108 8.3903L15 8.3999H9.00005C8.85011 8.40018 8.70551 8.34431 8.59471 8.24329C8.48391 8.14228 8.41495 8.00344 8.4014 7.85412C8.38785 7.70479 8.4307 7.55581 8.52151 7.4365C8.61232 7.3172 8.74451 7.23622 8.89205 7.2095L9.00005 7.1999H15C15.1592 7.1999 15.3118 7.26312 15.4243 7.37564C15.5368 7.48816 15.6 7.64077 15.6 7.7999ZM9.00005 11.9999H13.6044C13.1208 12.3407 12.684 12.7439 12.3084 13.1999H9.00005C8.84092 13.1999 8.68831 13.1367 8.57578 13.0242C8.46326 12.9116 8.40005 12.759 8.40005 12.5999C8.40005 12.4408 8.46326 12.2882 8.57578 12.1756C8.68831 12.0631 8.84092 11.9999 9.00005 11.9999Z" fill="#E27E05"/>
<path fill-rule="evenodd" clip-rule="evenodd" d="M12 17.69C12 14.5474 14.5474 12 17.69 12C20.8326 12 23.38 14.5474 23.38 17.69C23.38 20.8326 20.8326 23.38 17.69 23.38C14.5474 23.38 12 20.8326 12 17.69ZM17.69 15.5015C17.8061 15.5015 17.9174 15.5477 17.9995 15.6297C18.0816 15.7118 18.1277 15.8231 18.1277 15.9392V18.1277C18.1277 18.2438 18.0816 18.3551 17.9995 18.4372C17.9174 18.5193 17.8061 18.5654 17.69 18.5654C17.5739 18.5654 17.4626 18.5193 17.3805 18.4372C17.2984 18.3551 17.2523 18.2438 17.2523 18.1277V15.9392C17.2523 15.8231 17.2984 15.7118 17.3805 15.6297C17.4626 15.5477 17.5739 15.5015 17.69 15.5015ZM17.69 20.3162C17.8061 20.3162 17.9174 20.27 17.9995 20.188C18.0816 20.1059 18.1277 19.9945 18.1277 19.8785C18.1277 19.7624 18.0816 19.651 17.9995 19.569C17.9174 19.4869 17.8061 19.4408 17.69 19.4408C17.5739 19.4408 17.4626 19.4869 17.3805 19.569C17.2984 19.651 17.2523 19.7624 17.2523 19.8785C17.2523 19.9945 17.2984 20.1059 17.3805 20.188C17.4626 20.27 17.5739 20.3162 17.69 20.3162Z" fill="#E27E05"/>
</svg>
