<svg width="20" height="25" viewBox="0 0 20 25" fill="none" xmlns="http://www.w3.org/2000/svg">
<path d="M18.64 3.2925L0.983975 11.07C0.699975 11.195 0.636975 11.5012 0.973975 11.6687L4.76998 13.57L7.01998 14.6962L18.004 4.61375C18.152 4.47875 18.322 4.7325 18.215 4.8775L10.344 15.5187V15.5212L9.89198 16.15L10.491 16.5525L15.473 19.905C15.764 20.1 16.141 19.9387 16.225 19.4875L19.131 3.83125C19.21 3.4025 18.983 3.14125 18.64 3.2925ZM6.99998 21.4525C6.99998 21.76 7.13898 21.8462 7.33098 21.6287C7.58197 21.3425 10.181 18.4275 10.181 18.4275L6.99998 16.3725V21.4525Z" fill="#CCDAE1"/>
</svg>
