<?xml version="1.0" encoding="utf-8"?>
<!-- Generator: Adobe Illustrator 24.0.1, SVG Export Plug-In . SVG Version: 6.00 Build 0)  -->
<svg version="1.1" xmlns="http://www.w3.org/2000/svg" xmlns:xlink="http://www.w3.org/1999/xlink" x="0px" y="0px"
	 viewBox="0 0 50 50" style="enable-background:new 0 0 50 50;" xml:space="preserve">
<style type="text/css">
	.st0{fill:#55849B;}
	.st1{display:none;}
	.st2{display:inline;fill:#55849B;}
</style>
<g id="Layer_1">
	<g>
		<path class="st0" d="M23.2,32.1h3.6v7.1h-3.6V32.1z M32.1,28.6h3.6v10.7h-3.6V28.6z M14.3,21.4h3.6v17.9h-3.6V21.4z"/>
		<path class="st0" d="M41.1,5.4h-5.4V3.6c0-0.9-0.4-1.9-1-2.5s-1.6-1-2.5-1H17.9c-0.9,0-1.9,0.4-2.5,1s-1,1.6-1,2.5v1.8H8.9
			c-0.9,0-1.9,0.4-2.5,1c-0.7,0.7-1,1.6-1,2.5v37.5c0,0.9,0.4,1.9,1,2.5c0.7,0.7,1.6,1,2.5,1h32.1c0.9,0,1.9-0.4,2.5-1
			c0.7-0.7,1-1.6,1-2.5V8.9c0-0.9-0.4-1.9-1-2.5C42.9,5.7,42,5.4,41.1,5.4z M17.9,3.6h14.3v7.1H17.9V3.6z M41.1,46.4H8.9V8.9h5.4
			v5.4h21.4V8.9h5.4V46.4z"/>
	</g>
</g>
<g id="Layer_2" class="st1">
	<path class="st2" d="M38.2,18v9.3c0,0.5-0.2,0.9-0.4,1.2c-0.3,0.3-0.6,0.5-1,0.5h-20l3.4,4c0.1,0.2,0.3,0.4,0.3,0.6
		c0.1,0.2,0.1,0.4,0.1,0.7c0,0.2,0,0.5-0.1,0.7c-0.1,0.2-0.2,0.4-0.3,0.6c-0.1,0.2-0.3,0.3-0.5,0.4c-0.2,0.1-0.4,0.1-0.6,0.1
		c-0.2,0-0.4-0.1-0.6-0.2c-0.2-0.1-0.3-0.2-0.5-0.4l-5.9-7c-0.3-0.3-0.4-0.8-0.4-1.2c0-0.5,0.2-0.9,0.4-1.2l5.9-7
		c0.3-0.3,0.6-0.5,1-0.5c0.4,0,0.7,0.2,1,0.5c0.3,0.3,0.4,0.8,0.4,1.2c0,0.5-0.1,0.9-0.4,1.2l-3.4,4h18.5V18c0-0.5,0.2-0.9,0.4-1.2
		c0.3-0.3,0.6-0.5,1-0.5s0.8,0.2,1,0.5C38.1,17.1,38.2,17.6,38.2,18z M50,4.1v41.9c0,1.1-0.4,2.1-1,2.9c-0.6,0.8-1.5,1.2-2.4,1.2
		H3.4c-0.9,0-1.8-0.4-2.4-1.2C0.4,48,0,47,0,45.9V4.1C0,3,0.4,2,1,1.2S2.5,0,3.4,0h43.1c0.9,0,1.8,0.4,2.4,1.2S50,3,50,4.1z
		 M47.1,4.1c0-0.2-0.1-0.3-0.1-0.4c-0.1-0.1-0.2-0.2-0.3-0.2H3.4c-0.1,0-0.3,0.1-0.3,0.2C3,3.8,2.9,3.9,2.9,4.1v41.9
		c0,0.2,0.1,0.3,0.1,0.4c0.1,0.1,0.2,0.2,0.3,0.2h43.1c0.1,0,0.3-0.1,0.3-0.2c0.1-0.1,0.1-0.3,0.1-0.4V4.1z"/>
</g>
</svg>
