<svg width="19" height="19" viewBox="0 0 19 19" fill="none" xmlns="http://www.w3.org/2000/svg">
<path d="M19 1.54651V17.4535C19 17.8636 18.8626 18.257 18.6181 18.547C18.3736 18.8371 18.0419 19 17.6961 19H1.30392C0.9581 19 0.626443 18.8371 0.38191 18.547C0.137377 18.257 0 17.8636 0 17.4535V1.54651C0 1.13635 0.137377 0.74299 0.38191 0.452963C0.626443 0.162936 0.9581 0 1.30392 0H17.6961C18.0419 0 18.3736 0.162936 18.6181 0.452963C18.8626 0.74299 19 1.13635 19 1.54651ZM17.8824 1.54651C17.8824 1.48792 17.8627 1.43172 17.8278 1.39029C17.7929 1.34886 17.7455 1.32558 17.6961 1.32558H1.30392C1.25452 1.32558 1.20714 1.34886 1.17221 1.39029C1.13727 1.43172 1.11765 1.48792 1.11765 1.54651V17.4535C1.11765 17.5121 1.13727 17.5683 1.17221 17.6097C1.20714 17.6511 1.25452 17.6744 1.30392 17.6744H17.6961C17.7455 17.6744 17.7929 17.6511 17.8278 17.6097C17.8627 17.5683 17.8824 17.5121 17.8824 17.4535V1.54651Z" fill="#55849B"/>
<path d="M13.4135 5.60971C12.3962 4.58099 11.019 4.00343 9.58341 4.00343C8.14778 4.00343 6.77061 4.58099 5.75331 5.60971L4.97047 6.40471V4.49277C4.97047 4.36208 4.91934 4.23674 4.82834 4.14433C4.73735 4.05192 4.61392 4 4.48523 4C4.35654 4 4.23312 4.05192 4.14212 4.14433C4.05112 4.23674 4 4.36208 4 4.49277V7.60706C3.99999 7.73837 4.0509 7.86439 4.14172 7.95785C4.23254 8.0513 4.35595 8.10468 4.48523 8.1064H7.55837C7.68707 8.1064 7.81049 8.05449 7.90149 7.96207C7.99248 7.86966 8.04361 7.74433 8.04361 7.61363C8.04361 7.48294 7.99248 7.35761 7.90149 7.26519C7.81049 7.17278 7.68707 7.12087 7.55837 7.12087H5.61744L6.4391 6.30616C7.27361 5.4604 8.40443 4.9854 9.58341 4.9854C10.7624 4.9854 11.8932 5.4604 12.7277 6.30616C16.7325 10.7016 10.7868 16.7594 6.4391 12.6924C6.34812 12.6002 6.22479 12.5483 6.09621 12.5483C5.96762 12.5483 5.84429 12.6002 5.75331 12.6924C5.70753 12.7377 5.67115 12.7919 5.6463 12.8517C5.62146 12.9115 5.60866 12.9757 5.60866 13.0407C5.60866 13.1056 5.62146 13.1698 5.6463 13.2296C5.67115 13.2894 5.70753 13.3436 5.75331 13.3889C6.76912 14.4205 8.14685 15 9.58341 15C11.02 15 12.3977 14.4205 13.4135 13.3889C14.4293 12.3573 15 10.9582 15 9.4993C15 8.04042 14.4293 6.64129 13.4135 5.60971Z" fill="#55849B"/>
<path d="M9.35637 6.44434C9.2329 6.44603 9.11493 6.49829 9.02762 6.58998C8.9403 6.68167 8.89053 6.80553 8.88892 6.93519V9.22583C8.88903 9.35597 8.93835 9.48073 9.02604 9.5727L10.6029 11.1892C10.6461 11.2351 10.6975 11.2715 10.7543 11.2962C10.811 11.3209 10.8718 11.3335 10.9333 11.3332C11.0154 11.3207 11.0928 11.2854 11.1576 11.2311C11.2224 11.1767 11.2723 11.1052 11.3021 11.0239C11.3319 10.9427 11.3406 10.8545 11.3273 10.7686C11.3139 10.6826 11.2791 10.6019 11.2262 10.5348L9.80513 9.04258V6.93519C9.80372 6.80882 9.75654 6.68775 9.67319 6.59658C9.58984 6.50541 9.47656 6.45098 9.35637 6.44434Z" fill="#55849B"/>
</svg>
