<svg width="23" height="23" viewBox="0 0 23 23" fill="none" xmlns="http://www.w3.org/2000/svg">
<path d="M5.1245 22.125C4.47837 22.125 3.93496 21.8979 3.49428 21.4438C3.05359 20.9897 2.83325 20.4297 2.83325 19.7639V16.4937H6.27013V0.875H21.1633V19.7639C21.1633 20.4297 20.9429 20.9897 20.5022 21.4438C20.0615 21.8979 19.5181 22.125 18.872 22.125H5.1245ZM18.872 20.9444C19.1966 20.9444 19.4689 20.8311 19.6888 20.6044C19.9088 20.3778 20.0184 20.0976 20.0176 19.7639V2.05556H7.41575V16.4937H17.7264V19.7639C17.7264 20.0984 17.8364 20.379 18.0563 20.6056C18.2763 20.8323 18.5482 20.9452 18.872 20.9444ZM9.00244 7.23229V6.05174H18.4309V7.23229H9.00244ZM9.00244 10.5012V9.32069H18.4309V10.5012H9.00244ZM5.1245 20.9444H16.5808V17.6743H3.97888V19.7639C3.97888 20.0984 4.08886 20.379 4.30882 20.6056C4.52878 20.8323 4.80067 20.9452 5.1245 20.9444ZM5.1245 20.9444H3.97888H16.5808H5.1245Z" fill="#55849B"/>
</svg>
