<svg width="24" height="24" viewBox="0 0 24 24" fill="none" xmlns="http://www.w3.org/2000/svg">
<path fill-rule="evenodd" clip-rule="evenodd" d="M12.7795 17.3958C12.8825 17.2417 12.9375 17.0604 12.9375 16.875C12.9375 16.6264 12.8387 16.3879 12.6629 16.2121C12.4871 16.0363 12.2486 15.9375 12 15.9375C11.8146 15.9375 11.6333 15.9925 11.4792 16.0955C11.325 16.1985 11.2048 16.3449 11.1339 16.5162C11.0629 16.6875 11.0443 16.876 11.0805 17.0579C11.1167 17.2398 11.206 17.4068 11.3371 17.5379C11.4682 17.669 11.6353 17.7583 11.8171 17.7945C11.999 17.8307 12.1875 17.8121 12.3588 17.7411C12.5301 17.6702 12.6765 17.55 12.7795 17.3958ZM8.4375 10.125C8.4375 8.36719 10.0313 6.9375 12 6.9375C13.9688 6.9375 15.5625 8.36719 15.5625 10.125C15.5625 11.7113 14.2603 13.0312 12.5625 13.2731V13.5C12.5625 13.6492 12.5032 13.7923 12.3978 13.8977C12.2923 14.0032 12.1492 14.0625 12 14.0625C11.8508 14.0625 11.7077 14.0032 11.6023 13.8977C11.4968 13.7923 11.4375 13.6492 11.4375 13.5V12.75C11.4375 12.6008 11.4968 12.4577 11.6023 12.3523C11.7077 12.2468 11.8508 12.1875 12 12.1875C13.3444 12.1875 14.4375 11.2622 14.4375 10.125C14.4375 8.98781 13.3444 8.0625 12 8.0625C10.6556 8.0625 9.5625 8.98781 9.5625 10.125V10.5C9.5625 10.6492 9.50324 10.7923 9.39775 10.8977C9.29226 11.0032 9.14919 11.0625 9 11.0625C8.85082 11.0625 8.70775 11.0032 8.60226 10.8977C8.49677 10.7923 8.4375 10.6492 8.4375 10.5V10.125ZM21.5625 12C21.5595 9.46478 20.5511 7.03425 18.7584 5.24158C16.9658 3.44891 14.5352 2.44048 12 2.4375C10.1087 2.4375 8.25991 2.99833 6.68736 4.04907C5.11482 5.09981 3.88917 6.59327 3.16541 8.34059C2.44164 10.0879 2.25227 12.0106 2.62125 13.8656C2.99022 15.7205 3.90096 17.4244 5.2383 18.7617C6.57564 20.099 8.27951 21.0098 10.1345 21.3788C11.9894 21.7477 13.9121 21.5584 15.6594 20.8346C16.41 20.5237 17.1137 20.1202 17.7556 19.6364H15.5813C14.4711 20.1577 13.2499 20.4361 12 20.4375C10.3312 20.4375 8.69992 19.9426 7.31238 19.0155C5.92484 18.0884 4.84338 16.7706 4.20477 15.2289C3.56616 13.6871 3.39907 11.9906 3.72463 10.3539C4.05019 8.71721 4.85379 7.21379 6.03379 6.03379C7.2138 4.85378 8.71722 4.05019 10.3539 3.72462C11.9906 3.39906 13.6871 3.56615 15.2289 4.20477C16.7706 4.84338 18.0884 5.92484 19.0155 7.31238C19.9427 8.69992 20.4375 10.3312 20.4375 12H21.5625Z" fill="#55849B"/>
<path d="M22.8402 15.2481L21.9966 14.9905C21.9362 14.7839 21.8542 14.5843 21.7519 14.395L22.1737 13.6094C22.1874 13.578 22.1907 13.543 22.1832 13.5095C22.1756 13.4761 22.1575 13.446 22.1315 13.4236L21.5199 12.8112C21.4968 12.7861 21.4659 12.7695 21.4322 12.7642C21.3985 12.7588 21.3641 12.7649 21.3343 12.7816L20.5581 13.2039C20.367 13.0964 20.1648 13.01 19.9549 12.9463L19.6976 12.1016C19.6867 12.0705 19.666 12.0438 19.6386 12.0255C19.6112 12.0073 19.5786 11.9984 19.5458 12.0002H18.681C18.6478 11.9999 18.6154 12.0104 18.5887 12.0302C18.5621 12.0501 18.5426 12.0781 18.5334 12.1101L18.2761 12.9548C18.0648 13.0163 17.8611 13.1013 17.6687 13.2082L16.9009 12.7858C16.8718 12.7695 16.838 12.7635 16.8051 12.7689C16.7722 12.7743 16.742 12.7907 16.7196 12.8154L16.0953 13.4236C16.0721 13.448 16.0572 13.4791 16.0527 13.5124C16.0481 13.5457 16.0542 13.5797 16.07 13.6094L16.4918 14.3781C16.3802 14.5685 16.291 14.7711 16.226 14.982L15.3824 15.2355C15.3505 15.2447 15.3225 15.2642 15.3027 15.2909C15.2829 15.3176 15.2723 15.35 15.2727 15.3833V16.2491C15.2752 16.2796 15.2871 16.3086 15.3067 16.332C15.3264 16.3555 15.3528 16.3723 15.3824 16.38L16.226 16.6377C16.2884 16.8448 16.3732 17.0445 16.4791 17.2332L16.0573 18.0399C16.0412 18.0688 16.035 18.1022 16.0395 18.1349C16.0441 18.1677 16.0592 18.1981 16.0826 18.2215L16.6943 18.8339C16.7181 18.8578 16.7489 18.8735 16.7823 18.8788C16.8156 18.8841 16.8497 18.8787 16.8799 18.8635L17.6687 18.4411C17.8564 18.5422 18.0544 18.6229 18.2592 18.6819L18.5123 19.5266C18.5227 19.5578 18.5424 19.5851 18.5688 19.6048C18.5952 19.6244 18.6271 19.6354 18.6599 19.6364H19.5247C19.5577 19.6361 19.5898 19.6253 19.6164 19.6055C19.6429 19.5858 19.6625 19.5582 19.6723 19.5266L19.9296 18.6607C20.1318 18.6017 20.3269 18.521 20.5117 18.42L21.309 18.8423C21.3383 18.8579 21.3719 18.8635 21.4046 18.8582C21.4374 18.8528 21.4675 18.8369 21.4904 18.8128L22.1315 18.2384C22.1488 18.2136 22.158 18.1841 22.158 18.1539C22.158 18.1237 22.1488 18.0942 22.1315 18.0694L21.7097 17.2754C21.8121 17.0891 21.8941 16.8923 21.9544 16.6883L22.798 16.4307C22.8299 16.4215 22.8579 16.402 22.8777 16.3753C22.8976 16.3486 22.9081 16.3162 22.9077 16.2829V15.396C22.9116 15.3674 22.9073 15.3384 22.8953 15.3123C22.8834 15.2861 22.8643 15.2639 22.8402 15.2481ZM19.1155 17.2247C18.8365 17.2256 18.5635 17.1434 18.3312 16.9888C18.0989 16.8341 17.9176 16.6138 17.8105 16.3559C17.7033 16.0979 17.6751 15.8139 17.7293 15.5399C17.7835 15.2659 17.9178 15.0141 18.1151 14.8166C18.3124 14.6191 18.5638 14.4846 18.8375 14.4303C19.1112 14.376 19.3948 14.4043 19.6524 14.5116C19.91 14.6189 20.13 14.8004 20.2845 15.033C20.439 15.2656 20.521 15.5389 20.5202 15.8183C20.5191 16.191 20.3707 16.5481 20.1075 16.8116C19.8443 17.0751 19.4877 17.2236 19.1155 17.2247Z" fill="#55849B"/>
</svg>
