<svg width="24" height="24" viewBox="0 0 24 24" fill="none" xmlns="http://www.w3.org/2000/svg">
<path d="M1 2H23V10.25H22V3H2V17H11.5V18H1V2ZM6 20L11.5 19V21H6V20Z" fill="#55849B"/>
<path d="M17.511 19.4285L17.3978 18.2298C16.9929 18.1574 16.6483 18.0414 16.3642 17.882C16.0801 17.7226 15.8306 17.5245 15.6158 17.2877L14.4892 17.8168L13.7144 16.563L14.7278 15.8673C14.5966 15.5059 14.531 15.1663 14.531 14.8484C14.531 14.5305 14.5966 14.1913 14.7278 13.8309L13.7144 13.1352L14.5078 11.8974L15.6158 12.4105C15.8306 12.1786 16.0801 11.9843 16.3642 11.8278C16.6483 11.6713 16.9929 11.5568 17.3978 11.4843L17.511 10.2856H19.0606L19.1737 11.4843C19.5787 11.5568 19.9232 11.6713 20.2073 11.8278C20.4914 11.9834 20.7409 12.1776 20.9558 12.4105L22.0638 11.8974L22.8572 13.1352L21.8437 13.8309C21.975 14.1913 22.0406 14.5305 22.0406 14.8484C22.0406 15.1672 21.975 15.5064 21.8437 15.8659L22.8572 16.5616L22.0824 17.8168L20.9558 17.2877C20.7409 17.5254 20.4914 17.7235 20.2073 17.882C19.9232 18.0414 19.5787 18.1574 19.1737 18.2298L19.0606 19.4285H17.511ZM18.2858 17.0863C18.9573 17.0863 19.5224 16.8717 19.9811 16.4427C20.4398 16.0137 20.6691 15.4851 20.6691 14.8571C20.6691 14.229 20.4398 13.7004 19.9811 13.2714C19.5224 12.8424 18.9573 12.6279 18.2858 12.6279C17.6143 12.6279 17.0492 12.8424 16.5905 13.2714C16.1318 13.7004 15.9024 14.229 15.9024 14.8571C15.9024 15.4851 16.1318 16.0137 16.5905 16.4427C17.0492 16.8717 17.6143 17.0863 18.2858 17.0863Z" fill="#55849B"/>
<rect x="5.71436" y="5.71436" width="11.4286" height="1.14286" fill="#55849B"/>
<rect x="5.71436" y="9.14307" width="9.14286" height="1.14286" fill="#55849B"/>
<rect x="5.71436" y="12.5713" width="6.85714" height="1.14286" fill="#55849B"/>
</svg>
