<svg width="22" height="22" viewBox="0 0 22 22" fill="none" xmlns="http://www.w3.org/2000/svg">
<path d="M2.75 1.375V20.625H8.18555L7.85254 22H1.375V0H13.3525L19.25 5.89746V7.95996C18.985 7.99577 18.7487 8.04948 18.541 8.12109C18.3333 8.19271 18.1113 8.30371 17.875 8.4541V6.875H12.375V1.375H2.75ZM13.75 2.35254V5.5H16.8975L13.75 2.35254Z" fill="#55849B"/>
<path d="M16.4135 10.6097C15.3962 9.58099 14.019 9.00343 12.5834 9.00343C11.1478 9.00343 9.77061 9.58099 8.75331 10.6097L7.97047 11.4047V9.49277C7.97047 9.36208 7.91934 9.23674 7.82834 9.14433C7.73735 9.05192 7.61392 9 7.48523 9C7.35654 9 7.23312 9.05192 7.14212 9.14433C7.05112 9.23674 7 9.36208 7 9.49277V12.6071C6.99999 12.7384 7.0509 12.8644 7.14172 12.9578C7.23254 13.0513 7.35595 13.1047 7.48523 13.1064H10.5584C10.6871 13.1064 10.8105 13.0545 10.9015 12.9621C10.9925 12.8697 11.0436 12.7443 11.0436 12.6136C11.0436 12.4829 10.9925 12.3576 10.9015 12.2652C10.8105 12.1728 10.6871 12.1209 10.5584 12.1209H8.61744L9.4391 11.3062C10.2736 10.4604 11.4044 9.9854 12.5834 9.9854C13.7624 9.9854 14.8932 10.4604 15.7277 11.3062C19.7325 15.7016 13.7868 21.7594 9.4391 17.6924C9.34812 17.6002 9.22479 17.5483 9.09621 17.5483C8.96762 17.5483 8.84429 17.6002 8.75331 17.6924C8.70753 17.7377 8.67115 17.7919 8.6463 17.8517C8.62146 17.9115 8.60866 17.9757 8.60866 18.0407C8.60866 18.1056 8.62146 18.1698 8.6463 18.2296C8.67115 18.2894 8.70753 18.3436 8.75331 18.3889C9.76912 19.4205 11.1468 20 12.5834 20C14.02 20 15.3977 19.4205 16.4135 18.3889C17.4293 17.3573 18 15.9582 18 14.4993C18 13.0404 17.4293 11.6413 16.4135 10.6097Z" fill="#55849B"/>
<path d="M12.3564 11.4443C12.2329 11.446 12.1149 11.4983 12.0276 11.59C11.9403 11.6817 11.8905 11.8055 11.8889 11.9352V14.2258C11.889 14.356 11.9383 14.4807 12.026 14.5727L13.6029 16.1892C13.6461 16.2351 13.6975 16.2715 13.7543 16.2962C13.811 16.3209 13.8718 16.3335 13.9333 16.3332C14.0154 16.3207 14.0928 16.2854 14.1576 16.2311C14.2224 16.1767 14.2723 16.1052 14.3021 16.0239C14.3319 15.9427 14.3406 15.8545 14.3273 15.7686C14.3139 15.6826 14.2791 15.6019 14.2262 15.5348L12.8051 14.0426V11.9352C12.8037 11.8088 12.7565 11.6878 12.6732 11.5966C12.5898 11.5054 12.4766 11.451 12.3564 11.4443Z" fill="#55849B"/>
</svg>
