<svg width="22" height="24" viewBox="0 0 22 24" fill="none" xmlns="http://www.w3.org/2000/svg">
<path fill-rule="evenodd" clip-rule="evenodd" d="M11.7917 8.28571H16.9583V13.9614H18.25V6.92857L13.0833 1.5H3.39583C3.22455 1.5 3.06028 1.57149 2.93916 1.69875C2.81804 1.82601 2.75 1.9986 2.75 2.17857V19.8214C2.75 20.0014 2.81804 20.174 2.93916 20.3013C3.06028 20.4285 3.22455 20.5 3.39583 20.5H14.2576V19.1429H4.04167V2.85714H11.7917V8.28571ZM14.2576 15.0714V16.4286H6.625V15.0714H14.2576ZM13.0833 3.419L16.4236 6.92857H13.0833V3.419ZM14.375 11H6.625V12.3571H14.375V11ZM9.85417 6.92857H6.625V8.28571H9.85417V6.92857Z" fill="#55849B"/>
<g clip-path="url(#clip0_1719_18)">
<path d="M18.5 15C16.567 15 15 16.567 15 18.5C15 20.4331 16.567 22 18.5 22C20.4331 22 22.0001 20.4331 22.0001 18.5C22.0001 16.567 20.4331 15 18.5 15ZM18.5 21.5694C16.8114 21.5694 15.4375 20.1886 15.4375 18.5C15.4375 16.8113 16.8114 15.4375 18.5 15.4375C20.1886 15.4375 21.5626 16.8114 21.5626 18.5C21.5626 20.1886 20.1886 21.5694 18.5 21.5694ZM18.1783 20.472H18.7287V19.9166H18.1783V20.472ZM18.4935 16.5281C18.1731 16.5281 17.9091 16.6145 17.7017 16.7871C17.4943 16.9598 17.3935 17.3056 17.3986 17.5922L17.4067 17.6081H17.9087C17.9087 17.4372 17.9657 17.1915 18.0797 17.1034C18.1935 17.0153 18.3316 16.9713 18.4937 16.9713C18.6805 16.9713 18.8241 17.022 18.9248 17.1235C19.0255 17.225 19.0756 17.3701 19.0756 17.5587C19.0756 17.7172 19.0385 17.8525 18.9638 17.9646C18.8888 18.0767 18.7633 18.2369 18.5872 18.4453C18.4055 18.6091 18.2933 18.7408 18.2506 18.8405C18.2079 18.9402 18.1857 19.1192 18.184 19.3772H18.7101C18.7101 19.2153 18.7204 19.096 18.7409 19.0194C18.7612 18.943 18.8195 18.8566 18.9156 18.7604C19.1222 18.5611 19.2882 18.3662 19.4138 18.1756C19.5392 17.9852 19.602 17.7751 19.602 17.5454C19.602 17.2249 19.5051 16.9752 19.3109 16.7964C19.1167 16.6174 18.8442 16.5281 18.4935 16.5281Z" fill="#55849B"/>
</g>
<defs>
<clipPath id="clip0_1719_18">
<rect width="7" height="7" fill="white" transform="translate(15 15)"/>
</clipPath>
</defs>
</svg>
