<svg width="22" height="24" viewBox="0 0 22 24" fill="none" xmlns="http://www.w3.org/2000/svg">
<path d="M21.9369 18.9775L21.1635 18.7413C21.1082 18.5519 21.0331 18.3689 20.9393 18.1954L21.3259 17.4753C21.3385 17.4465 21.3415 17.4144 21.3346 17.3837C21.3276 17.3531 21.311 17.3255 21.2873 17.3049L20.7266 16.7436C20.7054 16.7206 20.6771 16.7054 20.6462 16.7005C20.6153 16.6956 20.5837 16.7012 20.5565 16.7165L19.845 17.1036C19.6698 17.005 19.4844 16.9258 19.292 16.8675L19.0562 16.0931C19.0462 16.0646 19.0272 16.0402 19.0021 16.0234C18.977 16.0066 18.9471 15.9985 18.917 16.0002H18.1243C18.0939 15.9999 18.0641 16.0095 18.0397 16.0277C18.0152 16.0459 17.9974 16.0716 17.989 16.1009L17.7531 16.8752C17.5594 16.9316 17.3727 17.0095 17.1963 17.1075L16.4926 16.7203C16.4659 16.7054 16.4349 16.6999 16.4047 16.7048C16.3745 16.7097 16.3469 16.7248 16.3263 16.7474L15.754 17.3049C15.7328 17.3273 15.7191 17.3558 15.715 17.3864C15.7108 17.4169 15.7164 17.448 15.7308 17.4753L16.1175 18.1799C16.0152 18.3544 15.9335 18.5402 15.8739 18.7335L15.1005 18.9658C15.0713 18.9743 15.0456 18.9921 15.0275 19.0166C15.0093 19.0411 14.9997 19.0709 15 19.1013V19.895C15.0023 19.923 15.0132 19.9495 15.0312 19.971C15.0492 19.9925 15.0734 20.0079 15.1005 20.015L15.8739 20.2512C15.931 20.4411 16.0088 20.6242 16.1059 20.7971L15.7192 21.5366C15.7045 21.563 15.6987 21.5936 15.7029 21.6237C15.7071 21.6537 15.721 21.6816 15.7424 21.703L16.3031 22.2644C16.325 22.2863 16.3532 22.3007 16.3838 22.3055C16.4143 22.3104 16.4456 22.3055 16.4732 22.2915L17.1963 21.9043C17.3684 21.997 17.5498 22.071 17.7376 22.125L17.9696 22.8993C17.9791 22.928 17.9972 22.953 18.0214 22.971C18.0457 22.989 18.0748 22.9992 18.105 23H18.8976C18.9279 22.9997 18.9574 22.9898 18.9817 22.9718C19.006 22.9537 19.024 22.9283 19.033 22.8993L19.2688 22.1057C19.4541 22.0516 19.633 21.9776 19.8024 21.885L20.5333 22.2721C20.5601 22.2864 20.5909 22.2915 20.6209 22.2866C20.651 22.2817 20.6786 22.2671 20.6995 22.245L21.2873 21.7185C21.3031 21.6958 21.3115 21.6688 21.3115 21.6411C21.3115 21.6134 21.3031 21.5864 21.2873 21.5637L20.9006 20.8358C20.9945 20.665 21.0696 20.4846 21.1249 20.2977L21.8982 20.0615C21.9275 20.053 21.9531 20.0352 21.9713 20.0107C21.9894 19.9862 21.9991 19.9565 21.9987 19.926V19.113C22.0023 19.0868 21.9983 19.0602 21.9874 19.0362C21.9764 19.0122 21.9589 18.9919 21.9369 18.9775ZM18.5226 20.7893C18.2668 20.7901 18.0166 20.7148 17.8036 20.573C17.5906 20.4312 17.4245 20.2293 17.3263 19.9929C17.2281 19.7564 17.2022 19.4961 17.2519 19.2449C17.3016 18.9937 17.4246 18.763 17.6055 18.5819C17.7863 18.4008 18.0168 18.2776 18.2677 18.2278C18.5186 18.178 18.7786 18.204 19.0147 18.3023C19.2509 18.4007 19.4525 18.567 19.5941 18.7803C19.7358 18.9935 19.8109 19.244 19.8102 19.5001C19.8092 19.8417 19.6732 20.1691 19.4319 20.4106C19.1907 20.6522 18.8638 20.7883 18.5226 20.7893Z" fill="#55849B"/>
<path fill-rule="evenodd" clip-rule="evenodd" d="M12.375 9H17.875V15.2727H19.25V7.5L13.75 1.5H3.4375C3.25516 1.5 3.0803 1.57902 2.95136 1.71967C2.82243 1.86032 2.75 2.05109 2.75 2.25V21.75C2.75 21.9489 2.82243 22.1397 2.95136 22.2803C3.0803 22.421 3.25516 22.5 3.4375 22.5H15V21H4.125V3H12.375V9ZM15 16.5V18H6.875V16.5H15ZM13.75 3.621L17.3058 7.5H13.75V3.621ZM15.125 12H6.875V13.5H15.125V12ZM10.3125 7.5H6.875V9H10.3125V7.5Z" fill="#55849B"/>
</svg>
