<svg width="25" height="26" viewBox="0 0 25 26" fill="none" xmlns="http://www.w3.org/2000/svg">
<path d="M20.8652 8.36266L15.3965 2.67516C15.3239 2.59973 15.2377 2.53992 15.1429 2.49914C15.048 2.45836 14.9464 2.43742 14.8438 2.4375H5.46875C5.05435 2.4375 4.65692 2.60871 4.3639 2.91345C4.07087 3.2182 3.90625 3.63152 3.90625 4.0625V21.9375C3.90625 22.3685 4.07087 22.7818 4.3639 23.0865C4.65692 23.3913 5.05435 23.5625 5.46875 23.5625H19.5312C19.9457 23.5625 20.3431 23.3913 20.6361 23.0865C20.9291 22.7818 21.0938 22.3685 21.0938 21.9375V8.9375C21.0938 8.83077 21.0737 8.72507 21.0345 8.62643C20.9953 8.5278 20.9378 8.43817 20.8652 8.36266ZM15.625 5.21117L18.4268 8.125H15.625V5.21117ZM19.5312 21.9375H5.46875V4.0625H14.0625V8.9375C14.0625 9.15299 14.1448 9.35965 14.2913 9.51202C14.4378 9.6644 14.6365 9.75 14.8438 9.75H19.5312V21.9375Z" fill="#55849B"/>
<path d="M16.6666 15.1668C16.6666 15.5674 16.6178 15.9511 16.5201 16.3179C16.4224 16.6846 16.2827 17.0302 16.101 17.3547C15.9192 17.6791 15.7022 17.9711 15.45 18.2306C15.1977 18.4902 14.9156 18.7159 14.6036 18.9077C14.2916 19.0996 13.9593 19.2448 13.6067 19.3436C13.254 19.4423 12.8851 19.4945 12.4999 19.5002C12.1147 19.5002 11.7458 19.4494 11.3931 19.3478C11.0405 19.2463 10.7082 19.101 10.3962 18.9119C10.0843 18.7229 9.80352 18.4972 9.55396 18.2349C9.30439 17.9725 9.08738 17.6791 8.90291 17.3547C8.71845 17.0302 8.57875 16.6846 8.48381 16.3179C8.38886 15.9511 8.33868 15.5674 8.33325 15.1668C8.33325 14.769 8.38208 14.3854 8.47974 14.0158C8.57739 13.6462 8.7171 13.3006 8.89884 12.979C9.08059 12.6574 9.29761 12.3654 9.54989 12.103C9.80216 11.8407 10.0843 11.615 10.3962 11.4259C10.7082 11.2369 11.0405 11.0916 11.3931 10.9901C11.7458 10.8885 12.1147 10.8363 12.4999 10.8335C12.8824 10.8335 13.2513 10.8843 13.6067 10.9858C13.962 11.0874 14.2944 11.2327 14.6036 11.4217C14.9128 11.6107 15.1936 11.8364 15.4459 12.0988C15.6982 12.3612 15.9152 12.6546 16.0969 12.979C16.2787 13.3034 16.4184 13.649 16.516 14.0158C16.6137 14.3825 16.6639 14.7662 16.6666 15.1668ZM12.4999 18.9585C12.8336 18.9585 13.155 18.9134 13.4643 18.8231C13.7735 18.7328 14.0638 18.6058 14.335 18.4422C14.6063 18.2786 14.8532 18.0797 15.0756 17.8455C15.298 17.6114 15.4879 17.3561 15.6453 17.0796C15.8026 16.8031 15.926 16.5012 16.0155 16.174C16.1051 15.8467 16.1485 15.511 16.1458 15.1668C16.1458 14.8198 16.1023 14.4855 16.0155 14.1639C15.9287 13.8423 15.8067 13.5404 15.6493 13.2583C15.492 12.9762 15.3008 12.7195 15.0756 12.4881C14.8505 12.2568 14.605 12.0593 14.3391 11.8957C14.0733 11.732 13.783 11.6037 13.4683 11.5106C13.1537 11.4175 12.8309 11.3723 12.4999 11.3752C12.1635 11.3752 11.8407 11.4203 11.5315 11.5106C11.2222 11.6009 10.9333 11.7278 10.6648 11.8914C10.3962 12.0551 10.1494 12.254 9.92423 12.4881C9.69908 12.7223 9.5092 12.9776 9.35457 13.2541C9.19995 13.5305 9.07652 13.8324 8.98429 14.1597C8.89206 14.4869 8.84866 14.8226 8.85409 15.1668C8.85409 15.5167 8.89749 15.8524 8.98429 16.174C9.0711 16.4956 9.19317 16.7961 9.3505 17.0754C9.50784 17.3547 9.69908 17.6114 9.92423 17.8455C10.1494 18.0797 10.3949 18.2772 10.6607 18.438C10.9266 18.5988 11.2168 18.7272 11.5315 18.8231C11.8462 18.919 12.169 18.9641 12.4999 18.9585ZM12.4999 16.7918C12.6491 16.7918 12.7942 16.7707 12.9353 16.7284C13.0764 16.686 13.2093 16.6226 13.3341 16.5379C13.4588 16.4533 13.5687 16.356 13.6637 16.2459C13.7586 16.1359 13.8413 16.0075 13.9119 15.8608L14.3839 16.0978C14.2971 16.2868 14.1886 16.4575 14.0583 16.6099C13.9281 16.7622 13.7803 16.892 13.6148 16.9992C13.4494 17.1064 13.273 17.1882 13.0859 17.2446C12.8987 17.3011 12.7034 17.3307 12.4999 17.3335C12.2015 17.3335 11.9167 17.27 11.6454 17.1431C11.3742 17.0161 11.1382 16.8356 10.9374 16.6014V17.3335H10.4166V15.7085H11.9791V16.2502H11.3362C11.4827 16.4194 11.6576 16.552 11.8611 16.6479C12.0645 16.7439 12.2775 16.7918 12.4999 16.7918ZM14.0624 13.7323V13.0002H14.5833V14.6252H13.0208V14.0835H13.6637C13.5172 13.9142 13.3422 13.7816 13.1388 13.6857C12.9353 13.5898 12.7224 13.5418 12.4999 13.5418C12.3507 13.5418 12.2056 13.563 12.0645 13.6053C11.9235 13.6476 11.7906 13.7111 11.6658 13.7957C11.541 13.8804 11.4311 13.9777 11.3362 14.0877C11.2412 14.1978 11.1585 14.3261 11.088 14.4728L10.616 14.2358C10.7028 14.0468 10.8113 13.8761 10.9415 13.7238C11.0717 13.5715 11.2195 13.4417 11.385 13.3345C11.5505 13.2273 11.7268 13.1455 11.914 13.089C12.1012 13.0326 12.2965 13.003 12.4999 13.0002C12.7983 13.0002 13.0831 13.0636 13.3544 13.1906C13.6257 13.3175 13.8617 13.4981 14.0624 13.7323Z" fill="#55849B"/>
</svg>
