<svg width="22" height="22" viewBox="0 0 22 22" fill="none" xmlns="http://www.w3.org/2000/svg">
<path fill-rule="evenodd" clip-rule="evenodd" d="M4.10655 1.4668H4.03322C3.69735 1.4668 3.40842 1.4668 3.15322 1.52693C2.75815 1.62133 2.39693 1.82326 2.10958 2.11035C1.82224 2.39744 1.61998 2.75848 1.52522 3.15346C1.46655 3.40866 1.46655 3.69613 1.46655 4.03346V7.70013C1.46655 8.036 1.46655 8.32493 1.52669 8.58013C1.62109 8.9752 1.82302 9.33642 2.11011 9.62376C2.3972 9.91111 2.75824 10.1134 3.15322 10.2081C3.40842 10.2668 3.69589 10.2668 4.03322 10.2668H7.69989C8.03575 10.2668 8.32469 10.2668 8.57989 10.2067C8.97495 10.1123 9.33617 9.91033 9.62352 9.62324C9.91087 9.33615 10.1131 8.97511 10.2079 8.58013C10.2666 8.32493 10.2666 8.03746 10.2666 7.70013V4.03346C10.2666 3.6976 10.2666 3.40866 10.2064 3.15346C10.112 2.7584 9.91008 2.39718 9.62299 2.10983C9.3359 1.82248 8.97487 1.62022 8.57989 1.52546C8.32469 1.4668 8.03722 1.4668 7.69989 1.4668H4.10655ZM3.49495 2.954C3.55802 2.93933 3.65629 2.93346 4.10655 2.93346H7.62655C8.07829 2.93346 8.17509 2.93786 8.23815 2.954C8.3699 2.9855 8.49035 3.05289 8.58614 3.14868C8.68193 3.24446 8.74931 3.36491 8.78082 3.49666C8.79549 3.55826 8.79989 3.65506 8.79989 4.1068V7.6268C8.79989 8.07853 8.79549 8.17533 8.77935 8.2384C8.74785 8.37015 8.68046 8.4906 8.58467 8.58638C8.48888 8.68217 8.36844 8.74956 8.23669 8.78106C8.17655 8.79426 8.07975 8.80013 7.62655 8.80013H4.10655C3.65482 8.80013 3.55802 8.79573 3.49495 8.7796C3.3632 8.74809 3.24275 8.68071 3.14696 8.58492C3.05118 8.48913 2.98379 8.36868 2.95229 8.23693C2.93909 8.1768 2.93322 8.08 2.93322 7.6268V4.1068C2.93322 3.65506 2.93762 3.55826 2.95375 3.4952C2.98526 3.36345 3.05264 3.243 3.14843 3.14721C3.24422 3.05142 3.36467 2.98404 3.49642 2.95253L3.49495 2.954ZM14.3732 1.4668H14.2999C13.964 1.4668 13.6751 1.4668 13.4199 1.52693C13.0248 1.62133 12.6636 1.82326 12.3763 2.11035C12.0889 2.39744 11.8866 2.75848 11.7919 3.15346C11.7332 3.40866 11.7332 3.69613 11.7332 4.03346V7.70013C11.7332 8.036 11.7332 8.32493 11.7934 8.58013C11.8878 8.9752 12.0897 9.33642 12.3768 9.62376C12.6639 9.91111 13.0249 10.1134 13.4199 10.2081C13.6751 10.2668 13.9626 10.2668 14.2999 10.2668H17.9666C18.3024 10.2668 18.5914 10.2668 18.8466 10.2067C19.2416 10.1123 19.6028 9.91033 19.8902 9.62324C20.1775 9.33615 20.3798 8.97511 20.4746 8.58013C20.5332 8.32493 20.5332 8.03746 20.5332 7.70013V4.03346C20.5332 3.6976 20.5332 3.40866 20.4731 3.15346C20.3787 2.7584 20.1768 2.39718 19.8897 2.10983C19.6026 1.82248 19.2415 1.62022 18.8466 1.52546C18.5914 1.4668 18.3039 1.4668 17.9666 1.4668H14.3732ZM13.7616 2.954C13.8247 2.93933 13.923 2.93346 14.3732 2.93346H17.8932C18.345 2.93346 18.4418 2.93786 18.5048 2.954C18.6366 2.9855 18.757 3.05289 18.8528 3.14868C18.9486 3.24446 19.016 3.36491 19.0475 3.49666C19.0622 3.55826 19.0666 3.65506 19.0666 4.1068V7.6268C19.0666 8.07853 19.0607 8.17533 19.046 8.2384C19.0145 8.37015 18.9471 8.4906 18.8513 8.58638C18.7556 8.68217 18.6351 8.74956 18.5034 8.78106C18.4418 8.79573 18.345 8.80013 17.8932 8.80013H14.3732C13.9215 8.80013 13.8247 8.79573 13.7616 8.7796C13.6299 8.74809 13.5094 8.68071 13.4136 8.58492C13.3178 8.48913 13.2505 8.36868 13.219 8.23693C13.2058 8.1768 13.1999 8.08 13.1999 7.6268V4.1068C13.1999 3.65506 13.2043 3.55826 13.2204 3.4952C13.2519 3.36345 13.3193 3.243 13.4151 3.14721C13.5109 3.05142 13.6313 2.98404 13.7631 2.95253L13.7616 2.954ZM4.03322 11.7335H7.69989C8.03575 11.7335 8.32469 11.7335 8.57989 11.7936C8.97495 11.888 9.33617 12.0899 9.62352 12.377C9.91087 12.6641 10.1131 13.0251 10.2079 13.4201C10.2666 13.6753 10.2666 13.9628 10.2666 14.3001V17.9668C10.2666 18.3027 10.2666 18.5916 10.2064 18.8468C10.112 19.2419 9.91008 19.6031 9.62299 19.8904C9.3359 20.1778 8.97487 20.38 8.57989 20.4748C8.32469 20.5335 8.03722 20.5335 7.69989 20.5335H4.03322C3.69735 20.5335 3.40842 20.5335 3.15322 20.4733C2.75815 20.3789 2.39693 20.177 2.10958 19.8899C1.82224 19.6028 1.61998 19.2418 1.52522 18.8468C1.46655 18.5916 1.46655 18.3041 1.46655 17.9668V14.3001C1.46655 13.9643 1.46655 13.6753 1.52669 13.4201C1.62109 13.0251 1.82302 12.6638 2.11011 12.3765C2.3972 12.0891 2.75824 11.8869 3.15322 11.7921C3.40842 11.7335 3.69589 11.7335 4.03322 11.7335ZM4.10655 13.2001C3.65482 13.2001 3.55802 13.2045 3.49495 13.2207C3.3632 13.2522 3.24275 13.3196 3.14696 13.4153C3.05118 13.5111 2.98379 13.6316 2.95229 13.7633C2.93909 13.8235 2.93322 13.9203 2.93322 14.3735V17.8935C2.93322 18.3452 2.93762 18.442 2.95375 18.5051C2.98526 18.6368 3.05264 18.7573 3.14843 18.8531C3.24422 18.9488 3.36467 19.0162 3.49642 19.0477C3.55802 19.0624 3.65482 19.0668 4.10655 19.0668H7.62655C8.07829 19.0668 8.17509 19.0609 8.23815 19.0463C8.3699 19.0148 8.49035 18.9474 8.58614 18.8516C8.68193 18.7558 8.74931 18.6353 8.78082 18.5036C8.79549 18.442 8.79989 18.3452 8.79989 17.8935V14.3735C8.79989 13.9217 8.79549 13.8249 8.77935 13.7619C8.74785 13.6301 8.68046 13.5097 8.58467 13.4139C8.48888 13.3181 8.36844 13.2507 8.23669 13.2192C8.17655 13.206 8.07975 13.2001 7.62655 13.2001H4.10655ZM14.3732 11.7335H14.2999C13.964 11.7335 13.6751 11.7335 13.4199 11.7936C13.0248 11.888 12.6636 12.0899 12.3763 12.377C12.0889 12.6641 11.8866 13.0251 11.7919 13.4201C11.7332 13.6753 11.7332 13.9628 11.7332 14.3001V17.9668C11.7332 18.3027 11.7332 18.5916 11.7934 18.8468C11.8878 19.2419 12.0897 19.6031 12.3768 19.8904C12.6639 20.1778 13.0249 20.38 13.4199 20.4748C13.6751 20.5349 13.964 20.5349 14.2999 20.5349H17.9666C18.3024 20.5349 18.5914 20.5349 18.8466 20.4748C19.2414 20.3802 19.6023 20.1781 19.8893 19.891C20.1764 19.604 20.3784 19.2431 20.4731 18.8483C20.5332 18.5931 20.5332 18.3041 20.5332 17.9683V14.3001C20.5332 13.9643 20.5332 13.6753 20.4731 13.4201C20.3787 13.0251 20.1768 12.6638 19.8897 12.3765C19.6026 12.0891 19.2415 11.8869 18.8466 11.7921C18.5914 11.7335 18.3039 11.7335 17.9666 11.7335H14.3732ZM13.7616 13.2207C13.8247 13.206 13.923 13.2001 14.3732 13.2001H17.8932C18.345 13.2001 18.4418 13.2045 18.5048 13.2207C18.6366 13.2522 18.757 13.3196 18.8528 13.4153C18.9486 13.5111 19.016 13.6316 19.0475 13.7633C19.0622 13.8249 19.0666 13.9217 19.0666 14.3735V17.8935C19.0666 18.3452 19.0607 18.442 19.046 18.5051C19.0145 18.6368 18.9471 18.7573 18.8513 18.8531C18.7556 18.9488 18.6351 19.0162 18.5034 19.0477C18.4418 19.0624 18.345 19.0668 17.8932 19.0668H14.3732C13.9215 19.0668 13.8247 19.0609 13.7616 19.0463C13.6299 19.0148 13.5094 18.9474 13.4136 18.8516C13.3178 18.7558 13.2505 18.6353 13.219 18.5036C13.2058 18.4435 13.1999 18.3467 13.1999 17.8935V14.3735C13.1999 13.9217 13.2043 13.8249 13.2204 13.7619C13.2519 13.6301 13.3193 13.5097 13.4151 13.4139C13.5109 13.3181 13.6313 13.2507 13.7631 13.2192L13.7616 13.2207Z" fill="#55849B"/>
</svg>
