<svg width="22" height="22" viewBox="0 0 22 22" fill="none" xmlns="http://www.w3.org/2000/svg">
<path d="M15.832 9.37655C15.4415 9.76708 14.8083 9.76708 14.4178 9.37655L12.5583 7.51699C12.2039 7.16261 12.2039 6.58804 12.5583 6.23366C12.9126 5.87928 13.4872 5.87928 13.8416 6.23366L14.4178 6.80989C14.8083 7.20041 15.4415 7.20041 15.832 6.80989L18.3333 4.30866C18.6876 3.95428 19.2622 3.95428 19.6166 4.30866C19.971 4.66304 19.971 5.23761 19.6166 5.59199L15.832 9.37655ZM10.0833 7.33366C10.0833 6.8274 9.67285 6.41699 9.16659 6.41699H2.74992C2.24366 6.41699 1.83325 6.8274 1.83325 7.33366C1.83325 7.83992 2.24366 8.25033 2.74992 8.25033H9.16659C9.67285 8.25033 10.0833 7.83992 10.0833 7.33366ZM18.6083 12.9253C18.9626 12.5709 18.9626 11.9964 18.6083 11.642C18.2539 11.2876 17.6793 11.2876 17.3249 11.642L16.2904 12.6766C15.8998 13.0671 15.2667 13.0671 14.8761 12.6766L13.8416 11.642C13.4872 11.2876 12.9126 11.2876 12.5583 11.642C12.2039 11.9964 12.2039 12.5709 12.5583 12.9253L13.5928 13.9599C13.9833 14.3504 13.9833 14.9836 13.5928 15.3741L12.5583 16.4087C12.2039 16.763 12.2039 17.3376 12.5583 17.692C12.9126 18.0464 13.4872 18.0464 13.8416 17.692L14.8761 16.6574C15.2667 16.2669 15.8998 16.2669 16.2904 16.6574L17.3249 17.692C17.6793 18.0464 18.2539 18.0464 18.6083 17.692C18.9626 17.3376 18.9626 16.763 18.6083 16.4087L17.5737 15.3741C17.1832 14.9836 17.1832 14.3504 17.5737 13.9599L18.6083 12.9253ZM10.0833 14.667C10.0833 14.1607 9.67285 13.7503 9.16659 13.7503H2.74992C2.24366 13.7503 1.83325 14.1607 1.83325 14.667C1.83325 15.1733 2.24366 15.5837 2.74992 15.5837H9.16659C9.67285 15.5837 10.0833 15.1733 10.0833 14.667Z" fill="#55849B"/>
</svg>
