<svg width="24" height="24" viewBox="0 0 24 24" fill="none" xmlns="http://www.w3.org/2000/svg">
<g clip-path="url(#clip0_1722_47)">
<path d="M9.78669 9.8732C8.89508 9.8732 8.02349 9.60872 7.28223 9.11322C6.54097 8.61773 5.96334 7.91349 5.62244 7.08962C5.28154 6.26574 5.19268 5.35926 5.36711 4.48487C5.54155 3.61048 5.97143 2.80748 6.60236 2.17748C7.2333 1.54748 8.03693 1.11879 8.91158 0.945648C9.78623 0.772511 10.6926 0.86271 11.5159 1.20483C12.3393 1.54695 13.0427 2.12562 13.5371 2.86761C14.0315 3.60961 14.2947 4.48158 14.2934 5.3732C14.2898 6.56674 13.8137 7.7103 12.9691 8.55364C12.1245 9.39698 10.9802 9.87144 9.78669 9.8732ZM9.78669 2.19987C9.15907 2.19987 8.54554 2.38598 8.02368 2.73467C7.50183 3.08336 7.0951 3.57897 6.85492 4.15882C6.61473 4.73867 6.55189 5.37672 6.67433 5.99229C6.79678 6.60785 7.09901 7.17329 7.54281 7.61708C7.98661 8.06088 8.55204 8.36311 9.16761 8.48556C9.78317 8.608 10.4212 8.54516 11.0011 8.30498C11.5809 8.06479 12.0765 7.65806 12.4252 7.13621C12.7739 6.61436 12.96 6.00083 12.96 5.3732C12.96 4.53158 12.6257 3.72443 12.0306 3.12931C11.4355 2.5342 10.6283 2.19987 9.78669 2.19987Z" fill="#55849B"/>
<path d="M10.9466 21.1199C10.8009 20.9741 10.6885 20.7985 10.6171 20.6052C10.5458 20.4118 10.5172 20.2053 10.5333 19.9999H2.66659V16.1465C3.61185 15.1379 4.75839 14.339 6.03198 13.8015C7.30557 13.2641 8.67782 13 10.0599 13.0265H10.5399C10.5093 12.803 10.5307 12.5754 10.6024 12.3615C10.6741 12.1476 10.7941 11.9531 10.9533 11.7932L11.0333 11.7199C10.7199 11.7199 10.3666 11.6799 10.0599 11.6799C8.43352 11.6412 6.81887 11.9645 5.3327 12.6263C3.84654 13.2881 2.526 14.2719 1.46659 15.5065C1.38004 15.6219 1.33325 15.7623 1.33325 15.9065V19.9999C1.33325 20.3535 1.47373 20.6926 1.72378 20.9427C1.97382 21.1927 2.31296 21.3332 2.66659 21.3332H11.1333L10.9466 21.1199Z" fill="#55849B"/>
<path d="M17.9133 10.8595C17.9463 10.8535 17.9803 10.8535 18.0133 10.8595C17.9803 10.8542 17.9464 10.8542 17.9133 10.8595Z" fill="#55849B"/>
<path d="M18.2135 15.9741L17.3297 15.7042C17.2665 15.4877 17.1806 15.2786 17.0734 15.0803L17.5153 14.2573C17.5296 14.2244 17.5331 14.1877 17.5252 14.1527C17.5172 14.1177 17.4983 14.0861 17.4711 14.0626L16.8303 13.4211C16.8061 13.3948 16.7737 13.3775 16.7385 13.3719C16.7032 13.3662 16.6671 13.3727 16.6359 13.3901L15.8228 13.8326C15.6225 13.7199 15.4107 13.6294 15.1908 13.5627L14.9213 12.6777C14.9098 12.6452 14.8881 12.6172 14.8594 12.598C14.8307 12.5789 14.7966 12.5696 14.7622 12.5715H13.8563C13.8215 12.5711 13.7875 12.5822 13.7596 12.603C13.7316 12.6237 13.7113 12.6531 13.7016 12.6866L13.432 13.5715C13.2107 13.636 12.9973 13.725 12.7957 13.837L11.9914 13.3945C11.9609 13.3774 11.9255 13.3712 11.891 13.3768C11.8565 13.3824 11.8249 13.3996 11.8014 13.4255L11.1474 14.0626C11.1231 14.0882 11.1075 14.1208 11.1028 14.1557C11.098 14.1906 11.1043 14.2262 11.1209 14.2573L11.5628 15.0626C11.4459 15.2621 11.3525 15.4744 11.2844 15.6953L10.4006 15.9608C10.3671 15.9705 10.3378 15.9909 10.317 16.0189C10.2963 16.0468 10.2853 16.0808 10.2857 16.1157V17.0227C10.2883 17.0547 10.3007 17.0851 10.3213 17.1096C10.3419 17.1342 10.3696 17.1518 10.4006 17.1599L11.2844 17.4298C11.3497 17.6468 11.4386 17.8561 11.5495 18.0537L11.1076 18.8988C11.0907 18.9291 11.0842 18.964 11.089 18.9984C11.0938 19.0327 11.1096 19.0645 11.1341 19.089L11.7749 19.7306C11.7999 19.7556 11.8322 19.7721 11.8671 19.7776C11.902 19.7832 11.9378 19.7776 11.9693 19.7616L12.7957 19.3191C12.9924 19.425 13.1998 19.5096 13.4144 19.5713L13.6795 20.4562C13.6904 20.489 13.7111 20.5176 13.7387 20.5382C13.7664 20.5588 13.7997 20.5703 13.8342 20.5713H14.7401C14.7747 20.571 14.8083 20.5597 14.8361 20.539C14.8639 20.5183 14.8845 20.4894 14.8948 20.4562L15.1643 19.5492C15.3761 19.4874 15.5806 19.4028 15.7742 19.297L16.6094 19.7395C16.6401 19.7558 16.6753 19.7616 16.7096 19.756C16.7439 19.7504 16.7754 19.7337 16.7994 19.7085L17.4711 19.1067C17.4891 19.0808 17.4988 19.0499 17.4988 19.0182C17.4988 18.9866 17.4891 18.9557 17.4711 18.9297L17.0292 18.0979C17.1365 17.9027 17.2224 17.6965 17.2855 17.4829L18.1693 17.213C18.2027 17.2033 18.2321 17.1829 18.2528 17.155C18.2736 17.127 18.2846 17.093 18.2842 17.0581V16.129C18.2883 16.0991 18.2838 16.0687 18.2712 16.0413C18.2587 16.0139 18.2387 15.9906 18.2135 15.9741ZM14.3114 18.0448C14.0191 18.0457 13.7332 17.9597 13.4898 17.7976C13.2464 17.6356 13.0565 17.4048 12.9443 17.1346C12.832 16.8644 12.8024 16.5669 12.8592 16.2798C12.916 15.9927 13.0567 15.729 13.2634 15.522C13.47 15.3151 13.7334 15.1742 14.0202 15.1174C14.3069 15.0605 14.604 15.0901 14.8739 15.2025C15.1438 15.3149 15.3742 15.505 15.5361 15.7487C15.6979 15.9924 15.7839 16.2788 15.783 16.5714C15.7818 16.9618 15.6264 17.3359 15.3507 17.612C15.075 17.888 14.7014 18.0437 14.3114 18.0448Z" fill="#55849B"/>
</g>
<defs>
<clipPath id="clip0_1722_47">
<rect width="24" height="24" fill="white"/>
</clipPath>
</defs>
</svg>
