<svg width="22" height="21" viewBox="0 0 22 21" fill="none" xmlns="http://www.w3.org/2000/svg">
<path d="M14.9241 10.3082C15.0532 10.185 15.1258 10.0179 15.1258 9.8436C15.1258 9.66933 15.0532 9.5022 14.9241 9.37898C14.795 9.25575 14.62 9.18652 14.4374 9.18652C14.2548 9.18652 14.0797 9.25575 13.9506 9.37898L10.3124 12.8532L8.73664 11.3477C8.60755 11.2245 8.43246 11.1553 8.24989 11.1553C8.06733 11.1553 7.89224 11.2245 7.76314 11.3477C7.63405 11.471 7.56152 11.6381 7.56152 11.8124C7.56152 11.9866 7.63405 12.1538 7.76314 12.277L9.82564 14.2457C9.8895 14.3068 9.96537 14.3553 10.0489 14.3884C10.1324 14.4215 10.222 14.4385 10.3124 14.4385C10.4028 14.4385 10.4924 14.4215 10.5759 14.3884C10.6594 14.3553 10.7353 14.3068 10.7991 14.2457L14.9241 10.3082Z" fill="#55849B"/>
<path d="M19.25 18.375V5.90625L13.0625 0H5.5C4.77065 0 4.07118 0.276562 3.55546 0.768845C3.03973 1.26113 2.75 1.92881 2.75 2.625V18.375C2.75 19.0712 3.03973 19.7389 3.55546 20.2312C4.07118 20.7234 4.77065 21 5.5 21H16.5C17.2293 21 17.9288 20.7234 18.4445 20.2312C18.9603 19.7389 19.25 19.0712 19.25 18.375ZM13.0625 3.9375C13.0625 4.45964 13.2798 4.9604 13.6666 5.32962C14.0534 5.69883 14.578 5.90625 15.125 5.90625H17.875V18.375C17.875 18.7231 17.7301 19.0569 17.4723 19.3031C17.2144 19.5492 16.8647 19.6875 16.5 19.6875H5.5C5.13533 19.6875 4.78559 19.5492 4.52773 19.3031C4.26987 19.0569 4.125 18.7231 4.125 18.375V2.625C4.125 2.2769 4.26987 1.94306 4.52773 1.69692C4.78559 1.45078 5.13533 1.3125 5.5 1.3125H13.0625V3.9375Z" fill="#55849B"/>
</svg>
