<svg width="24" height="23" viewBox="0 0 24 23" fill="none" xmlns="http://www.w3.org/2000/svg">
<mask id="mask0_1695_133" style="mask-type:luminance" maskUnits="userSpaceOnUse" x="2" y="2" width="21" height="19">
<path d="M12 2.875H4.5C4.10218 2.875 3.72064 3.02645 3.43934 3.29603C3.15804 3.56562 3 3.93125 3 4.3125V14.8542C3 15.2354 3.15804 15.601 3.43934 15.8706C3.72064 16.1402 4.10218 16.2917 4.5 16.2917H19.5C19.8978 16.2917 20.2794 16.1402 20.5607 15.8706C20.842 15.601 21 15.2354 21 14.8542V12.4583M12 16.2917V20.125M7 20.125H17" stroke="white" stroke-linecap="round" stroke-linejoin="round"/>
<path d="M18.5 7.6665C19.3284 7.6665 20 7.02291 20 6.229C20 5.43509 19.3284 4.7915 18.5 4.7915C17.6716 4.7915 17 5.43509 17 6.229C17 7.02291 17.6716 7.6665 18.5 7.6665Z" fill="#555555" stroke="white"/>
<path d="M18.5 9.58333V7.66667M18.5 4.79167V2.875M15.469 7.90625L17.201 6.94792M19.799 5.51042L21.531 4.55208M15.469 4.55208L17.201 5.51042M19.799 6.94792L21.531 7.90625" stroke="white" stroke-linecap="round" stroke-linejoin="round"/>
</mask>
<g mask="url(#mask0_1695_133)">
<path d="M0.5 0.5H23.5V22.5H0.5V0.5Z" fill="#55849B" stroke="black"/>
</g>
</svg>
