<svg width="26" height="26" viewBox="0 0 26 26" fill="none" xmlns="http://www.w3.org/2000/svg">
<path d="M18.2 2.6001H7.79995C7.11039 2.6001 6.44907 2.87403 5.96147 3.36162C5.47388 3.84921 5.19995 4.51053 5.19995 5.2001V20.8001C5.19995 21.4897 5.47388 22.151 5.96147 22.6386C6.44907 23.1262 7.11039 23.4001 7.79995 23.4001H13.3341C13.0029 22.9991 12.7166 22.5632 12.48 22.1001H7.79995C7.45517 22.1001 7.12451 21.9631 6.88071 21.7193C6.63692 21.4755 6.49995 21.1449 6.49995 20.8001V5.2001C6.49995 4.85532 6.63692 4.52466 6.88071 4.28086C7.12451 4.03706 7.45517 3.9001 7.79995 3.9001H18.2C18.5447 3.9001 18.8754 4.03706 19.1192 4.28086C19.363 4.52466 19.5 4.85532 19.5 5.2001V11.7287C19.9398 11.7685 20.375 11.8491 20.7999 11.9692V5.2001C20.7999 4.51053 20.526 3.84921 20.0384 3.36162C19.5508 2.87403 18.8895 2.6001 18.2 2.6001ZM16.9 8.4501C16.9 8.60223 16.8467 8.74956 16.7493 8.86643C16.6519 8.98331 16.5166 9.06231 16.367 9.0897L16.25 9.1001H9.74995C9.58752 9.1004 9.43087 9.03987 9.31083 8.93044C9.1908 8.821 9.11609 8.6706 9.10141 8.50883C9.08674 8.34706 9.13316 8.18567 9.23154 8.05642C9.32991 7.92717 9.47312 7.83944 9.63295 7.8105L9.74995 7.8001H16.25C16.4223 7.8001 16.5877 7.86858 16.7096 7.99048C16.8315 8.11238 16.9 8.27771 16.9 8.4501ZM18.85 24.7001C20.4015 24.7001 21.8894 24.0838 22.9865 22.9867C24.0836 21.8896 24.7 20.4016 24.7 18.8501C24.7 17.2986 24.0836 15.8106 22.9865 14.7135C21.8894 13.6164 20.4015 13.0001 18.85 13.0001C17.2984 13.0001 15.8105 13.6164 14.7134 14.7135C13.6163 15.8106 13 17.2986 13 18.8501C13 20.4016 13.6163 21.8896 14.7134 22.9867C15.8105 24.0838 17.2984 24.7001 18.85 24.7001ZM18.85 15.6001C19.0223 15.6001 19.1877 15.6686 19.3096 15.7905C19.4315 15.9124 19.5 16.0777 19.5 16.2501V18.2001H21.45C21.6223 18.2001 21.7877 18.2686 21.9096 18.3905C22.0315 18.5124 22.1 18.6777 22.1 18.8501C22.1 19.0225 22.0315 19.1878 21.9096 19.3097C21.7877 19.4316 21.6223 19.5001 21.45 19.5001H19.5V21.4501C19.5 21.6225 19.4315 21.7878 19.3096 21.9097C19.1877 22.0316 19.0223 22.1001 18.85 22.1001C18.6776 22.1001 18.5122 22.0316 18.3903 21.9097C18.2684 21.7878 18.2 21.6225 18.2 21.4501V19.5001H16.25C16.0776 19.5001 15.9122 19.4316 15.7903 19.3097C15.6684 19.1878 15.6 19.0225 15.6 18.8501C15.6 18.6777 15.6684 18.5124 15.7903 18.3905C15.9122 18.2686 16.0776 18.2001 16.25 18.2001H18.2V16.2501C18.2 16.0777 18.2684 15.9124 18.3903 15.7905C18.5122 15.6686 18.6776 15.6001 18.85 15.6001ZM9.74995 13.0001H14.7381C14.2142 13.3693 13.741 13.8061 13.3341 14.3001H9.74995C9.57756 14.3001 9.41223 14.2316 9.29033 14.1097C9.16843 13.9878 9.09995 13.8225 9.09995 13.6501C9.09995 13.4777 9.16843 13.3124 9.29033 13.1905C9.41223 13.0686 9.57756 13.0001 9.74995 13.0001Z" fill="#55849B"/>
</svg>
