<svg width="24" height="23" viewBox="0 0 24 23" fill="none" xmlns="http://www.w3.org/2000/svg">
<path d="M7.12988 7.18359L6.60615 7.72957L7.38542 8.54271L7.90841 7.99673L7.12988 7.18359ZM13.9648 7.18359L13.1855 7.99673L13.7089 8.54271L14.4878 7.72996L13.9648 7.18359ZM10.5471 7.4259C10.4244 7.42746 10.3002 7.43484 10.1752 7.45076C10.1715 7.45076 10.1677 7.44998 10.164 7.45076C8.65532 7.63132 7.45461 8.90384 7.24593 10.4719C7.07929 11.7339 7.57773 12.8783 8.40833 13.6153C8.74809 13.918 8.9779 14.3334 9.05928 14.7919V17.1218H9.90736C10.0368 17.3536 10.273 17.5101 10.5471 17.5101C10.8213 17.5101 11.0575 17.3536 11.1869 17.1218H12.035V15.5685H12.07V15.1072C12.07 14.5379 12.3534 13.964 12.8139 13.5178C13.4299 12.874 13.8949 11.9595 13.8949 10.9091C13.8949 8.99082 12.3824 7.40804 10.5471 7.4259ZM10.5471 8.20254C11.9848 8.18157 13.1509 9.41021 13.1509 10.9091C13.1509 11.7223 12.7901 12.4383 12.2906 12.9594L12.3025 12.9719C11.806 13.4498 11.485 14.0936 11.3949 14.7923H9.76787C9.68604 14.1267 9.41265 13.4825 8.89598 13.0204C8.23872 12.4379 7.84703 11.5603 7.97797 10.5693C8.14052 9.34613 9.09127 8.36253 10.2563 8.22778C10.3525 8.21378 10.4493 8.20548 10.5464 8.20293L10.5471 8.20254ZM5.3396 10.9091V11.6857H6.4555V10.9091H5.3396ZM14.6388 10.9091V11.6857H15.7547V10.9091H14.6388ZM7.38542 14.0522L6.60652 14.8649L7.12988 15.4113L7.90804 14.5981L7.38542 14.0522ZM13.7089 14.0522L13.1859 14.5981L13.9644 15.4113L14.4878 14.8649L13.7089 14.0522ZM9.80321 15.5689H11.2911V16.3456H9.80321V15.5689Z" fill="#55849B"/>
<path fill-rule="evenodd" clip-rule="evenodd" d="M19.9356 10.3195C19.8444 10.324 19.7527 10.3263 19.6604 10.3263C19.4058 10.3263 19.1552 10.3089 18.9095 10.275C19.0306 10.8703 19.0943 11.4883 19.0943 12.1227C19.0943 17.0579 15.2358 21.0002 10.5472 21.0002C5.85849 21.0002 2 17.0579 2 12.1227C2 7.18739 5.85849 3.24512 10.5472 3.24512C11.7872 3.24512 12.9692 3.52087 14.0371 4.01782C14.0642 3.66764 14.1211 3.32618 14.2053 2.99616C13.0786 2.51224 11.8431 2.24512 10.5472 2.24512C5.27441 2.24512 1 6.66745 1 12.1227C1 17.5779 5.27441 22.0002 10.5472 22.0002C15.8199 22.0002 20.0943 17.5779 20.0943 12.1227C20.0943 11.5068 20.0399 10.9041 19.9356 10.3195Z" fill="#55849B"/>
<path d="M19.9356 10.3195L20.1817 10.2756L20.1431 10.0589L19.9232 10.0698L19.9356 10.3195ZM18.9095 10.275L18.9436 10.0274L18.5943 9.97931L18.6645 10.3249L18.9095 10.275ZM14.0371 4.01782L13.9316 4.24448L14.2585 4.39663L14.2863 4.03709L14.0371 4.01782ZM14.2053 2.99616L14.4475 3.05795L14.5004 2.85082L14.3039 2.76646L14.2053 2.99616ZM19.6604 10.5763C19.7568 10.5763 19.8527 10.5739 19.948 10.5692L19.9232 10.0698C19.8362 10.0741 19.7486 10.0763 19.6604 10.0763V10.5763ZM18.8754 10.5227C19.1324 10.5581 19.3944 10.5763 19.6604 10.5763V10.0763C19.4173 10.0763 19.178 10.0596 18.9436 10.0274L18.8754 10.5227ZM19.3443 12.1227C19.3443 11.4715 19.2789 10.8369 19.1545 10.2252L18.6645 10.3249C18.7823 10.9038 18.8443 11.5051 18.8443 12.1227H19.3443ZM10.5472 21.2502C15.3816 21.2502 19.3443 17.1882 19.3443 12.1227H18.8443C18.8443 16.9277 15.0901 20.7502 10.5472 20.7502V21.2502ZM1.75 12.1227C1.75 17.1882 5.71275 21.2502 10.5472 21.2502V20.7502C6.00424 20.7502 2.25 16.9277 2.25 12.1227H1.75ZM10.5472 2.99512C5.71275 2.99512 1.75 7.05712 1.75 12.1227H2.25C2.25 7.31766 6.00424 3.49512 10.5472 3.49512V2.99512ZM14.1426 3.79116C13.0426 3.27927 11.8247 2.99512 10.5472 2.99512V3.49512C11.7498 3.49512 12.8958 3.76247 13.9316 4.24448L14.1426 3.79116ZM13.963 2.93437C13.8753 3.27826 13.816 3.63395 13.7878 3.99855L14.2863 4.03709C14.3123 3.70134 14.3669 3.3741 14.4475 3.05795L13.963 2.93437ZM14.3039 2.76646C13.1468 2.26945 11.8777 1.99512 10.5472 1.99512V2.49512C11.8084 2.49512 13.0104 2.75503 14.1066 3.22587L14.3039 2.76646ZM10.5472 1.99512C5.12839 1.99512 0.75 6.53746 0.75 12.1227H1.25C1.25 6.79743 5.42043 2.49512 10.5472 2.49512V1.99512ZM0.75 12.1227C0.75 17.7079 5.12839 22.2502 10.5472 22.2502V21.7502C5.42043 21.7502 1.25 17.4479 1.25 12.1227H0.75ZM10.5472 22.2502C15.9659 22.2502 20.3443 17.7079 20.3443 12.1227H19.8443C19.8443 17.4479 15.6739 21.7502 10.5472 21.7502V22.2502ZM20.3443 12.1227C20.3443 11.492 20.2886 10.8747 20.1817 10.2756L19.6895 10.3634C19.7912 10.9336 19.8443 11.5216 19.8443 12.1227H20.3443Z" fill="#55849B"/>
<path fill-rule="evenodd" clip-rule="evenodd" d="M19.2265 9.87755C21.8628 9.87755 24.0001 7.66639 24.0001 4.93878C24.0001 2.21117 21.8628 0 19.2265 0C16.5901 0 14.4529 2.21117 14.4529 4.93878C14.4529 7.66639 16.5901 9.87755 19.2265 9.87755ZM19.5363 5.25945H21.0862C21.1684 5.25945 21.2472 5.22566 21.3053 5.16551C21.3635 5.10537 21.3961 5.0238 21.3961 4.93875C21.3961 4.85369 21.3635 4.77212 21.3053 4.71198C21.2472 4.65183 21.1684 4.61805 21.0862 4.61805H19.5363V3.01455C19.5363 2.92949 19.5036 2.84792 19.4455 2.78778C19.3874 2.72764 19.3085 2.69385 19.2263 2.69385C19.1441 2.69385 19.0653 2.72764 19.0071 2.78778C18.949 2.84792 18.9163 2.92949 18.9163 3.01455V4.61805H17.3665C17.2843 4.61805 17.2054 4.65183 17.1473 4.71198C17.0892 4.77212 17.0565 4.85369 17.0565 4.93875C17.0565 5.0238 17.0892 5.10537 17.1473 5.16551C17.2054 5.22566 17.2843 5.25945 17.3665 5.25945H18.9163V6.86294C18.9163 6.948 18.949 7.02957 19.0071 7.08971C19.0653 7.14986 19.1441 7.18364 19.2263 7.18364C19.3085 7.18364 19.3874 7.14986 19.4455 7.08971C19.5036 7.02957 19.5363 6.948 19.5363 6.86294V5.25945Z" fill="#55849B"/>
</svg>
