<svg width="26" height="26" viewBox="0 0 26 26" fill="none" xmlns="http://www.w3.org/2000/svg">
<path fill-rule="evenodd" clip-rule="evenodd" d="M9 2.6001H7.79995C7.11039 2.6001 6.44907 2.87403 5.96147 3.36162C5.47388 3.84921 5.19995 4.51053 5.19995 5.2001V20.8001C5.19995 21.4897 5.47388 22.151 5.96147 22.6386C6.44907 23.1262 7.11039 23.4001 7.79995 23.4001H13.3341C13.0029 22.9991 12.7166 22.5632 12.48 22.1001H7.79995C7.45517 22.1001 7.12451 21.9631 6.88071 21.7193C6.63692 21.4755 6.49995 21.1449 6.49995 20.8001V5.2001C6.49995 4.85532 6.63692 4.52466 6.88071 4.28086C7.12451 4.03706 7.45517 3.9001 7.79995 3.9001H9V2.6001ZM18 3.9001H18.2C18.5447 3.9001 18.8754 4.03706 19.1192 4.28086C19.363 4.52466 19.5 4.85532 19.5 5.2001V11.7287C19.9398 11.7685 20.375 11.8491 20.7999 11.9692V5.2001C20.7999 4.51053 20.526 3.84921 20.0384 3.36162C19.5508 2.87403 18.8895 2.6001 18.2 2.6001H18V3.9001ZM16.7493 8.86643C16.8467 8.74956 16.9 8.60223 16.9 8.4501C16.9 8.27771 16.8315 8.11238 16.7096 7.99048C16.5877 7.86858 16.4223 7.8001 16.25 7.8001H9.74995L9.63295 7.8105C9.47312 7.83944 9.32991 7.92717 9.23154 8.05642C9.13316 8.18567 9.08674 8.34706 9.10141 8.50883C9.11609 8.6706 9.1908 8.821 9.31083 8.93044C9.43087 9.03987 9.58752 9.1004 9.74995 9.1001H16.25L16.367 9.0897C16.5166 9.06231 16.6519 8.98331 16.7493 8.86643ZM14.7381 15.0001H9.74995C9.57756 15.0001 9.41223 15.0686 9.29033 15.1905C9.16843 15.3124 9.09995 15.4777 9.09995 15.6501C9.09995 15.8225 9.16843 15.9878 9.29033 16.1097C9.41223 16.2316 9.57756 16.3001 9.74995 16.3001H13.3341C13.741 15.8061 14.2142 15.3693 14.7381 15.0001ZM16.8998 12.15C16.8999 12.3021 16.8466 12.4495 16.7492 12.5663C16.6518 12.6832 16.5165 12.7622 16.3668 12.7896L16.2498 12.8H9.74983C9.5874 12.8003 9.43075 12.7398 9.31071 12.6303C9.19068 12.5209 9.11597 12.3705 9.10129 12.2087C9.08662 12.047 9.13304 11.8856 9.23142 11.7563C9.32979 11.6271 9.473 11.5393 9.63283 11.5104L9.74983 11.5H16.2498C16.4222 11.5 16.5876 11.5685 16.7094 11.6904C16.8313 11.8123 16.8998 11.9776 16.8998 12.15Z" fill="#55849B"/>
<rect x="9.5" y="1.5" width="8" height="3" rx="0.5" stroke="#55849B"/>
<path d="M22.9188 17.8282L21.9245 17.5245C21.8535 17.281 21.7568 17.0457 21.6362 16.8227L22.1333 15.8968C22.1495 15.8598 22.1534 15.8185 22.1445 15.7791C22.1355 15.7397 22.1142 15.7042 22.0836 15.6778L21.3628 14.956C21.3355 14.9265 21.2991 14.907 21.2594 14.9006C21.2197 14.8943 21.1791 14.9015 21.144 14.9212L20.2293 15.4189C20.004 15.2922 19.7656 15.1903 19.5183 15.1153L19.2151 14.1198C19.2022 14.0831 19.1778 14.0516 19.1455 14.0301C19.1132 14.0085 19.0748 13.9981 19.0361 14.0003H18.017C17.9778 13.9998 17.9396 14.0122 17.9082 14.0356C17.8767 14.059 17.8538 14.092 17.843 14.1297L17.5397 15.1253C17.2907 15.1978 17.0506 15.298 16.8238 15.4239L15.919 14.9261C15.8847 14.9069 15.8449 14.8999 15.806 14.9062C15.7672 14.9125 15.7317 14.9318 15.7052 14.961L14.9694 15.6778C14.9422 15.7065 14.9246 15.7432 14.9193 15.7825C14.9139 15.8218 14.921 15.8618 14.9396 15.8968L15.4368 16.8027C15.3053 17.0271 15.2002 17.266 15.1236 17.5146L14.1293 17.8132C14.0917 17.8241 14.0587 17.847 14.0353 17.8785C14.012 17.91 13.9996 17.9482 14 17.9874V19.0079C14.0029 19.0438 14.017 19.078 14.0401 19.1056C14.0633 19.1333 14.0944 19.153 14.1293 19.1622L15.1236 19.4658C15.197 19.71 15.2971 19.9454 15.4219 20.1677L14.9247 21.1184C14.9057 21.1525 14.8984 21.1918 14.9038 21.2305C14.9092 21.2691 14.927 21.3049 14.9545 21.3325L15.6754 22.0542C15.7036 22.0824 15.7399 22.1009 15.7791 22.1071C15.8184 22.1134 15.8587 22.1071 15.8941 22.0891L16.8238 21.5913C17.045 21.7104 17.2784 21.8056 17.5198 21.875L17.8181 22.8706C17.8303 22.9074 17.8536 22.9396 17.8847 22.9628C17.9158 22.9859 17.9533 22.9989 17.9921 23H19.0113C19.0502 22.9997 19.088 22.9869 19.1193 22.9637C19.1506 22.9404 19.1737 22.9078 19.1853 22.8706L19.4885 21.8501C19.7268 21.7806 19.9568 21.6855 20.1746 21.5664L21.1142 22.0642C21.1487 22.0826 21.1883 22.0891 21.2269 22.0828C21.2655 22.0765 21.301 22.0577 21.328 22.0293L22.0836 21.3524C22.1039 21.3232 22.1148 21.2884 22.1148 21.2528C22.1148 21.2172 22.1039 21.1825 22.0836 21.1533L21.5865 20.2175C21.7072 19.9979 21.8038 19.7659 21.8748 19.5256L22.8691 19.2219C22.9067 19.211 22.9397 19.1881 22.9631 19.1566C22.9864 19.1252 22.9988 19.0869 22.9984 19.0477V18.0024C23.0029 17.9688 22.9979 17.9346 22.9838 17.9037C22.9697 17.8729 22.9472 17.8467 22.9188 17.8282ZM18.529 20.1577C18.2002 20.1587 17.8785 20.0619 17.6046 19.8796C17.3308 19.6973 17.1172 19.4377 16.9909 19.1337C16.8646 18.8297 16.8313 18.495 16.8952 18.172C16.9592 17.8491 17.1174 17.5524 17.3499 17.3196C17.5824 17.0868 17.8788 16.9283 18.2013 16.8643C18.5239 16.8003 18.8582 16.8337 19.1618 16.9601C19.4654 17.0866 19.7247 17.3004 19.9068 17.5746C20.0888 17.8488 20.1855 18.1709 20.1845 18.5001C20.1832 18.9394 20.0084 19.3602 19.6982 19.6708C19.388 19.9814 18.9677 20.1564 18.529 20.1577Z" fill="#55849B"/>
</svg>
