<svg width="24" height="22" viewBox="0 0 24 22" fill="none" xmlns="http://www.w3.org/2000/svg">
<g clip-path="url(#clip0_57_1510)">
<path d="M21 2H3C2.46957 2 1.96086 2.21071 1.58579 2.58579C1.21071 2.96086 1 3.46957 1 4V16C1 16.5304 1.21071 17.0391 1.58579 17.4142C1.96086 17.7893 2.46957 18 3 18H11L10.5 20L8 21V22H16V21L13.5 20L13 18H21C21.5304 18 22.0391 17.7893 22.4142 17.4142C22.7893 17.0391 23 16.5304 23 16V4C23 3.46957 22.7893 2.96086 22.4142 2.58579C22.0391 2.21071 21.5304 2 21 2ZM21.5 9.5V10.5V16.5H2.5V10.5H8V12.5L11 10L8 7.5V9.5H2.5V3.5H21.5V9.5Z" fill="#4F7FC1"/>
<path fill-rule="evenodd" clip-rule="evenodd" d="M16.0003 7C15.7636 7 15.5717 7.19188 15.5717 7.42857V9.57139H13.4286C13.1919 9.57139 13 9.76326 13 9.99996C13 10.2367 13.1919 10.4285 13.4286 10.4285H15.5717V12.5714C15.5717 12.8081 15.7636 13 16.0003 13C16.2369 13 16.4288 12.8081 16.4288 12.5714V10.4285H18.5714C18.8081 10.4285 19 10.2367 19 9.99996C19 9.76326 18.8081 9.57139 18.5714 9.57139H16.4288V7.42857C16.4288 7.19188 16.2369 7 16.0003 7Z" fill="#4F7FC1"/>
</g>
<defs>
<clipPath id="clip0_57_1510">
<rect width="24" height="22" fill="white"/>
</clipPath>
</defs>
</svg>
